<?xml version="1.0" encoding="UTF-8" standalone="no"?>
<!DOCTYPE svg PUBLIC "-//W3C//DTD SVG 1.1//EN" "http://www.w3.org/Graphics/SVG/1.1/DTD/svg11.dtd">
<svg version="1.1" xmlns="http://www.w3.org/2000/svg" xmlns:xlink="http://www.w3.org/1999/xlink" preserveAspectRatio="xMidYMid meet" viewBox="0 0 640 640" width="256" height="256"><defs><path d="M243.85 102.73C243.86 102.79 243.85 102.86 243.86 102.92C255.24 98.43 267.04 94.99 279.14 92.66C279.06 92.1 279.06 91.61 279.06 91.06C279.06 68.52 297.43 50.16 319.96 50.16C342.58 50.16 360.86 68.52 360.86 91.06C360.86 91.61 360.86 92.26 360.78 92.82C372.81 95.23 384.59 98.76 395.9 103.41C396.62 99.4 396.94 95.23 396.94 91.06C396.94 48.63 362.46 14.07 319.96 14.07C277.54 14.07 242.98 48.63 242.98 91.06C242.98 94.1 243.31 97.09 243.64 100.07C243.72 100.96 243.72 101.87 243.79 102.75C243.81 102.74 243.83 102.73 243.85 102.73Z" id="as3lryrM1"></path><path d="M220.39 541.22C220.39 541.23 220.4 541.24 220.4 541.25C220.38 541.25 220.22 541.25 220.2 541.25C228.06 589.36 269.76 625.93 319.96 625.93C350.5 625.93 377.8 612.38 396.32 591C396.79 590.46 397.29 589.97 397.75 589.42C398.76 588.2 399.68 586.9 400.64 585.63C401.46 584.55 402.32 583.5 403.1 582.37C403.76 581.42 404.34 580.41 404.96 579.43C405.93 577.94 406.92 576.46 407.81 574.9C408.28 574.07 408.68 573.18 409.13 572.33C410.07 570.59 411.01 568.85 411.84 567.04C412.23 566.21 412.53 565.33 412.89 564.49C413.69 562.6 414.51 560.73 415.2 558.79C415.43 558.15 415.59 557.48 415.81 556.83C417.47 551.86 418.82 546.75 419.72 541.44C419.71 541.44 419.68 541.44 419.68 541.44C419.69 541.38 419.71 541.31 419.72 541.25C408.28 541.25 351.11 541.25 248.19 541.25C231.51 541.23 222.25 541.22 220.39 541.22Z" id="a17z0JEnQ9"></path><path d="M321.55 112.72L322.38 112.73L323.21 112.74L324.05 112.76L324.88 112.78L325.71 112.81L326.54 112.84L327.36 112.87L328.19 112.9L329.02 112.95L329.84 112.99L330.67 113.04L331.49 113.09L332.31 113.15L333.13 113.21L333.95 113.27L334.77 113.34L335.59 113.41L336.41 113.48L337.22 113.56L338.04 113.64L338.85 113.73L339.67 113.82L340.48 113.91L341.29 114.01L342.1 114.11L342.91 114.21L343.71 114.32L344.52 114.44L345.32 114.55L346.13 114.67L346.93 114.79L347.73 114.92L348.53 115.05L349.33 115.19L350.13 115.32L350.93 115.46L351.72 115.61L352.52 115.76L353.45 115.93L354.38 116.1L355.31 116.29L356.23 116.47L357.16 116.66L358.08 116.86L359 117.06L359.92 117.27L360.83 117.48L361.75 117.69L362.66 117.91L363.57 118.14L364.48 118.37L365.39 118.61L366.29 118.85L367.2 119.09L368.1 119.35L369 119.6L369.9 119.86L370.79 120.13L371.69 120.4L372.58 120.67L373.47 120.95L374.35 121.24L375.24 121.53L376.12 121.82L377 122.12L377.88 122.42L378.76 122.73L379.64 123.04L380.51 123.36L381.38 123.68L382.25 124.01L383.12 124.34L383.98 124.68L384.85 125.02L385.71 125.36L386.57 125.71L387.43 126.07L388.28 126.42L393.37 128.61L398.37 130.95L403.3 133.43L408.15 136.06L412.91 138.83L417.58 141.74L422.16 144.78L426.64 147.96L431.03 151.26L435.32 154.69L439.51 158.25L443.6 161.92L447.57 165.72L451.44 169.63L455.2 173.65L458.84 177.77L462.36 182.01L465.77 186.34L469.05 190.78L472.2 195.32L475.23 199.94L478.12 204.66L480.89 209.47L483.51 214.36L486 219.34L488.35 224.39L490.55 229.52L492.61 234.72L494.51 239.99L496.27 245.34L497.87 250.74L499.31 256.21L500.6 261.73L501.72 267.31L502.67 272.95L503.46 278.63L504.08 284.36L504.52 290.13L504.79 295.95L504.88 301.8L504.88 331.31L504.92 334.62L505.04 337.91L505.25 341.17L505.53 344.42L505.9 347.64L506.34 350.84L506.86 354.01L507.45 357.16L508.12 360.28L508.87 363.37L509.68 366.43L510.57 369.46L511.53 372.46L512.56 375.42L513.66 378.36L514.83 381.26L516.07 384.12L517.37 386.95L518.73 389.74L520.17 392.49L521.66 395.21L523.22 397.88L524.83 400.51L526.51 403.11L528.25 405.65L530.05 408.16L531.9 410.62L533.81 413.03L535.78 415.39L537.8 417.71L539.87 419.98L541.99 422.2L544.17 424.37L546.4 426.49L548.68 428.55L551 430.56L553.38 432.52L555.8 434.41L558.26 436.26L560.77 438.04L561.47 438.54L562.15 439.06L562.81 439.59L563.46 440.14L564.1 440.7L564.72 441.28L565.32 441.86L565.91 442.47L566.48 443.08L567.04 443.71L567.57 444.35L568.1 445.01L568.6 445.67L569.09 446.35L569.56 447.04L570.02 447.74L570.46 448.44L570.88 449.16L571.28 449.89L571.67 450.63L572.04 451.38L572.39 452.13L572.72 452.9L573.04 453.67L573.33 454.45L573.61 455.24L573.87 456.03L574.11 456.83L574.34 457.64L574.54 458.45L574.73 459.27L574.89 460.09L575.04 460.92L575.17 461.75L575.28 462.59L575.37 463.43L575.44 464.28L575.49 465.12L575.52 465.97L575.53 466.83L575.5 468.29L575.41 469.74L575.26 471.18L575.06 472.6L574.81 474L574.5 475.37L574.13 476.73L573.72 478.07L573.25 479.38L572.74 480.67L572.18 481.93L571.57 483.17L570.91 484.38L570.21 485.56L569.47 486.7L568.68 487.82L567.85 488.91L566.98 489.96L566.08 490.98L565.13 491.96L564.15 492.91L563.13 493.81L562.08 494.68L560.99 495.51L559.88 496.3L558.73 497.04L557.55 497.74L556.34 498.4L555.1 499L553.84 499.57L552.55 500.08L551.24 500.55L549.91 500.96L548.55 501.32L547.17 501.63L545.77 501.89L544.35 502.09L542.92 502.24L541.47 502.33L540 502.35L100 502.35L99.26 502.35L98.53 502.33L97.79 502.29L97.07 502.24L96.35 502.17L95.63 502.09L94.92 502L94.21 501.89L93.5 501.77L92.81 501.64L92.11 501.49L91.42 501.33L90.74 501.16L90.06 500.97L89.39 500.77L88.73 500.56L88.07 500.33L87.41 500.09L86.76 499.84L86.12 499.58L85.49 499.3L84.86 499.02L84.24 498.72L83.63 498.41L83.02 498.08L82.42 497.75L81.83 497.4L81.25 497.05L80.67 496.68L80.1 496.3L79.54 495.91L78.99 495.51L78.45 495.1L77.92 494.68L77.39 494.24L76.87 493.8L76.36 493.35L75.87 492.89L75.38 492.41L74.9 491.93L74.41 491.45L73.94 490.95L73.48 490.45L73.03 489.93L72.59 489.41L72.15 488.88L71.73 488.34L71.32 487.8L70.92 487.24L70.53 486.68L70.15 486.11L69.78 485.53L69.43 484.94L69.08 484.35L68.75 483.75L68.42 483.14L68.11 482.53L67.81 481.91L67.53 481.28L67.25 480.64L66.99 480L66.74 479.36L66.5 478.7L66.27 478.04L66.06 477.38L65.86 476.71L65.67 476.03L65.5 475.35L65.34 474.67L65.19 473.98L65.06 473.28L64.93 472.58L64.83 471.88L64.73 471.17L64.66 470.45L64.59 469.73L64.54 469.01L64.5 468.29L64.48 467.56L64.47 466.83L64.48 465.97L64.51 465.12L64.56 464.28L64.63 463.43L64.72 462.59L64.83 461.75L64.96 460.92L65.11 460.09L65.27 459.27L65.46 458.45L65.66 457.64L65.89 456.83L66.13 456.03L66.39 455.24L66.66 454.45L66.96 453.67L67.27 452.9L67.61 452.13L67.96 451.38L68.32 450.63L68.71 449.89L69.11 449.16L69.53 448.44L69.97 447.74L70.42 447.04L70.89 446.35L71.37 445.67L71.88 445.01L72.4 444.35L72.93 443.71L73.48 443.08L74.05 442.47L74.64 441.86L75.23 441.28L75.85 440.7L76.48 440.14L77.12 439.59L77.79 439.06L78.46 438.54L79.15 438.04L81.66 436.26L84.13 434.41L86.55 432.52L88.92 430.56L91.25 428.55L93.52 426.49L95.75 424.37L97.93 422.2L100.05 419.98L102.13 417.71L104.15 415.39L106.11 413.03L108.02 410.62L109.87 408.16L111.67 405.65L113.41 403.11L115.09 400.51L116.71 397.88L118.26 395.21L119.76 392.49L121.19 389.74L122.55 386.95L123.86 384.12L125.09 381.26L126.26 378.36L127.36 375.42L128.39 372.46L129.35 369.46L130.24 366.43L131.06 363.37L131.8 360.28L132.47 357.16L133.06 354.01L133.58 350.84L134.02 347.64L134.39 344.42L134.67 341.17L134.88 337.91L135 334.62L135.04 331.31L135.04 297.63L135.06 295.17L135.11 292.71L135.19 290.27L135.3 287.83L135.44 285.4L135.62 282.98L135.83 280.57L136.06 278.16L136.33 275.77L136.63 273.38L136.96 271.01L137.32 268.65L137.71 266.29L138.13 263.95L138.58 261.61L139.06 259.29L139.56 256.97L140.1 254.67L140.67 252.38L141.26 250.1L141.88 247.83L142.53 245.58L143.21 243.33L143.91 241.1L144.65 238.88L145.41 236.67L146.19 234.47L147.01 232.29L147.84 230.12L148.71 227.97L149.6 225.82L150.52 223.69L151.47 221.58L152.44 219.48L153.43 217.39L154.45 215.32L155.49 213.26L156.56 211.21L157.66 209.18L158.77 207.17L158.8 207.12L158.83 207.07L158.86 207.02L158.88 206.97L158.91 206.92L158.94 206.87L158.97 206.82L158.99 206.77L159.02 206.72L159.05 206.67L159.07 206.62L159.1 206.57L159.12 206.52L159.15 206.47L159.18 206.42L159.2 206.37L159.23 206.32L159.26 206.26L159.28 206.21L159.31 206.16L159.34 206.11L159.36 206.06L159.39 206.01L159.42 205.96L159.44 205.91L159.47 205.86L159.5 205.81L159.52 205.76L159.55 205.71L159.58 205.66L159.6 205.61L159.63 205.56L159.66 205.51L159.69 205.46L159.71 205.41L159.74 205.36L159.77 205.31L159.8 205.26L159.82 205.21L159.85 205.16L159.96 204.97L160.07 204.79L160.18 204.6L160.29 204.42L160.4 204.23L160.51 204.04L160.62 203.86L160.73 203.67L160.85 203.49L160.96 203.3L161.07 203.12L161.18 202.94L161.3 202.75L161.41 202.57L161.52 202.39L161.64 202.2L161.75 202.02L161.87 201.84L161.98 201.65L162.1 201.47L162.21 201.29L162.33 201.11L162.44 200.93L162.56 200.74L162.68 200.56L162.79 200.38L162.91 200.2L163.02 200.02L163.14 199.84L163.26 199.65L163.37 199.47L163.49 199.29L163.61 199.11L163.73 198.93L163.84 198.75L163.96 198.57L164.08 198.39L164.19 198.2L164.31 198.02L164.43 197.84L164.5 197.73L164.57 197.62L164.64 197.51L164.71 197.4L164.78 197.29L164.85 197.18L164.92 197.07L164.99 196.95L165.06 196.84L165.13 196.73L165.2 196.62L165.27 196.51L165.34 196.4L165.47 196.17L165.54 196.06L165.61 195.95L165.68 195.84L165.75 195.73L165.82 195.62L165.89 195.51L165.96 195.39L166.03 195.28L166.1 195.17L166.17 195.06L166.24 194.95L166.31 194.84L166.38 194.73L166.45 194.62L166.52 194.51L166.59 194.4L166.67 194.29L166.74 194.18L166.81 194.07L166.88 193.96L166.95 193.85L167.03 193.74L167.1 193.63L167.17 193.52L167.25 193.41L167.34 193.27L167.44 193.13L167.53 193L167.63 192.86L167.73 192.72L167.83 192.58L167.92 192.44L168.02 192.31L168.12 192.17L168.22 192.03L168.32 191.9L168.42 191.76L168.52 191.62L168.62 191.49L168.72 191.35L168.82 191.21L168.92 191.08L169.02 190.94L169.12 190.81L169.22 190.67L169.32 190.54L169.42 190.4L169.52 190.27L169.62 190.13L169.72 189.99L169.82 189.86L169.93 189.72L170.03 189.59L170.13 189.45L170.23 189.32L170.33 189.18L170.43 189.05L170.53 188.91L170.63 188.78L170.74 188.64L170.84 188.51L170.94 188.37L171.04 188.24L171.14 188.1L171.24 187.97L171.34 187.83L171.44 187.69L171.54 187.55L171.65 187.41L171.75 187.27L171.85 187.13L171.95 186.99L172.05 186.85L172.16 186.71L172.26 186.57L172.36 186.43L172.46 186.29L172.56 186.15L172.66 186.01L172.77 185.87L172.87 185.73L172.97 185.59L173.07 185.46L173.17 185.32L173.28 185.18L173.38 185.04L173.48 184.9L173.58 184.76L173.69 184.62L173.79 184.48L173.89 184.34L174 184.21L174.1 184.07L174.21 183.93L174.31 183.79L174.41 183.65L174.52 183.52L174.62 183.38L174.73 183.24L174.83 183.1L174.94 182.97L175.05 182.83L175.15 182.7L175.26 182.56L175.37 182.42L175.47 182.3L175.57 182.17L175.67 182.05L175.78 181.92L175.88 181.79L175.98 181.67L176.09 181.54L176.19 181.42L176.29 181.3L176.4 181.17L176.5 181.05L176.61 180.92L176.71 180.8L176.82 180.68L176.92 180.55L177.03 180.43L177.13 180.31L177.24 180.19L177.35 180.06L177.45 179.94L177.56 179.82L177.66 179.7L177.77 179.57L177.88 179.45L177.98 179.33L178.09 179.21L178.2 179.09L178.3 178.96L178.41 178.84L178.52 178.72L178.62 178.6L178.73 178.48L178.83 178.35L178.94 178.23L179.05 178.11L179.15 177.99L179.26 177.86L179.36 177.74L179.47 177.62L179.58 177.49L179.69 177.36L179.8 177.23L179.92 177.1L180.03 176.96L180.14 176.83L180.26 176.7L180.37 176.56L180.48 176.43L180.59 176.3L180.71 176.16L180.82 176.03L180.93 175.9L181.05 175.76L181.16 175.63L181.27 175.5L181.39 175.36L181.5 175.23L181.61 175.1L181.72 174.96L181.84 174.83L181.95 174.7L182.07 174.57L182.18 174.43L182.29 174.3L182.41 174.17L182.52 174.04L182.64 173.9L182.75 173.77L182.87 173.64L182.98 173.51L183.1 173.38L183.21 173.25L183.33 173.12L183.45 172.99L183.56 172.86L183.68 172.73L183.8 172.6L183.92 172.47L184.04 172.34L184.15 172.21L184.3 172.05L184.45 171.89L184.6 171.73L184.75 171.58L184.9 171.42L185.04 171.26L185.19 171.1L185.34 170.95L185.49 170.79L185.65 170.64L185.8 170.48L185.95 170.32L186.1 170.17L186.25 170.02L186.4 169.86L186.56 169.71L186.71 169.55L186.86 169.4L187.02 169.24L187.17 169.09L187.32 168.94L187.48 168.79L187.63 168.63L187.78 168.48L187.94 168.33L188.09 168.17L188.25 168.02L188.4 167.87L188.56 167.72L188.71 167.56L188.86 167.41L189.02 167.26L189.17 167.11L189.33 166.96L189.48 166.8L189.64 166.65L189.79 166.5L189.95 166.35L190.1 166.2L190.26 166.04L190.34 165.96L190.42 165.88L190.5 165.8L190.58 165.72L190.66 165.64L190.74 165.56L190.82 165.48L190.91 165.39L190.99 165.31L191.07 165.23L191.15 165.15L191.23 165.07L191.31 164.99L191.39 164.9L191.47 164.82L191.63 164.66L191.71 164.58L191.79 164.49L191.87 164.41L191.95 164.33L192.03 164.25L192.11 164.17L192.19 164.08L192.27 164L192.35 163.92L192.43 163.84L192.52 163.76L192.6 163.68L192.68 163.6L192.76 163.52L192.84 163.44L192.92 163.35L193.01 163.27L193.09 163.19L193.17 163.12L193.25 163.04L193.34 162.96L193.42 162.88L193.5 162.8L194.76 161.63L196.03 160.47L197.31 159.33L198.6 158.19L199.9 157.07L201.21 155.96L202.53 154.86L203.86 153.77L205.2 152.7L206.56 151.63L207.92 150.58L209.29 149.55L210.67 148.52L212.06 147.51L213.46 146.51L214.87 145.52L216.29 144.54L217.72 143.58L219.16 142.63L220.61 141.7L222.07 140.77L223.53 139.86L225.01 138.97L226.49 138.09L227.99 137.22L229.49 136.36L231 135.52L232.52 134.69L234.05 133.88L235.58 133.08L237.13 132.29L238.68 131.52L240.24 130.76L241.81 130.02L243.39 129.29L244.98 128.57L246.57 127.87L248.17 127.19L249.78 126.52L251.4 125.86L252.26 125.52L253.12 125.18L253.99 124.85L254.85 124.52L255.72 124.2L256.6 123.88L257.47 123.56L258.34 123.25L259.22 122.94L260.1 122.63L260.98 122.33L261.86 122.04L262.75 121.75L263.64 121.46L264.53 121.18L265.42 120.9L266.31 120.62L267.2 120.35L268.1 120.09L269 119.83L269.9 119.57L270.8 119.32L271.7 119.07L272.61 118.83L273.52 118.59L274.43 118.36L275.34 118.13L276.25 117.9L277.16 117.69L278.08 117.47L279 117.26L279.92 117.06L280.84 116.86L281.76 116.66L282.68 116.47L283.61 116.29L284.53 116.11L285.46 115.93L286.39 115.76L287.32 115.6L288.03 115.46L288.75 115.34L289.46 115.21L290.17 115.09L290.88 114.97L291.6 114.86L292.31 114.74L293.03 114.63L293.75 114.53L294.47 114.42L295.18 114.32L295.9 114.22L296.62 114.13L297.35 114.04L298.07 113.95L298.79 113.86L299.52 113.78L300.24 113.7L300.97 113.62L301.7 113.55L302.42 113.48L303.15 113.41L303.88 113.35L304.61 113.29L305.35 113.23L306.08 113.17L306.81 113.12L307.55 113.07L308.28 113.02L309.02 112.98L309.75 112.94L310.49 112.9L311.23 112.87L311.97 112.84L312.71 112.81L313.45 112.78L314.2 112.76L314.94 112.74L315.68 112.72L316.43 112.71L319.88 112.71L320.71 112.71L321.55 112.72ZM284.94 200.48L283.89 200.54L282.85 200.61L281.8 200.71L280.75 200.83L279.69 200.97L278.63 201.13L277.57 201.31L276.51 201.51L275.45 201.74L274.38 201.99L273.32 202.25L272.25 202.54L271.19 202.85L270.12 203.18L269.06 203.54L267.99 203.91L266.93 204.3L265.87 204.72L264.81 205.15L263.76 205.61L262.71 206.09L261.66 206.59L260.62 207.11L259.58 207.65L258.54 208.21L257.51 208.79L256.49 209.39L255.47 210.01L254.46 210.66L253.46 211.32L252.46 212L251.47 212.71L250.48 213.43L249.51 214.18L248.54 214.94L247.59 215.73L246.64 216.53L245.7 217.36L244.03 218.93L242.42 220.54L240.88 222.19L239.4 223.86L237.99 225.57L236.65 227.31L235.38 229.08L234.17 230.87L233.03 232.68L231.97 234.51L230.97 236.36L230.04 238.23L229.18 240.11L228.4 242L227.68 243.89L227.04 245.8L226.47 247.71L225.97 249.62L225.54 251.53L225.19 253.43L224.9 255.34L224.7 257.23L224.57 259.12L224.51 260.99L224.53 262.85L224.62 264.69L224.79 266.52L225.03 268.32L225.36 270.1L225.76 271.86L226.23 273.59L226.79 275.29L227.42 276.95L228.13 278.58L228.92 280.18L229.79 281.73L230.74 283.25L231.77 284.72L232.88 286.15L234.08 287.52L234.64 288.13L235.22 288.72L235.81 289.29L236.41 289.85L237.02 290.4L237.64 290.92L238.27 291.44L238.91 291.93L239.56 292.41L240.22 292.88L240.89 293.33L241.57 293.76L242.26 294.18L242.96 294.59L243.67 294.98L244.38 295.35L245.11 295.71L245.84 296.05L246.58 296.37L247.33 296.69L248.08 296.98L248.85 297.26L249.62 297.53L250.39 297.78L251.18 298.01L251.97 298.23L252.76 298.44L253.56 298.63L254.37 298.8L255.19 298.96L256.01 299.1L256.83 299.23L257.66 299.34L258.49 299.44L259.33 299.52L260.18 299.59L261.02 299.64L261.87 299.68L262.73 299.71L263.59 299.71L264.63 299.7L265.68 299.67L266.73 299.62L267.78 299.54L268.84 299.45L269.89 299.33L270.95 299.19L272.02 299.03L273.08 298.85L274.15 298.65L275.21 298.42L276.28 298.18L277.34 297.91L278.41 297.62L279.47 297.31L280.54 296.98L281.6 296.63L282.66 296.26L283.72 295.87L284.78 295.45L285.83 295.02L286.88 294.56L287.93 294.08L288.97 293.58L290.01 293.06L291.05 292.52L292.08 291.95L293.11 291.37L294.13 290.76L295.14 290.14L296.15 289.49L297.15 288.82L298.14 288.13L299.13 287.42L300.11 286.69L301.08 285.94L302.05 285.16L303 284.37L303.95 283.55L304.89 282.71L306.56 281.15L308.17 279.54L309.71 277.9L311.19 276.23L312.6 274.52L313.94 272.79L315.21 271.03L316.42 269.24L317.56 267.43L318.63 265.6L319.62 263.76L320.55 261.89L321.41 260.02L322.2 258.13L322.92 256.24L323.56 254.33L324.14 252.43L324.64 250.52L325.07 248.61L325.42 246.71L325.71 244.81L325.92 242.91L326.05 241.03L326.12 239.16L326.1 237.3L326.01 235.45L325.85 233.63L325.61 231.83L325.29 230.05L324.9 228.29L324.43 226.56L323.88 224.86L323.26 223.2L322.56 221.57L321.77 219.97L320.91 218.42L319.97 216.9L318.95 215.43L317.85 214L316.67 212.63L316.11 212.02L315.53 211.43L314.94 210.86L314.34 210.3L313.73 209.75L313.11 209.23L312.48 208.71L311.84 208.22L311.19 207.74L310.53 207.27L309.85 206.82L309.17 206.39L308.48 205.97L307.78 205.56L307.07 205.18L306.36 204.8L305.63 204.45L304.89 204.1L304.15 203.78L303.4 203.46L302.64 203.17L301.88 202.89L301.1 202.62L300.32 202.37L299.53 202.14L298.74 201.92L297.94 201.71L297.13 201.52L296.32 201.35L295.5 201.19L294.67 201.05L293.84 200.92L293 200.81L292.16 200.71L291.31 200.63L290.46 200.56L289.6 200.51L288.74 200.47L287.87 200.45L287 200.44L285.97 200.45L284.94 200.48Z" id="f9A9nQ6FDu"></path><path d="M458.26 502.35C458.26 518.35 471.27 531.35 487.26 531.35C503.25 531.35 516.26 518.35 516.26 502.35C516.26 486.37 503.25 473.35 487.26 473.35C471.27 473.35 458.26 486.37 458.26 502.35Z" id="d7gbXprfvL"></path><path d="M444.45 381.99L444.95 382.03L445.44 382.09L445.94 382.17L446.43 382.27L446.91 382.38L447.4 382.51L447.87 382.66L448.35 382.83L448.81 383.01L449.27 383.21L449.73 383.43L450.17 383.66L450.61 383.91L451.04 384.18L451.46 384.46L451.88 384.76L452.28 385.07L452.67 385.41L453.05 385.75L453.42 386.12L453.78 386.5L454.12 386.89L454.45 387.3L454.77 387.73L467.03 404.77L467.25 405.07L467.47 405.35L467.71 405.64L467.95 405.91L468.19 406.19L468.44 406.45L468.7 406.71L468.96 406.95L469.23 407.2L469.51 407.43L469.78 407.66L470.07 407.88L470.36 408.1L470.65 408.3L470.95 408.5L471.26 408.69L471.57 408.87L471.88 409.05L472.2 409.21L472.52 409.37L472.84 409.52L473.17 409.66L473.5 409.8L473.84 409.92L474.18 410.04L474.52 410.15L474.86 410.25L475.21 410.33L475.56 410.42L475.91 410.49L476.26 410.55L476.62 410.6L476.98 410.64L477.34 410.68L477.7 410.7L478.06 410.72L478.43 410.72L478.79 410.71L479.16 410.7L479.52 410.67L479.72 410.66L479.91 410.64L480.1 410.62L480.29 410.61L480.48 410.59L480.67 410.58L480.87 410.57L481.06 410.55L481.25 410.54L481.44 410.53L481.63 410.52L481.83 410.5L482.02 410.49L482.21 410.48L482.4 410.47L482.6 410.46L482.79 410.45L482.98 410.44L483.18 410.43L483.37 410.42L483.56 410.42L483.76 410.41L483.95 410.4L484.15 410.39L484.34 410.39L484.53 410.38L484.73 410.38L484.92 410.37L485.12 410.37L485.31 410.36L485.5 410.36L485.7 410.35L485.89 410.35L486.09 410.35L486.28 410.34L486.48 410.34L486.67 410.34L486.87 410.34L487.07 410.34L487.26 410.34L487.46 410.34L487.65 410.34L487.85 410.34L488.04 410.34L488.24 410.34L488.43 410.35L488.63 410.35L488.82 410.35L489.02 410.36L489.21 410.36L489.4 410.37L489.6 410.37L489.79 410.38L489.99 410.38L490.18 410.39L490.37 410.39L490.57 410.4L490.76 410.41L490.96 410.42L491.15 410.42L491.34 410.43L491.53 410.44L491.73 410.45L491.92 410.46L492.11 410.47L492.31 410.48L492.5 410.49L492.69 410.5L492.88 410.52L493.08 410.53L493.27 410.54L493.46 410.55L493.65 410.57L493.85 410.58L494.04 410.59L494.23 410.61L494.42 410.62L494.61 410.64L494.8 410.66L495 410.67L495.36 410.7L495.73 410.71L496.09 410.72L496.46 410.72L496.82 410.7L497.18 410.68L497.54 410.64L497.9 410.6L498.25 410.55L498.61 410.49L498.96 410.42L499.31 410.33L499.66 410.25L500 410.15L500.34 410.04L500.68 409.92L501.02 409.8L501.35 409.66L501.68 409.52L502 409.37L502.32 409.21L502.64 409.05L502.95 408.87L503.26 408.69L503.56 408.5L503.86 408.3L504.16 408.1L504.45 407.88L504.73 407.66L505.01 407.43L505.29 407.2L505.56 406.95L505.82 406.71L506.08 406.45L506.33 406.19L506.57 405.91L506.81 405.64L507.04 405.35L507.27 405.07L507.49 404.77L519.75 387.73L520.06 387.3L520.4 386.89L520.74 386.5L521.1 386.12L521.47 385.75L521.85 385.41L522.24 385.08L522.64 384.76L523.05 384.46L523.48 384.18L523.91 383.91L524.34 383.66L524.79 383.43L525.24 383.21L525.7 383.01L526.17 382.83L526.64 382.66L527.12 382.51L527.6 382.38L528.09 382.27L528.58 382.17L529.07 382.09L529.57 382.03L530.07 381.99L530.57 381.96L531.07 381.96L531.57 381.97L532.08 382L532.58 382.04L533.08 382.11L533.58 382.2L534.08 382.3L534.58 382.42L535.07 382.56L535.56 382.72L536.05 382.9L536.53 383.1L537.01 383.32L537.48 383.56L537.94 383.82L564.57 399.19L565.03 399.47L565.47 399.76L565.9 400.06L566.31 400.38L566.71 400.71L567.09 401.05L567.46 401.41L567.82 401.78L568.16 402.16L568.48 402.55L568.79 402.95L569.08 403.36L569.36 403.78L569.62 404.21L569.87 404.65L570.09 405.1L570.31 405.55L570.5 406.01L570.68 406.48L570.84 406.95L570.99 407.43L571.11 407.91L571.23 408.4L571.32 408.89L571.39 409.39L571.45 409.89L571.49 410.39L571.51 410.89L571.51 411.4L571.5 411.9L571.46 412.41L571.41 412.91L571.34 413.42L571.25 413.93L571.13 414.43L571 414.93L570.85 415.43L570.69 415.93L570.5 416.42L570.29 416.91L561.57 436.25L561.42 436.59L561.28 436.93L561.15 437.27L561.04 437.62L560.93 437.97L560.83 438.32L560.74 438.67L560.66 439.02L560.59 439.37L560.53 439.73L560.48 440.08L560.44 440.44L560.4 440.79L560.38 441.15L560.37 441.51L560.36 441.87L560.37 442.22L560.38 442.58L560.4 442.94L560.44 443.29L560.48 443.65L560.53 444L560.59 444.35L560.65 444.7L560.73 445.05L560.82 445.4L560.91 445.75L561.02 446.09L561.13 446.43L561.25 446.77L561.38 447.11L561.52 447.45L561.67 447.78L561.82 448.11L561.99 448.43L562.16 448.75L562.34 449.07L562.53 449.39L562.73 449.7L562.94 450L563.15 450.31L563.36 450.62L563.57 450.93L563.78 451.24L563.99 451.55L564.19 451.87L564.4 452.18L564.6 452.5L564.81 452.81L565.01 453.13L565.21 453.45L565.41 453.76L565.61 454.08L565.8 454.4L566 454.72L566.19 455.05L566.38 455.37L566.58 455.69L566.77 456.02L566.95 456.34L567.14 456.67L567.33 456.99L567.51 457.32L567.7 457.65L567.88 457.98L568.06 458.31L568.24 458.64L568.42 458.97L568.6 459.3L568.77 459.64L568.95 459.97L569.12 460.31L569.29 460.64L569.46 460.98L569.63 461.32L569.8 461.65L569.97 461.99L570.13 462.33L570.29 462.67L570.46 463.02L570.62 463.35L570.79 463.67L570.97 463.99L571.15 464.31L571.34 464.62L571.54 464.92L571.75 465.22L571.96 465.52L572.18 465.8L572.41 466.08L572.64 466.36L572.88 466.62L573.13 466.89L573.38 467.14L573.64 467.39L573.9 467.63L574.17 467.86L574.45 468.09L574.73 468.31L575.02 468.52L575.31 468.73L575.6 468.93L575.91 469.12L576.21 469.3L576.52 469.47L576.84 469.64L577.16 469.8L577.48 469.95L577.81 470.09L578.15 470.22L578.48 470.34L578.82 470.46L579.17 470.57L579.52 470.67L579.87 470.75L580.22 470.83L580.58 470.9L580.94 470.96L581.3 471.02L581.67 471.06L602.77 473.18L603.3 473.24L603.82 473.32L604.34 473.42L604.85 473.54L605.34 473.68L605.84 473.84L606.32 474.01L606.79 474.2L607.26 474.41L607.71 474.63L608.16 474.87L608.6 475.13L609.02 475.4L609.44 475.68L609.84 475.98L610.23 476.29L610.61 476.62L610.98 476.96L611.33 477.31L611.67 477.67L612 478.05L612.32 478.44L612.62 478.84L612.91 479.25L613.18 479.67L613.43 480.1L613.68 480.54L613.9 480.99L614.11 481.45L614.31 481.92L614.48 482.39L614.64 482.88L614.78 483.37L614.91 483.87L615.01 484.37L615.1 484.88L615.17 485.4L615.22 485.92L615.25 486.45L615.26 486.98L615.26 517.73L615.25 518.26L615.22 518.79L615.17 519.31L615.1 519.83L615.01 520.34L614.91 520.84L614.78 521.34L614.64 521.83L614.48 522.32L614.31 522.79L614.11 523.26L613.9 523.72L613.68 524.17L613.43 524.61L613.18 525.04L612.91 525.46L612.62 525.87L612.32 526.27L612 526.66L611.67 527.04L611.33 527.4L610.98 527.75L610.61 528.09L610.23 528.42L609.84 528.73L609.44 529.03L609.02 529.32L608.6 529.59L608.16 529.84L607.72 530.08L607.26 530.3L606.79 530.51L606.32 530.7L605.84 530.87L605.35 531.03L604.85 531.17L604.34 531.29L603.82 531.39L603.3 531.47L602.77 531.53L581.67 533.65L581.31 533.69L580.94 533.74L580.58 533.81L580.22 533.88L579.87 533.96L579.52 534.04L579.17 534.14L578.82 534.25L578.48 534.36L578.15 534.49L577.81 534.62L577.49 534.76L577.16 534.91L576.84 535.07L576.52 535.24L576.21 535.41L575.91 535.59L575.6 535.78L575.31 535.98L575.02 536.19L574.73 536.4L574.45 536.62L574.17 536.85L573.9 537.08L573.64 537.32L573.38 537.57L573.13 537.82L572.88 538.08L572.64 538.35L572.41 538.63L572.18 538.91L571.96 539.19L571.75 539.49L571.54 539.79L571.34 540.09L571.15 540.4L570.97 540.72L570.79 541.04L570.62 541.36L570.46 541.69L570.29 542.04L570.13 542.38L569.97 542.72L569.8 543.05L569.63 543.39L569.46 543.73L569.29 544.07L569.12 544.4L568.95 544.74L568.77 545.07L568.6 545.41L568.42 545.74L568.24 546.07L568.06 546.4L567.88 546.73L567.7 547.06L567.51 547.39L567.33 547.72L567.14 548.04L566.96 548.37L566.77 548.69L566.58 549.02L566.39 549.34L566.19 549.67L566 549.99L565.8 550.31L565.61 550.63L565.41 550.95L565.21 551.27L565.01 551.58L564.81 551.9L564.61 552.22L564.4 552.53L564.2 552.84L563.99 553.16L563.78 553.47L563.57 553.78L563.36 554.09L563.15 554.4L562.94 554.71L562.73 555.02L562.53 555.33L562.34 555.64L562.16 555.96L561.99 556.28L561.82 556.61L561.67 556.94L561.52 557.27L561.38 557.6L561.25 557.94L561.13 558.28L561.02 558.62L560.92 558.96L560.82 559.31L560.73 559.66L560.66 560.01L560.59 560.36L560.53 560.71L560.48 561.07L560.44 561.42L560.41 561.78L560.38 562.13L560.37 562.49L560.36 562.85L560.37 563.2L560.38 563.56L560.41 563.92L560.44 564.27L560.48 564.63L560.53 564.99L560.59 565.34L560.66 565.69L560.74 566.05L560.83 566.4L560.93 566.75L561.04 567.09L561.16 567.44L561.28 567.78L561.42 568.13L561.57 568.46L570.29 587.8L570.5 588.29L570.69 588.79L570.86 589.28L571.01 589.78L571.14 590.28L571.25 590.79L571.34 591.29L571.41 591.8L571.46 592.3L571.5 592.81L571.51 593.32L571.51 593.82L571.49 594.32L571.45 594.82L571.39 595.32L571.32 595.82L571.23 596.31L571.12 596.8L570.99 597.28L570.84 597.76L570.68 598.23L570.5 598.7L570.31 599.16L570.1 599.61L569.87 600.06L569.62 600.5L569.36 600.93L569.08 601.35L568.79 601.76L568.48 602.16L568.16 602.55L567.82 602.93L567.47 603.3L567.1 603.66L566.71 604L566.31 604.33L565.9 604.65L565.47 604.95L565.03 605.24L564.58 605.52L537.95 620.89L537.48 621.15L537.01 621.39L536.53 621.61L536.05 621.81L535.56 621.99L535.07 622.15L534.58 622.29L534.08 622.41L533.58 622.51L533.08 622.6L532.58 622.67L532.08 622.71L531.58 622.74L531.07 622.75L530.57 622.75L530.07 622.72L529.57 622.68L529.08 622.62L528.58 622.54L528.09 622.44L527.6 622.33L527.12 622.2L526.64 622.05L526.17 621.88L525.71 621.7L525.24 621.5L524.79 621.28L524.35 621.05L523.91 620.8L523.48 620.53L523.06 620.25L522.64 619.95L522.24 619.63L521.85 619.3L521.47 618.96L521.1 618.59L520.74 618.21L520.4 617.82L520.07 617.41L519.75 616.98L507.49 599.95L507.27 599.65L507.04 599.36L506.81 599.08L506.57 598.8L506.33 598.53L506.08 598.27L505.82 598.01L505.56 597.76L505.29 597.52L505.01 597.28L504.73 597.05L504.45 596.83L504.16 596.62L503.87 596.41L503.57 596.21L503.26 596.02L502.95 595.84L502.64 595.67L502.32 595.5L502 595.34L501.68 595.19L501.35 595.05L501.02 594.91L500.68 594.79L500.34 594.67L500 594.57L499.66 594.47L499.31 594.38L498.96 594.3L498.61 594.23L498.26 594.16L497.9 594.11L497.54 594.07L497.18 594.04L496.82 594.01L496.46 594L496.09 593.99L495.73 594L495.36 594.02L495 594.04L494.8 594.06L494.61 594.07L494.42 594.09L494.23 594.1L494.04 594.12L493.85 594.13L493.65 594.15L493.46 594.16L493.27 594.17L493.08 594.19L492.89 594.2L492.69 594.21L492.5 594.22L492.31 594.23L492.11 594.24L491.92 594.25L491.73 594.26L491.54 594.27L491.34 594.28L491.15 594.29L490.96 594.3L490.76 594.31L490.57 594.31L490.38 594.32L490.18 594.33L489.99 594.33L489.79 594.34L489.6 594.34L489.41 594.35L489.21 594.35L489.02 594.36L488.82 594.36L488.63 594.36L488.43 594.37L488.24 594.37L488.04 594.37L487.85 594.37L487.65 594.37L487.46 594.37L487.26 594.38L487.07 594.37L486.87 594.37L486.68 594.37L486.48 594.37L486.29 594.37L486.09 594.37L485.9 594.36L485.7 594.36L485.51 594.36L485.31 594.35L485.12 594.35L484.92 594.34L484.73 594.34L484.53 594.33L484.34 594.33L484.15 594.32L483.95 594.31L483.76 594.31L483.57 594.3L483.37 594.29L483.18 594.28L482.98 594.27L482.79 594.26L482.6 594.25L482.41 594.24L482.21 594.23L482.02 594.22L481.83 594.21L481.64 594.2L481.44 594.19L481.25 594.17L481.06 594.16L480.87 594.15L480.67 594.13L480.48 594.12L480.29 594.1L480.1 594.09L479.91 594.07L479.72 594.06L479.53 594.04L479.16 594.02L478.79 594L478.43 593.99L478.06 594L477.7 594.01L477.34 594.04L476.98 594.07L476.62 594.11L476.27 594.16L475.91 594.23L475.56 594.3L475.21 594.38L474.86 594.47L474.52 594.57L474.18 594.67L473.84 594.79L473.5 594.91L473.17 595.05L472.84 595.19L472.52 595.34L472.2 595.5L471.88 595.67L471.57 595.84L471.26 596.02L470.96 596.21L470.66 596.41L470.36 596.62L470.07 596.83L469.79 597.05L469.51 597.28L469.23 597.52L468.96 597.76L468.7 598.01L468.44 598.27L468.19 598.53L467.95 598.8L467.71 599.08L467.48 599.36L467.25 599.65L467.03 599.95L454.77 616.98L454.45 617.41L454.12 617.82L453.78 618.21L453.42 618.59L453.05 618.96L452.67 619.3L452.28 619.63L451.88 619.95L451.46 620.25L451.04 620.53L450.61 620.8L450.17 621.05L449.73 621.28L449.27 621.5L448.81 621.7L448.35 621.88L447.88 622.05L447.4 622.2L446.92 622.33L446.43 622.44L445.94 622.54L445.44 622.62L444.95 622.68L444.45 622.72L443.95 622.75L443.45 622.75L442.94 622.74L442.44 622.71L441.94 622.67L441.44 622.6L440.94 622.51L440.44 622.41L439.94 622.29L439.45 622.15L438.96 621.99L438.47 621.81L437.99 621.61L437.51 621.39L437.04 621.15L436.57 620.89L409.95 605.52L409.49 605.24L409.05 604.95L408.62 604.65L408.21 604.33L407.81 604L407.42 603.66L407.06 603.3L406.7 602.93L406.36 602.55L406.04 602.16L405.73 601.76L405.44 601.35L405.16 600.93L404.9 600.5L404.65 600.06L404.43 599.61L404.21 599.16L404.02 598.7L403.84 598.23L403.68 597.76L403.53 597.28L403.41 596.8L403.3 596.31L403.2 595.82L403.13 595.32L403.07 594.82L403.03 594.32L403.01 593.82L403.01 593.32L403.02 592.81L403.06 592.3L403.11 591.8L403.18 591.29L403.28 590.79L403.39 590.28L403.52 589.78L403.67 589.28L403.84 588.79L404.02 588.29L404.23 587.8L412.95 568.46L413.1 568.13L413.24 567.78L413.37 567.44L413.48 567.09L413.59 566.75L413.69 566.4L413.78 566.05L413.86 565.69L413.93 565.34L413.99 564.99L414.04 564.63L414.08 564.27L414.12 563.92L414.14 563.56L414.15 563.2L414.16 562.85L414.15 562.49L414.14 562.13L414.12 561.78L414.08 561.42L414.04 561.07L413.99 560.71L413.93 560.36L413.86 560.01L413.79 559.66L413.7 559.31L413.61 558.96L413.5 558.62L413.39 558.28L413.27 557.94L413.14 557.6L413 557.27L412.85 556.94L412.7 556.61L412.53 556.28L412.36 555.96L412.18 555.64L411.99 555.33L411.79 555.02L411.58 554.71L411.37 554.4L411.16 554.09L410.95 553.78L410.74 553.47L410.53 553.16L410.33 552.84L410.12 552.53L409.92 552.22L409.71 551.9L409.51 551.58L409.31 551.27L409.11 550.95L408.91 550.63L408.72 550.31L408.52 549.99L408.33 549.67L408.14 549.34L407.94 549.02L407.75 548.69L407.57 548.37L407.38 548.04L407.19 547.72L407.01 547.39L406.82 547.06L406.64 546.73L406.46 546.4L406.28 546.07L406.1 545.74L405.92 545.41L405.75 545.07L405.57 544.74L405.4 544.4L405.23 544.07L405.06 543.73L404.89 543.39L404.72 543.05L404.56 542.72L404.39 542.38L404.23 542.04L404.06 541.69L403.9 541.36L403.73 541.04L403.55 540.72L403.37 540.4L403.18 540.09L402.98 539.79L402.77 539.49L402.56 539.19L402.34 538.91L402.11 538.63L401.88 538.35L401.64 538.08L401.39 537.82L401.14 537.57L400.88 537.32L400.62 537.08L400.35 536.85L400.07 536.62L399.79 536.4L399.5 536.19L399.21 535.98L398.92 535.78L398.61 535.59L398.31 535.41L398 535.24L397.68 535.07L397.36 534.91L397.04 534.76L396.71 534.62L396.37 534.49L396.04 534.36L395.7 534.25L395.35 534.14L395 534.04L394.65 533.96L394.3 533.88L393.94 533.81L393.58 533.74L393.22 533.69L392.85 533.65L371.75 531.53L371.22 531.47L370.7 531.39L370.18 531.29L369.68 531.17L369.18 531.03L368.68 530.87L368.2 530.7L367.73 530.51L367.26 530.3L366.81 530.08L366.36 529.84L365.92 529.59L365.5 529.32L365.08 529.03L364.68 528.73L364.29 528.42L363.91 528.09L363.54 527.75L363.19 527.4L362.84 527.04L362.52 526.66L362.2 526.27L361.9 525.87L361.61 525.46L361.34 525.04L361.08 524.61L360.84 524.17L360.62 523.72L360.41 523.26L360.21 522.79L360.04 522.32L359.88 521.83L359.74 521.34L359.61 520.84L359.51 520.34L359.42 519.83L359.35 519.31L359.3 518.79L359.27 518.26L359.26 517.73L359.26 486.98L359.27 486.45L359.3 485.92L359.35 485.4L359.42 484.88L359.51 484.37L359.61 483.87L359.74 483.37L359.88 482.88L360.04 482.39L360.21 481.92L360.41 481.45L360.62 480.99L360.84 480.54L361.08 480.1L361.34 479.67L361.61 479.25L361.9 478.84L362.2 478.44L362.52 478.05L362.84 477.67L363.19 477.31L363.54 476.96L363.91 476.62L364.29 476.29L364.68 475.98L365.08 475.68L365.5 475.4L365.92 475.13L366.36 474.87L366.81 474.63L367.26 474.41L367.73 474.2L368.2 474.01L368.68 473.84L369.18 473.68L369.68 473.54L370.18 473.42L370.7 473.32L371.22 473.24L371.75 473.17L392.85 471.06L393.22 471.02L393.58 470.96L393.94 470.9L394.3 470.83L394.65 470.75L395 470.66L395.35 470.57L395.7 470.46L396.04 470.34L396.37 470.22L396.71 470.09L397.04 469.95L397.36 469.8L397.68 469.64L398 469.47L398.31 469.3L398.61 469.12L398.92 468.93L399.21 468.73L399.5 468.52L399.79 468.31L400.07 468.09L400.35 467.86L400.62 467.63L400.88 467.39L401.14 467.14L401.39 466.89L401.64 466.62L401.88 466.36L402.11 466.08L402.34 465.8L402.56 465.52L402.77 465.22L402.98 464.92L403.18 464.62L403.37 464.31L403.55 463.99L403.73 463.67L403.9 463.35L404.06 463.01L404.23 462.67L404.39 462.33L404.56 461.99L404.72 461.65L404.89 461.32L405.06 460.98L405.23 460.64L405.4 460.31L405.57 459.97L405.75 459.64L405.92 459.3L406.1 458.97L406.28 458.64L406.46 458.31L406.64 457.98L406.82 457.65L407.01 457.32L407.19 456.99L407.38 456.67L407.57 456.34L407.75 456.02L407.94 455.69L408.14 455.37L408.33 455.05L408.52 454.72L408.72 454.4L408.91 454.08L409.11 453.76L409.31 453.45L409.51 453.13L409.71 452.81L409.92 452.5L410.12 452.18L410.33 451.87L410.53 451.55L410.74 451.24L410.95 450.93L411.16 450.62L411.37 450.31L411.58 450L411.79 449.7L411.99 449.39L412.18 449.07L412.36 448.75L412.53 448.43L412.7 448.1L412.85 447.78L413 447.44L413.14 447.11L413.27 446.77L413.39 446.43L413.5 446.09L413.61 445.75L413.7 445.4L413.79 445.05L413.86 444.7L413.93 444.35L413.99 444L414.04 443.64L414.08 443.29L414.12 442.93L414.14 442.58L414.15 442.22L414.16 441.86L414.15 441.51L414.14 441.15L414.12 440.79L414.08 440.44L414.04 440.08L413.99 439.73L413.93 439.37L413.86 439.02L413.78 438.67L413.69 438.31L413.59 437.97L413.48 437.62L413.37 437.27L413.24 436.93L413.1 436.59L412.95 436.25L404.23 416.91L404.02 416.42L403.84 415.93L403.67 415.43L403.52 414.93L403.39 414.43L403.28 413.93L403.18 413.42L403.11 412.91L403.06 412.41L403.02 411.9L403.01 411.4L403.01 410.89L403.03 410.39L403.07 409.89L403.13 409.39L403.2 408.89L403.3 408.4L403.41 407.91L403.53 407.43L403.68 406.95L403.84 406.48L404.02 406.01L404.21 405.55L404.43 405.1L404.65 404.65L404.9 404.21L405.16 403.78L405.44 403.36L405.73 402.95L406.04 402.55L406.36 402.16L406.7 401.78L407.05 401.41L407.42 401.05L407.81 400.71L408.21 400.38L408.62 400.06L409.05 399.76L409.49 399.47L409.94 399.19L436.57 383.82L437.04 383.56L437.51 383.32L437.99 383.1L438.47 382.9L438.96 382.72L439.45 382.56L439.94 382.42L440.44 382.3L440.94 382.2L441.44 382.11L441.94 382.04L442.44 382L442.94 381.97L443.45 381.96L443.95 381.96L444.45 381.99ZM483.58 457.5L481.76 457.69L479.97 457.94L478.2 458.27L476.46 458.66L474.74 459.13L473.05 459.65L471.39 460.24L469.76 460.9L468.16 461.61L466.6 462.39L465.07 463.22L463.58 464.11L462.12 465.05L460.7 466.05L459.33 467.1L457.99 468.2L456.7 469.35L455.46 470.55L454.26 471.8L453.11 473.09L452.01 474.42L450.96 475.8L449.96 477.21L449.01 478.67L448.12 480.16L447.29 481.69L446.52 483.26L445.8 484.86L445.15 486.49L444.56 488.15L444.03 489.84L443.57 491.55L443.18 493.3L442.85 495.07L442.6 496.86L442.41 498.67L442.3 500.5L442.26 502.35L442.3 504.21L442.41 506.04L442.6 507.85L442.85 509.64L443.18 511.41L443.57 513.16L444.03 514.87L444.56 516.56L445.15 518.22L445.8 519.85L446.52 521.45L447.29 523.02L448.12 524.55L449.01 526.04L449.96 527.5L450.96 528.91L452.01 530.29L453.11 531.62L454.26 532.91L455.46 534.16L456.7 535.36L457.99 536.51L459.33 537.61L460.7 538.66L462.12 539.66L463.58 540.6L465.07 541.49L466.6 542.32L468.16 543.1L469.76 543.81L471.39 544.47L473.05 545.06L474.74 545.58L476.46 546.04L478.2 546.44L479.97 546.76L481.76 547.02L483.58 547.21L485.41 547.32L487.26 547.35L489.11 547.32L490.95 547.21L492.76 547.02L494.55 546.76L496.32 546.44L498.06 546.04L499.78 545.58L501.47 545.06L503.13 544.47L504.76 543.81L506.36 543.1L507.92 542.32L509.45 541.49L510.95 540.6L512.4 539.66L513.82 538.66L515.2 537.61L516.53 536.51L517.82 535.36L519.07 534.16L520.26 532.91L521.42 531.62L522.52 530.29L523.57 528.91L524.57 527.5L525.51 526.04L526.4 524.55L527.23 523.02L528 521.45L528.72 519.85L529.37 518.22L529.96 516.56L530.49 514.87L530.95 513.16L531.35 511.41L531.67 509.64L531.93 507.85L532.11 506.04L532.22 504.21L532.26 502.35L532.22 500.5L532.11 498.67L531.93 496.86L531.67 495.07L531.35 493.3L530.95 491.55L530.49 489.84L529.96 488.15L529.37 486.49L528.72 484.86L528 483.26L527.23 481.69L526.4 480.16L525.51 478.67L524.57 477.21L523.57 475.8L522.52 474.42L521.42 473.09L520.26 471.8L519.07 470.55L517.82 469.35L516.53 468.2L515.2 467.1L513.82 466.05L512.4 465.05L510.95 464.11L509.45 463.22L507.92 462.39L506.36 461.61L504.76 460.9L503.13 460.24L501.47 459.65L499.78 459.13L498.06 458.66L496.32 458.27L494.55 457.94L492.76 457.69L490.95 457.5L489.11 457.39L487.26 457.35L485.41 457.39L483.58 457.5Z" id="bVE4pYay8"></path></defs><g><g><g><use xlink:href="#as3lryrM1" opacity="1" fill="#4b4b4b" fill-opacity="1"></use><g><use xlink:href="#as3lryrM1" opacity="1" fill-opacity="0" stroke="#000000" stroke-width="1" stroke-opacity="0"></use></g></g><g><use xlink:href="#a17z0JEnQ9" opacity="1" fill="#4b4b4b" fill-opacity="1"></use><g><use xlink:href="#a17z0JEnQ9" opacity="1" fill-opacity="0" stroke="#000000" stroke-width="1" stroke-opacity="0"></use></g></g><g><use xlink:href="#f9A9nQ6FDu" opacity="1" fill="#4b4b4b" fill-opacity="1"></use><g><use xlink:href="#f9A9nQ6FDu" opacity="1" fill-opacity="0" stroke="#000000" stroke-width="1" stroke-opacity="0"></use></g></g><g><g><filter id="shadow2872667" x="442.26" y="457.35" width="98" height="96" filterUnits="userSpaceOnUse" primitiveUnits="userSpaceOnUse"><feFlood></feFlood><feComposite in2="SourceAlpha" operator="in"></feComposite><feGaussianBlur stdDeviation="1"></feGaussianBlur><feOffset dx="-8" dy="-6" result="afterOffset"></feOffset><feFlood flood-color="#ffffff" flood-opacity="0.5"></feFlood><feComposite in2="afterOffset" operator="in"></feComposite><feMorphology operator="dilate" radius="1"></feMorphology><feComposite in2="SourceAlpha" operator="out"></feComposite></filter><path d="M458.26 502.35C458.26 518.35 471.27 531.35 487.26 531.35C503.25 531.35 516.26 518.35 516.26 502.35C516.26 486.37 503.25 473.35 487.26 473.35C471.27 473.35 458.26 486.37 458.26 502.35Z" id="d4ecRlmnCQ" fill="white" fill-opacity="1" filter="url(#shadow2872667)"></path></g><use xlink:href="#d7gbXprfvL" opacity="1" fill="#4b4b4b" fill-opacity="1"></use><g><use xlink:href="#d7gbXprfvL" opacity="1" fill-opacity="0" stroke="#000000" stroke-width="1" stroke-opacity="0"></use></g></g><g><g><filter id="shadow6573136" x="343.26" y="365.96" width="296" height="278.8" filterUnits="userSpaceOnUse" primitiveUnits="userSpaceOnUse"><feFlood></feFlood><feComposite in2="SourceAlpha" operator="in"></feComposite><feGaussianBlur stdDeviation="1"></feGaussianBlur><feOffset dx="-8" dy="-6" result="afterOffset"></feOffset><feFlood flood-color="#ffffff" flood-opacity="0.5"></feFlood><feComposite in2="afterOffset" operator="in"></feComposite><feMorphology operator="dilate" radius="1"></feMorphology><feComposite in2="SourceAlpha" operator="out"></feComposite></filter><path d="M444.45 381.99L444.95 382.03L445.44 382.09L445.94 382.17L446.43 382.27L446.91 382.38L447.4 382.51L447.87 382.66L448.35 382.83L448.81 383.01L449.27 383.21L449.73 383.43L450.17 383.66L450.61 383.91L451.04 384.18L451.46 384.46L451.88 384.76L452.28 385.07L452.67 385.41L453.05 385.75L453.42 386.12L453.78 386.5L454.12 386.89L454.45 387.3L454.77 387.73L467.03 404.77L467.25 405.07L467.47 405.35L467.71 405.64L467.95 405.91L468.19 406.19L468.44 406.45L468.7 406.71L468.96 406.95L469.23 407.2L469.51 407.43L469.78 407.66L470.07 407.88L470.36 408.1L470.65 408.3L470.95 408.5L471.26 408.69L471.57 408.87L471.88 409.05L472.2 409.21L472.52 409.37L472.84 409.52L473.17 409.66L473.5 409.8L473.84 409.92L474.18 410.04L474.52 410.15L474.86 410.25L475.21 410.33L475.56 410.42L475.91 410.49L476.26 410.55L476.62 410.6L476.98 410.64L477.34 410.68L477.7 410.7L478.06 410.72L478.43 410.72L478.79 410.71L479.16 410.7L479.52 410.67L479.72 410.66L479.91 410.64L480.1 410.62L480.29 410.61L480.48 410.59L480.67 410.58L480.87 410.57L481.06 410.55L481.25 410.54L481.44 410.53L481.63 410.52L481.83 410.5L482.02 410.49L482.21 410.48L482.4 410.47L482.6 410.46L482.79 410.45L482.98 410.44L483.18 410.43L483.37 410.42L483.56 410.42L483.76 410.41L483.95 410.4L484.15 410.39L484.34 410.39L484.53 410.38L484.73 410.38L484.92 410.37L485.12 410.37L485.31 410.36L485.5 410.36L485.7 410.35L485.89 410.35L486.09 410.35L486.28 410.34L486.48 410.34L486.67 410.34L486.87 410.34L487.07 410.34L487.26 410.34L487.46 410.34L487.65 410.34L487.85 410.34L488.04 410.34L488.24 410.34L488.43 410.35L488.63 410.35L488.82 410.35L489.02 410.36L489.21 410.36L489.4 410.37L489.6 410.37L489.79 410.38L489.99 410.38L490.18 410.39L490.37 410.39L490.57 410.4L490.76 410.41L490.96 410.42L491.15 410.42L491.34 410.43L491.53 410.44L491.73 410.45L491.92 410.46L492.11 410.47L492.31 410.48L492.5 410.49L492.69 410.5L492.88 410.52L493.08 410.53L493.27 410.54L493.46 410.55L493.65 410.57L493.85 410.58L494.04 410.59L494.23 410.61L494.42 410.62L494.61 410.64L494.8 410.66L495 410.67L495.36 410.7L495.73 410.71L496.09 410.72L496.46 410.72L496.82 410.7L497.18 410.68L497.54 410.64L497.9 410.6L498.25 410.55L498.61 410.49L498.96 410.42L499.31 410.33L499.66 410.25L500 410.15L500.34 410.04L500.68 409.92L501.02 409.8L501.35 409.66L501.68 409.52L502 409.37L502.32 409.21L502.64 409.05L502.95 408.87L503.26 408.69L503.56 408.5L503.86 408.3L504.16 408.1L504.45 407.88L504.73 407.66L505.01 407.43L505.29 407.2L505.56 406.95L505.82 406.71L506.08 406.45L506.33 406.19L506.57 405.91L506.81 405.64L507.04 405.35L507.27 405.07L507.49 404.77L519.75 387.73L520.06 387.3L520.4 386.89L520.74 386.5L521.1 386.12L521.47 385.75L521.85 385.41L522.24 385.08L522.64 384.76L523.05 384.46L523.48 384.18L523.91 383.91L524.34 383.66L524.79 383.43L525.24 383.21L525.7 383.01L526.17 382.83L526.64 382.66L527.12 382.51L527.6 382.38L528.09 382.27L528.58 382.17L529.07 382.09L529.57 382.03L530.07 381.99L530.57 381.96L531.07 381.96L531.57 381.97L532.08 382L532.58 382.04L533.08 382.11L533.58 382.2L534.08 382.3L534.58 382.42L535.07 382.56L535.56 382.72L536.05 382.9L536.53 383.1L537.01 383.32L537.48 383.56L537.94 383.82L564.57 399.19L565.03 399.47L565.47 399.76L565.9 400.06L566.31 400.38L566.71 400.71L567.09 401.05L567.46 401.41L567.82 401.78L568.16 402.16L568.48 402.55L568.79 402.95L569.08 403.36L569.36 403.78L569.62 404.21L569.87 404.65L570.09 405.1L570.31 405.55L570.5 406.01L570.68 406.48L570.84 406.95L570.99 407.43L571.11 407.91L571.23 408.4L571.32 408.89L571.39 409.39L571.45 409.89L571.49 410.39L571.51 410.89L571.51 411.4L571.5 411.9L571.46 412.41L571.41 412.91L571.34 413.42L571.25 413.93L571.13 414.43L571 414.93L570.85 415.43L570.69 415.93L570.5 416.42L570.29 416.91L561.57 436.25L561.42 436.59L561.28 436.93L561.15 437.27L561.04 437.62L560.93 437.97L560.83 438.32L560.74 438.67L560.66 439.02L560.59 439.37L560.53 439.73L560.48 440.08L560.44 440.44L560.4 440.79L560.38 441.15L560.37 441.51L560.36 441.87L560.37 442.22L560.38 442.58L560.4 442.94L560.44 443.29L560.48 443.65L560.53 444L560.59 444.35L560.65 444.7L560.73 445.05L560.82 445.4L560.91 445.75L561.02 446.09L561.13 446.43L561.25 446.77L561.38 447.11L561.52 447.45L561.67 447.78L561.82 448.11L561.99 448.43L562.16 448.75L562.34 449.07L562.53 449.39L562.73 449.7L562.94 450L563.15 450.31L563.36 450.62L563.57 450.93L563.78 451.24L563.99 451.55L564.19 451.87L564.4 452.18L564.6 452.5L564.81 452.81L565.01 453.13L565.21 453.45L565.41 453.76L565.61 454.08L565.8 454.4L566 454.72L566.19 455.05L566.38 455.37L566.58 455.69L566.77 456.02L566.95 456.34L567.14 456.67L567.33 456.99L567.51 457.32L567.7 457.65L567.88 457.98L568.06 458.31L568.24 458.64L568.42 458.97L568.6 459.3L568.77 459.64L568.95 459.97L569.12 460.31L569.29 460.64L569.46 460.98L569.63 461.32L569.8 461.65L569.97 461.99L570.13 462.33L570.29 462.67L570.46 463.02L570.62 463.35L570.79 463.67L570.97 463.99L571.15 464.31L571.34 464.62L571.54 464.92L571.75 465.22L571.96 465.52L572.18 465.8L572.41 466.08L572.64 466.36L572.88 466.62L573.13 466.89L573.38 467.14L573.64 467.39L573.9 467.63L574.17 467.86L574.45 468.09L574.73 468.31L575.02 468.52L575.31 468.73L575.6 468.93L575.91 469.12L576.21 469.3L576.52 469.47L576.84 469.64L577.16 469.8L577.48 469.95L577.81 470.09L578.15 470.22L578.48 470.34L578.82 470.46L579.17 470.57L579.52 470.67L579.87 470.75L580.22 470.83L580.58 470.9L580.94 470.96L581.3 471.02L581.67 471.06L602.77 473.18L603.3 473.24L603.82 473.32L604.34 473.42L604.85 473.54L605.34 473.68L605.84 473.84L606.32 474.01L606.79 474.2L607.26 474.41L607.71 474.63L608.16 474.87L608.6 475.13L609.02 475.4L609.44 475.68L609.84 475.98L610.23 476.29L610.61 476.62L610.98 476.96L611.33 477.31L611.67 477.67L612 478.05L612.32 478.44L612.62 478.84L612.91 479.25L613.18 479.67L613.43 480.1L613.68 480.54L613.9 480.99L614.11 481.45L614.31 481.92L614.48 482.39L614.64 482.88L614.78 483.37L614.91 483.87L615.01 484.37L615.1 484.88L615.17 485.4L615.22 485.92L615.25 486.45L615.26 486.98L615.26 517.73L615.25 518.26L615.22 518.79L615.17 519.31L615.1 519.83L615.01 520.34L614.91 520.84L614.78 521.34L614.64 521.83L614.48 522.32L614.31 522.79L614.11 523.26L613.9 523.72L613.68 524.17L613.43 524.61L613.18 525.04L612.91 525.46L612.62 525.87L612.32 526.27L612 526.66L611.67 527.04L611.33 527.4L610.98 527.75L610.61 528.09L610.23 528.42L609.84 528.73L609.44 529.03L609.02 529.32L608.6 529.59L608.16 529.84L607.72 530.08L607.26 530.3L606.79 530.51L606.32 530.7L605.84 530.87L605.35 531.03L604.85 531.17L604.34 531.29L603.82 531.39L603.3 531.47L602.77 531.53L581.67 533.65L581.31 533.69L580.94 533.74L580.58 533.81L580.22 533.88L579.87 533.96L579.52 534.04L579.17 534.14L578.82 534.25L578.48 534.36L578.15 534.49L577.81 534.62L577.49 534.76L577.16 534.91L576.84 535.07L576.52 535.24L576.21 535.41L575.91 535.59L575.6 535.78L575.31 535.98L575.02 536.19L574.73 536.4L574.45 536.62L574.17 536.85L573.9 537.08L573.64 537.32L573.38 537.57L573.13 537.82L572.88 538.08L572.64 538.35L572.41 538.63L572.18 538.91L571.96 539.19L571.75 539.49L571.54 539.79L571.34 540.09L571.15 540.4L570.97 540.72L570.79 541.04L570.62 541.36L570.46 541.69L570.29 542.04L570.13 542.38L569.97 542.72L569.8 543.05L569.63 543.39L569.46 543.73L569.29 544.07L569.12 544.4L568.95 544.74L568.77 545.07L568.6 545.41L568.42 545.74L568.24 546.07L568.06 546.4L567.88 546.73L567.7 547.06L567.51 547.39L567.33 547.72L567.14 548.04L566.96 548.37L566.77 548.69L566.58 549.02L566.39 549.34L566.19 549.67L566 549.99L565.8 550.31L565.61 550.63L565.41 550.95L565.21 551.27L565.01 551.58L564.81 551.9L564.61 552.22L564.4 552.53L564.2 552.84L563.99 553.16L563.78 553.47L563.57 553.78L563.36 554.09L563.15 554.4L562.94 554.71L562.73 555.02L562.53 555.33L562.34 555.64L562.16 555.96L561.99 556.28L561.82 556.61L561.67 556.94L561.52 557.27L561.38 557.6L561.25 557.94L561.13 558.28L561.02 558.62L560.92 558.96L560.82 559.31L560.73 559.66L560.66 560.01L560.59 560.36L560.53 560.71L560.48 561.07L560.44 561.42L560.41 561.78L560.38 562.13L560.37 562.49L560.36 562.85L560.37 563.2L560.38 563.56L560.41 563.92L560.44 564.27L560.48 564.63L560.53 564.99L560.59 565.34L560.66 565.69L560.74 566.05L560.83 566.4L560.93 566.75L561.04 567.09L561.16 567.44L561.28 567.78L561.42 568.13L561.57 568.46L570.29 587.8L570.5 588.29L570.69 588.79L570.86 589.28L571.01 589.78L571.14 590.28L571.25 590.79L571.34 591.29L571.41 591.8L571.46 592.3L571.5 592.81L571.51 593.32L571.51 593.82L571.49 594.32L571.45 594.82L571.39 595.32L571.32 595.82L571.23 596.31L571.12 596.8L570.99 597.28L570.84 597.76L570.68 598.23L570.5 598.7L570.31 599.16L570.1 599.61L569.87 600.06L569.62 600.5L569.36 600.93L569.08 601.35L568.79 601.76L568.48 602.16L568.16 602.55L567.82 602.93L567.47 603.3L567.1 603.66L566.71 604L566.31 604.33L565.9 604.65L565.47 604.95L565.03 605.24L564.58 605.52L537.95 620.89L537.48 621.15L537.01 621.39L536.53 621.61L536.05 621.81L535.56 621.99L535.07 622.15L534.58 622.29L534.08 622.41L533.58 622.51L533.08 622.6L532.58 622.67L532.08 622.71L531.58 622.74L531.07 622.75L530.57 622.75L530.07 622.72L529.57 622.68L529.08 622.62L528.58 622.54L528.09 622.44L527.6 622.33L527.12 622.2L526.64 622.05L526.17 621.88L525.71 621.7L525.24 621.5L524.79 621.28L524.35 621.05L523.91 620.8L523.48 620.53L523.06 620.25L522.64 619.95L522.24 619.63L521.85 619.3L521.47 618.96L521.1 618.59L520.74 618.21L520.4 617.82L520.07 617.41L519.75 616.98L507.49 599.95L507.27 599.65L507.04 599.36L506.81 599.08L506.57 598.8L506.33 598.53L506.08 598.27L505.82 598.01L505.56 597.76L505.29 597.52L505.01 597.28L504.73 597.05L504.45 596.83L504.16 596.62L503.87 596.41L503.57 596.21L503.26 596.02L502.95 595.84L502.64 595.67L502.32 595.5L502 595.34L501.68 595.19L501.35 595.05L501.02 594.91L500.68 594.79L500.34 594.67L500 594.57L499.66 594.47L499.31 594.38L498.96 594.3L498.61 594.23L498.26 594.16L497.9 594.11L497.54 594.07L497.18 594.04L496.82 594.01L496.46 594L496.09 593.99L495.73 594L495.36 594.02L495 594.04L494.8 594.06L494.61 594.07L494.42 594.09L494.23 594.1L494.04 594.12L493.85 594.13L493.65 594.15L493.46 594.16L493.27 594.17L493.08 594.19L492.89 594.2L492.69 594.21L492.5 594.22L492.31 594.23L492.11 594.24L491.92 594.25L491.73 594.26L491.54 594.27L491.34 594.28L491.15 594.29L490.96 594.3L490.76 594.31L490.57 594.31L490.38 594.32L490.18 594.33L489.99 594.33L489.79 594.34L489.6 594.34L489.41 594.35L489.21 594.35L489.02 594.36L488.82 594.36L488.63 594.36L488.43 594.37L488.24 594.37L488.04 594.37L487.85 594.37L487.65 594.37L487.46 594.37L487.26 594.38L487.07 594.37L486.87 594.37L486.68 594.37L486.48 594.37L486.29 594.37L486.09 594.37L485.9 594.36L485.7 594.36L485.51 594.36L485.31 594.35L485.12 594.35L484.92 594.34L484.73 594.34L484.53 594.33L484.34 594.33L484.15 594.32L483.95 594.31L483.76 594.31L483.57 594.3L483.37 594.29L483.18 594.28L482.98 594.27L482.79 594.26L482.6 594.25L482.41 594.24L482.21 594.23L482.02 594.22L481.83 594.21L481.64 594.2L481.44 594.19L481.25 594.17L481.06 594.16L480.87 594.15L480.67 594.13L480.48 594.12L480.29 594.1L480.1 594.09L479.91 594.07L479.72 594.06L479.53 594.04L479.16 594.02L478.79 594L478.43 593.99L478.06 594L477.7 594.01L477.34 594.04L476.98 594.07L476.62 594.11L476.27 594.16L475.91 594.23L475.56 594.3L475.21 594.38L474.86 594.47L474.52 594.57L474.18 594.67L473.84 594.79L473.5 594.91L473.17 595.05L472.84 595.19L472.52 595.34L472.2 595.5L471.88 595.67L471.57 595.84L471.26 596.02L470.96 596.21L470.66 596.41L470.36 596.62L470.07 596.83L469.79 597.05L469.51 597.28L469.23 597.52L468.96 597.76L468.7 598.01L468.44 598.27L468.19 598.53L467.95 598.8L467.71 599.08L467.48 599.36L467.25 599.65L467.03 599.95L454.77 616.98L454.45 617.41L454.12 617.82L453.78 618.21L453.42 618.59L453.05 618.96L452.67 619.3L452.28 619.63L451.88 619.95L451.46 620.25L451.04 620.53L450.61 620.8L450.17 621.05L449.73 621.28L449.27 621.5L448.81 621.7L448.35 621.88L447.88 622.05L447.4 622.2L446.92 622.33L446.43 622.44L445.94 622.54L445.44 622.62L444.95 622.68L444.45 622.72L443.95 622.75L443.45 622.75L442.94 622.74L442.44 622.71L441.94 622.67L441.44 622.6L440.94 622.51L440.44 622.41L439.94 622.29L439.45 622.15L438.96 621.99L438.47 621.81L437.99 621.61L437.51 621.39L437.04 621.15L436.57 620.89L409.95 605.52L409.49 605.24L409.05 604.95L408.62 604.65L408.21 604.33L407.81 604L407.42 603.66L407.06 603.3L406.7 602.93L406.36 602.55L406.04 602.16L405.73 601.76L405.44 601.35L405.16 600.93L404.9 600.5L404.65 600.06L404.43 599.61L404.21 599.16L404.02 598.7L403.84 598.23L403.68 597.76L403.53 597.28L403.41 596.8L403.3 596.31L403.2 595.82L403.13 595.32L403.07 594.82L403.03 594.32L403.01 593.82L403.01 593.32L403.02 592.81L403.06 592.3L403.11 591.8L403.18 591.29L403.28 590.79L403.39 590.28L403.52 589.78L403.67 589.28L403.84 588.79L404.02 588.29L404.23 587.8L412.95 568.46L413.1 568.13L413.24 567.78L413.37 567.44L413.48 567.09L413.59 566.75L413.69 566.4L413.78 566.05L413.86 565.69L413.93 565.34L413.99 564.99L414.04 564.63L414.08 564.27L414.12 563.92L414.14 563.56L414.15 563.2L414.16 562.85L414.15 562.49L414.14 562.13L414.12 561.78L414.08 561.42L414.04 561.07L413.99 560.71L413.93 560.36L413.86 560.01L413.79 559.66L413.7 559.31L413.61 558.96L413.5 558.62L413.39 558.28L413.27 557.94L413.14 557.6L413 557.27L412.85 556.94L412.7 556.61L412.53 556.28L412.36 555.96L412.18 555.64L411.99 555.33L411.79 555.02L411.58 554.71L411.37 554.4L411.16 554.09L410.95 553.78L410.74 553.47L410.53 553.16L410.33 552.84L410.12 552.53L409.92 552.22L409.71 551.9L409.51 551.58L409.31 551.27L409.11 550.95L408.91 550.63L408.72 550.31L408.52 549.99L408.33 549.67L408.14 549.34L407.94 549.02L407.75 548.69L407.57 548.37L407.38 548.04L407.19 547.72L407.01 547.39L406.82 547.06L406.64 546.73L406.46 546.4L406.28 546.07L406.1 545.74L405.92 545.41L405.75 545.07L405.57 544.74L405.4 544.4L405.23 544.07L405.06 543.73L404.89 543.39L404.72 543.05L404.56 542.72L404.39 542.38L404.23 542.04L404.06 541.69L403.9 541.36L403.73 541.04L403.55 540.72L403.37 540.4L403.18 540.09L402.98 539.79L402.77 539.49L402.56 539.19L402.34 538.91L402.11 538.63L401.88 538.35L401.64 538.08L401.39 537.82L401.14 537.57L400.88 537.32L400.62 537.08L400.35 536.85L400.07 536.62L399.79 536.4L399.5 536.19L399.21 535.98L398.92 535.78L398.61 535.59L398.31 535.41L398 535.24L397.68 535.07L397.36 534.91L397.04 534.76L396.71 534.62L396.37 534.49L396.04 534.36L395.7 534.25L395.35 534.14L395 534.04L394.65 533.96L394.3 533.88L393.94 533.81L393.58 533.74L393.22 533.69L392.85 533.65L371.75 531.53L371.22 531.47L370.7 531.39L370.18 531.29L369.68 531.17L369.18 531.03L368.68 530.87L368.2 530.7L367.73 530.51L367.26 530.3L366.81 530.08L366.36 529.84L365.92 529.59L365.5 529.32L365.08 529.03L364.68 528.73L364.29 528.42L363.91 528.09L363.54 527.75L363.19 527.4L362.84 527.04L362.52 526.66L362.2 526.27L361.9 525.87L361.61 525.46L361.34 525.04L361.08 524.61L360.84 524.17L360.62 523.72L360.41 523.26L360.21 522.79L360.04 522.32L359.88 521.83L359.74 521.34L359.61 520.84L359.51 520.34L359.42 519.83L359.35 519.31L359.3 518.79L359.27 518.26L359.26 517.73L359.26 486.98L359.27 486.45L359.3 485.92L359.35 485.4L359.42 484.88L359.51 484.37L359.61 483.87L359.74 483.37L359.88 482.88L360.04 482.39L360.21 481.92L360.41 481.45L360.62 480.99L360.84 480.54L361.08 480.1L361.34 479.67L361.61 479.25L361.9 478.84L362.2 478.44L362.52 478.05L362.84 477.67L363.19 477.31L363.54 476.96L363.91 476.62L364.29 476.29L364.68 475.98L365.08 475.68L365.5 475.4L365.92 475.13L366.36 474.87L366.81 474.63L367.26 474.41L367.73 474.2L368.2 474.01L368.68 473.84L369.18 473.68L369.68 473.54L370.18 473.42L370.7 473.32L371.22 473.24L371.75 473.17L392.85 471.06L393.22 471.02L393.58 470.96L393.94 470.9L394.3 470.83L394.65 470.75L395 470.66L395.35 470.57L395.7 470.46L396.04 470.34L396.37 470.22L396.71 470.09L397.04 469.95L397.36 469.8L397.68 469.64L398 469.47L398.31 469.3L398.61 469.12L398.92 468.93L399.21 468.73L399.5 468.52L399.79 468.31L400.07 468.09L400.35 467.86L400.62 467.63L400.88 467.39L401.14 467.14L401.39 466.89L401.64 466.62L401.88 466.36L402.11 466.08L402.34 465.8L402.56 465.52L402.77 465.22L402.98 464.92L403.18 464.62L403.37 464.31L403.55 463.99L403.73 463.67L403.9 463.35L404.06 463.01L404.23 462.67L404.39 462.33L404.56 461.99L404.72 461.65L404.89 461.32L405.06 460.98L405.23 460.64L405.4 460.31L405.57 459.97L405.75 459.64L405.92 459.3L406.1 458.97L406.28 458.64L406.46 458.31L406.64 457.98L406.82 457.65L407.01 457.32L407.19 456.99L407.38 456.67L407.57 456.34L407.75 456.02L407.94 455.69L408.14 455.37L408.33 455.05L408.52 454.72L408.72 454.4L408.91 454.08L409.11 453.76L409.31 453.45L409.51 453.13L409.71 452.81L409.92 452.5L410.12 452.18L410.33 451.87L410.53 451.55L410.74 451.24L410.95 450.93L411.16 450.62L411.37 450.31L411.58 450L411.79 449.7L411.99 449.39L412.18 449.07L412.36 448.75L412.53 448.43L412.7 448.1L412.85 447.78L413 447.44L413.14 447.11L413.27 446.77L413.39 446.43L413.5 446.09L413.61 445.75L413.7 445.4L413.79 445.05L413.86 444.7L413.93 444.35L413.99 444L414.04 443.64L414.08 443.29L414.12 442.93L414.14 442.58L414.15 442.22L414.16 441.86L414.15 441.51L414.14 441.15L414.12 440.79L414.08 440.44L414.04 440.08L413.99 439.73L413.93 439.37L413.86 439.02L413.78 438.67L413.69 438.31L413.59 437.97L413.48 437.62L413.37 437.27L413.24 436.93L413.1 436.59L412.95 436.25L404.23 416.91L404.02 416.42L403.84 415.93L403.67 415.43L403.52 414.93L403.39 414.43L403.28 413.93L403.18 413.42L403.11 412.91L403.06 412.41L403.02 411.9L403.01 411.4L403.01 410.89L403.03 410.39L403.07 409.89L403.13 409.39L403.2 408.89L403.3 408.4L403.41 407.91L403.53 407.43L403.68 406.95L403.84 406.48L404.02 406.01L404.21 405.55L404.43 405.1L404.65 404.65L404.9 404.21L405.16 403.78L405.44 403.36L405.73 402.95L406.04 402.55L406.36 402.16L406.7 401.78L407.05 401.41L407.42 401.05L407.81 400.71L408.21 400.38L408.62 400.06L409.05 399.76L409.49 399.47L409.94 399.19L436.57 383.82L437.04 383.56L437.51 383.32L437.99 383.1L438.47 382.9L438.96 382.72L439.45 382.56L439.94 382.42L440.44 382.3L440.94 382.2L441.44 382.11L441.94 382.04L442.44 382L442.94 381.97L443.45 381.96L443.95 381.96L444.45 381.99ZM483.58 457.5L481.76 457.69L479.97 457.94L478.2 458.27L476.46 458.66L474.74 459.13L473.05 459.65L471.39 460.24L469.76 460.9L468.16 461.61L466.6 462.39L465.07 463.22L463.58 464.11L462.12 465.05L460.7 466.05L459.33 467.1L457.99 468.2L456.7 469.35L455.46 470.55L454.26 471.8L453.11 473.09L452.01 474.42L450.96 475.8L449.96 477.21L449.01 478.67L448.12 480.16L447.29 481.69L446.52 483.26L445.8 484.86L445.15 486.49L444.56 488.15L444.03 489.84L443.57 491.55L443.18 493.3L442.85 495.07L442.6 496.86L442.41 498.67L442.3 500.5L442.26 502.35L442.3 504.21L442.41 506.04L442.6 507.85L442.85 509.64L443.18 511.41L443.57 513.16L444.03 514.87L444.56 516.56L445.15 518.22L445.8 519.85L446.52 521.45L447.29 523.02L448.12 524.55L449.01 526.04L449.96 527.5L450.96 528.91L452.01 530.29L453.11 531.62L454.26 532.91L455.46 534.16L456.7 535.36L457.99 536.51L459.33 537.61L460.7 538.66L462.12 539.66L463.58 540.6L465.07 541.49L466.6 542.32L468.16 543.1L469.76 543.81L471.39 544.47L473.05 545.06L474.74 545.58L476.46 546.04L478.2 546.44L479.97 546.76L481.76 547.02L483.58 547.21L485.41 547.32L487.26 547.35L489.11 547.32L490.95 547.21L492.76 547.02L494.55 546.76L496.32 546.44L498.06 546.04L499.78 545.58L501.47 545.06L503.13 544.47L504.76 543.81L506.36 543.1L507.92 542.32L509.45 541.49L510.95 540.6L512.4 539.66L513.82 538.66L515.2 537.61L516.53 536.51L517.82 535.36L519.07 534.16L520.26 532.91L521.42 531.62L522.52 530.29L523.57 528.91L524.57 527.5L525.51 526.04L526.4 524.55L527.23 523.02L528 521.45L528.72 519.85L529.37 518.22L529.96 516.56L530.49 514.87L530.95 513.16L531.35 511.41L531.67 509.64L531.93 507.85L532.11 506.04L532.22 504.21L532.26 502.35L532.22 500.5L532.11 498.67L531.93 496.86L531.67 495.07L531.35 493.3L530.95 491.55L530.49 489.84L529.96 488.15L529.37 486.49L528.72 484.86L528 483.26L527.23 481.69L526.4 480.16L525.51 478.67L524.57 477.21L523.57 475.8L522.52 474.42L521.42 473.09L520.26 471.8L519.07 470.55L517.82 469.35L516.53 468.2L515.2 467.1L513.82 466.05L512.4 465.05L510.95 464.11L509.45 463.22L507.92 462.39L506.36 461.61L504.76 460.9L503.13 460.24L501.47 459.65L499.78 459.13L498.06 458.66L496.32 458.27L494.55 457.94L492.76 457.69L490.95 457.5L489.11 457.39L487.26 457.35L485.41 457.39L483.58 457.5Z" id="b2s3Nhn8Uc" fill="white" fill-opacity="1" filter="url(#shadow6573136)"></path></g><use xlink:href="#bVE4pYay8" opacity="1" fill="#4b4b4b" fill-opacity="1"></use><g><use xlink:href="#bVE4pYay8" opacity="1" fill-opacity="0" stroke="#000000" stroke-width="1" stroke-opacity="0"></use></g></g></g></g></svg>