<!--?xml version="1.0" encoding="utf-8"?-->
<!-- Generator: Adobe Illustrator 18.0.0, SVG Export Plug-In . SVG Version: 6.00 Build 0)  -->

<svg version="1.1" id="_x31_0" xmlns="http://www.w3.org/2000/svg" xmlns:xlink="http://www.w3.org/1999/xlink" x="0px" y="0px" viewBox="0 0 512 512" style="width: 256px; height: 256px; opacity: 1;" xml:space="preserve">
<style type="text/css">
	.st0{fill:#374149;}
</style>
<g>
	<path class="st0" d="M256.004,198c-31.981,0-58,26.023-58,58c0,31.984,26.019,58,58,58c31.98,0,58-26.016,58-58
		C314.004,224.023,287.984,198,256.004,198z" style="fill: rgb(255, 255, 255);"></path>
	<path class="st0" d="M487.027,197.641l-42.203-4.234c-9.808-0.985-18.21-7.172-22.43-16.086
		c-4.312-9.11-9.351-17.812-15.039-26.023c-5.625-8.125-6.801-18.508-2.742-27.508l17.441-38.679
		c5.856-12.993,0.918-28.313-11.426-35.438l-53.258-30.75c-12.344-7.125-28.078-3.742-36.398,7.828l-24.516,34.078
		c-5.738,7.977-15.195,12.641-24.984,11.805c-5.102-0.438-10.258-0.664-15.469-0.664c-5.215,0-10.375,0.226-15.473,0.664
		c-9.793,0.836-19.246-3.828-24.988-11.805L191.027,26.75c-8.32-11.57-24.054-14.953-36.398-7.828l-53.258,30.75
		C89.031,56.797,84.094,72.117,89.95,85.11l17.437,38.679c4.059,9,2.883,19.383-2.738,27.508
		c-5.692,8.211-10.727,16.914-15.039,26.023c-4.219,8.914-12.622,15.102-22.43,16.086l-42.203,4.234C10.797,199.071,0,211,0,225.25
		v61.5c0,14.25,10.797,26.188,24.977,27.61l42.203,4.234c9.808,0.984,18.21,7.172,22.43,16.086
		c4.312,9.11,9.347,17.813,15.039,26.031c5.621,8.118,6.797,18.5,2.738,27.508l-17.437,38.68
		c-5.856,12.984-0.918,28.305,11.422,35.43l53.258,30.75c12.344,7.126,28.078,3.742,36.398-7.828l24.516-34.07
		c5.742-7.976,15.195-12.648,24.988-11.804c5.098,0.43,10.258,0.664,15.473,0.664c5.211,0,10.367-0.234,15.469-0.664
		c9.789-0.844,19.246,3.828,24.984,11.804l24.516,34.07c8.32,11.57,24.054,14.954,36.398,7.828l53.262-30.75
		c12.34-7.125,17.278-22.446,11.422-35.43l-17.438-38.68c-4.058-9.008-2.882-19.39,2.738-27.508
		c5.692-8.218,10.727-16.922,15.039-26.031c4.219-8.914,12.622-15.102,22.43-16.086l42.203-4.234
		C501.207,312.938,512,301,512,286.75v-61.5C512,211,501.207,199.071,487.027,197.641z M346.004,256c0,49.629-40.375,90-90,90
		s-90-40.371-90-90c0-49.625,40.375-90,90-90S346.004,206.375,346.004,256z" style="fill: rgb(255, 255, 255);"></path>
</g>
</svg>
