<!--?xml version="1.0" encoding="utf-8"?-->
<!-- Generator: Adobe Illustrator 18.1.1, SVG Export Plug-In . SVG Version: 6.00 Build 0)  -->

<svg version="1.1" id="_x31_0" xmlns="http://www.w3.org/2000/svg" xmlns:xlink="http://www.w3.org/1999/xlink" x="0px" y="0px" viewBox="0 0 512 512" style="width: 256px; height: 256px; opacity: 1;" xml:space="preserve">
<style type="text/css">
	.st0{fill:#374149;}
</style>
<g>
	<path class="st0" d="M484.988,444.446c-0.524-2.973-3.762-7-8.926-11.821c-38.422-35.878-143.691-98.89-151.14-100.558h-2.535
		h-0.61v-62.05c0.762-0.434,1.367-1.07,2.074-1.574c0.43-0.309,0.855-0.633,1.297-0.989c13.289-10.762,16.961-33.812,18-41.238
		c0.062-0.383,0.148-0.696,0.203-1.09c1.824,0.606,3.644,0.863,5.21,0.863c18.809,0,21.79-38.328,22.926-48.484
		c1.054-10.153-3.41-17.332-6.649-20.047c0.789-1.664,1.656-4.027,2.531-6.914c2.191-7.172,4.211-17.508,4.992-28.45
		c1.141-16.011-0.258-33.43-7.874-44.191c-2.622-3.774-6.738-8.496-11.469-13.219c-10.942-10.859-25.29-21.882-33.695-21.882
		c-13.649-24.504-31.07-40.438-63.282-42.543C254.117,0.09,252.109,0.09,250.004,0h-0.438c-26.781,0-72.293,31.774-90.5,64.683
		c-18.203,32.821-23.633,44.723-14.441,85.86c0.878,2.886,1.754,5.25,2.629,6.914c-3.246,2.715-7.703,9.894-6.657,20.047
		c1.047,10.156,4.028,48.484,22.84,48.484c1.668,0,3.418-0.258,5.344-0.871l0,0c0.438,3.325,2.102,12.516,5.511,21.879
		c3.422,9.457,8.497,18.992,15.934,23.02v21.339l-0.598,40.004l-0.015,0.707h-0.004h-2.531
		c-7.355,1.668-112.539,64.68-151.047,100.558c-5.258,4.821-8.41,8.848-9.019,11.821c-2.973,15.144-7.523,37.363-9.191,53.117
		c-0.352,3.238,2.191,6.125,5.426,6.297l72.015,4.817c10.825,0.441,21.665,0.648,32.497,1c5.293,0.175,10.57,0.336,15.855,0.492
		c21.293,0.614,42.57,1.05,63.863,1.32c6.09,0.078,12.16,0.141,18.226,0.192c10.286,0.082,20.582,0.32,30.863,0.32
		c53.391,0,106.786-1.047,160.086-3.324l72.011-4.73c3.332-0.172,5.867-3.059,5.516-6.297
		C492.52,481.894,487.968,459.59,484.988,444.446z" style="fill: rgb(255, 255, 255);"></path>
</g>
</svg>
