<!--?xml version="1.0" encoding="utf-8"?-->
<!-- Generator: Adobe Illustrator 19.1.1, SVG Export Plug-In . SVG Version: 6.00 Build 0)  -->
<svg version="1.1" id="_x31_0" xmlns="http://www.w3.org/2000/svg" xmlns:xlink="http://www.w3.org/1999/xlink" x="0px" y="0px" viewBox="0 0 512 512" style="width: 256px; height: 256px; opacity: 1;" xml:space="preserve">
<style type="text/css">
	.st0{fill:#374149;}
</style>
<g>
	<path class="st0" d="M510.244,127.445l-77.218-77.332L384.573,1.868c-2.347-2.336-6.143-2.332-8.483,0.012L52.146,325.82
		c-0.57,0.57-1.194,1.198-1.708,1.822l-7.274,7.274c-3.922,3.922-6.822,8.871-8.467,14.269L1.722,461.399
		c-4.267,13.818-0.455,28.77,9.774,39c10.006,10.006,24.676,13.873,38.43,10.006l113.13-32.857
		c5.398-1.649,10.402-4.718,14.382-8.699l332.805-332.918C512.583,133.588,512.587,129.789,510.244,127.445z M31.042,472.009
		l5.641-17.711l7.82,7.733l2.591,2.634l-9.646,4.482L31.042,472.009z M70.222,469.533l-27.97-27.746l24.562-83.224l8.978-8.978
		v-0.118l3.976-3.976l-1.26,27.926l-0.169,3.349h0.02l-0.008,0.161l26.698-1.826l3.207-0.2l-0.342,5.778l-1.414,22.482l-0.192,2.712
		h0.023l-0.011,0.162l25.354-1.708l4.887-0.35l0.624-0.023l-0.451,5.437l-1.495,22.214l-0.224,2.975l0.019-0.004l-0.007,0.166
		l25.354-1.594l3.329-0.231l2.293-0.047l-3.404,3.407l-8.981,9.095L70.222,469.533z M133.722,332.018l252.06-252.064l6.822,6.822
		l-252.06,252.064L133.722,332.018z M425.406,119.578l6.822,6.818L180.164,378.461l-6.818-6.819L425.406,119.578z" style="fill: rgb(75, 75, 75);"></path>
</g>
</svg>
