<?xml version="1.0" encoding="UTF-8" standalone="no"?>
<!DOCTYPE svg PUBLIC "-//W3C//DTD SVG 1.1//EN" "http://www.w3.org/Graphics/SVG/1.1/DTD/svg11.dtd">
<svg version="1.1" xmlns="http://www.w3.org/2000/svg" xmlns:xlink="http://www.w3.org/1999/xlink" preserveAspectRatio="xMidYMid meet" viewBox="0 0 640 640" width="256" height="256"><defs><path d="M330.95 182.09L338.96 182.47L346.91 182.99L354.8 183.67L362.64 184.49L370.41 185.46L378.13 186.59L385.8 187.86L393.41 189.28L400.96 190.86L408.45 192.58L415.88 194.45L423.26 196.48L430.58 198.65L437.85 200.97L445.06 203.44L452.21 206.07L459.3 208.84L466.34 211.76L473.31 214.83L480.24 218.05L487.1 221.42L493.91 224.94L500.66 228.62L507.35 232.44L513.99 236.41L520.57 240.53L527.09 244.8L533.56 249.22L539.97 253.79L546.32 258.51L552.61 263.38L558.85 268.4L565.03 273.56L571.15 278.88L577.22 284.35L583.23 289.97L589.18 295.74L595.08 301.66L611.98 319.24L595.07 336.82L594.52 337.39L593.56 338.35L592.21 339.69L590.48 341.37L588.36 343.37L585.86 345.69L582.99 348.29L579.75 351.15L576.15 354.26L572.2 357.59L567.89 361.13L563.24 364.84L558.25 368.71L552.93 372.72L547.28 376.85L541.3 381.07L535 385.37L528.4 389.73L521.48 394.11L514.26 398.51L506.75 402.9L498.94 407.26L490.85 411.56L482.48 415.8L473.83 419.94L464.91 423.97L455.73 427.86L446.29 431.59L436.6 435.15L426.66 438.51L416.47 441.64L406.05 444.54L395.39 447.18L384.51 449.53L373.41 451.58L362.09 453.3L350.56 454.68L338.83 455.69L326.9 456.31L314.77 456.52L302.64 456.31L290.71 455.69L278.97 454.68L267.44 453.3L256.13 451.58L245.02 449.53L234.14 447.18L223.49 444.54L213.07 441.64L202.88 438.51L192.94 435.15L183.25 431.59L173.81 427.86L164.62 423.97L155.71 419.94L147.06 415.8L138.69 411.56L130.6 407.26L122.79 402.9L115.28 398.51L108.06 394.11L101.14 389.73L94.53 385.37L88.24 381.07L82.26 376.85L76.61 372.72L71.29 368.71L66.3 364.84L61.65 361.13L57.34 357.59L53.39 354.26L49.79 351.15L46.55 348.29L43.68 345.69L41.18 343.37L39.06 341.37L37.33 339.69L35.98 338.35L35.02 337.39L34.47 336.82L17.39 319.24L34.47 301.66L35.02 301.09L35.98 300.12L37.33 298.79L39.07 297.11L41.19 295.1L43.68 292.78L46.55 290.18L49.79 287.31L53.39 284.2L57.34 280.86L61.65 277.32L66.3 273.6L71.29 269.73L76.61 265.71L82.26 261.58L88.24 257.35L94.54 253.04L101.14 248.68L108.06 244.29L115.28 239.89L122.79 235.49L130.6 231.13L138.69 226.81L147.06 222.57L155.71 218.43L164.63 214.39L173.81 210.5L183.25 206.76L192.94 203.2L202.88 199.83L213.07 196.69L223.49 193.79L234.14 191.15L245.03 188.79L256.13 186.74L267.45 185.02L278.97 183.64L290.71 182.63L302.64 182.01L314.77 181.79L322.89 181.87L330.95 182.09ZM271.67 235.84L265.04 236.87L258.48 238.03L252.01 239.32L245.62 240.74L239.31 242.26L233.1 243.9L226.97 245.64L220.94 247.48L215 249.42L209.15 251.43L203.4 253.53L197.75 255.71L192.2 257.95L186.74 260.25L181.4 262.62L176.15 265.03L171.01 267.49L165.98 269.99L161.06 272.52L156.25 275.08L151.56 277.66L146.97 280.26L142.51 282.86L138.16 285.48L133.93 288.09L129.83 290.69L125.84 293.28L121.98 295.85L118.25 298.4L114.65 300.91L111.17 303.39L107.83 305.82L104.62 308.21L101.54 310.54L98.6 312.82L95.8 315.02L93.14 317.16L90.62 319.22L90.78 319.35L90.94 319.47L91.09 319.6L91.25 319.73L91.41 319.86L91.57 319.99L91.73 320.12L91.89 320.25L92.05 320.38L92.21 320.51L92.37 320.64L92.53 320.78L92.69 320.91L92.86 321.04L93.02 321.17L93.18 321.3L93.35 321.44L93.51 321.57L93.68 321.7L93.84 321.84L94.01 321.97L94.18 322.1L94.35 322.24L94.51 322.37L94.68 322.51L94.85 322.64L95.02 322.78L95.19 322.91L95.36 323.05L95.53 323.18L95.7 323.32L95.87 323.46L96.05 323.59L96.22 323.73L96.39 323.87L96.57 324L96.74 324.14L96.92 324.28L97.09 324.42L97.27 324.56L99.96 326.64L102.76 328.77L105.69 330.96L108.73 333.19L111.88 335.46L115.15 337.76L118.53 340.1L122.03 342.47L125.63 344.85L129.33 347.26L133.15 349.68L137.07 352.1L141.09 354.53L145.22 356.95L149.44 359.37L153.77 361.78L158.19 364.18L162.71 366.55L167.33 368.89L172.04 371.21L176.84 373.49L181.73 375.74L186.71 377.94L191.78 380.09L196.94 382.18L202.19 384.22L207.52 386.2L212.93 388.11L218.42 389.94L223.99 391.7L229.64 393.38L235.37 394.97L241.18 396.47L247.05 397.87L253.01 399.17L259.03 400.37L265.13 401.46L271.29 402.43L277.52 403.29L283.82 404.01L283.27 403.81L282.73 403.6L282.2 403.39L281.66 403.18L281.13 402.96L280.59 402.74L280.06 402.52L279.54 402.29L279.01 402.06L278.48 401.83L277.96 401.59L277.44 401.35L276.92 401.11L276.41 400.87L275.89 400.62L275.38 400.36L274.87 400.11L274.36 399.85L273.85 399.59L273.35 399.33L272.85 399.06L272.35 398.79L271.85 398.52L271.35 398.24L270.86 397.96L270.37 397.68L269.88 397.4L269.39 397.11L268.9 396.82L268.42 396.53L267.93 396.23L267.45 395.93L266.98 395.63L266.5 395.33L266.03 395.02L265.56 394.71L265.09 394.4L264.62 394.09L264.15 393.77L263.69 393.45L261.93 392.21L260.2 390.93L258.51 389.61L256.84 388.25L255.21 386.86L253.61 385.42L252.05 383.95L250.53 382.44L249.04 380.9L247.58 379.32L246.17 377.71L244.79 376.07L243.45 374.39L242.15 372.68L240.89 370.93L239.67 369.16L238.49 367.36L237.36 365.53L236.26 363.67L235.22 361.78L234.21 359.86L233.25 357.92L232.34 355.95L231.47 353.96L230.65 351.94L229.88 349.9L229.16 347.84L228.49 345.75L227.86 343.65L227.29 341.52L226.77 339.37L226.3 337.2L225.88 335.01L225.51 332.81L225.2 330.59L224.95 328.35L224.75 326.09L224.61 323.82L224.52 321.54L224.49 319.24L224.54 316.28L224.68 313.35L224.91 310.45L225.24 307.57L225.65 304.72L226.15 301.9L226.74 299.11L227.41 296.36L228.17 293.63L229 290.95L229.92 288.3L230.92 285.69L232 283.12L233.15 280.6L234.38 278.11L235.68 275.67L237.05 273.28L238.49 270.93L240.01 268.63L241.59 266.39L243.23 264.19L244.94 262.05L246.72 259.96L248.55 257.93L250.45 255.95L252.41 254.04L254.42 252.18L256.49 250.39L258.62 248.65L260.79 246.99L263.02 245.39L265.3 243.86L267.63 242.39L270.01 241L272.43 239.68L274.9 238.43L277.41 237.26L279.96 236.16L282.55 235.14L285.18 234.2L278.39 234.95L271.67 235.84ZM349.41 236.16L351.96 237.26L354.47 238.43L356.94 239.68L359.36 241L361.74 242.39L364.06 243.86L366.34 245.39L368.57 246.99L370.75 248.66L372.88 250.39L374.95 252.18L376.96 254.04L378.92 255.95L380.81 257.93L382.65 259.96L384.42 262.05L386.14 264.19L387.78 266.39L389.36 268.63L390.87 270.93L392.32 273.28L393.69 275.67L394.99 278.11L396.22 280.6L397.37 283.12L398.45 285.69L399.45 288.3L400.36 290.95L401.2 293.64L401.96 296.36L402.63 299.11L403.22 301.9L403.72 304.72L404.13 307.57L404.46 310.45L404.69 313.35L404.83 316.28L404.88 319.24L404.83 322.15L404.69 325.04L404.47 327.9L404.15 330.74L403.74 333.55L403.25 336.34L402.68 339.09L402.02 341.81L401.27 344.5L400.45 347.16L399.55 349.78L398.57 352.36L397.52 354.9L396.39 357.41L395.18 359.87L393.91 362.29L392.56 364.66L391.15 366.99L389.66 369.28L388.12 371.51L386.5 373.7L384.82 375.83L383.08 377.91L381.28 379.94L379.42 381.91L377.51 383.82L375.53 385.68L373.5 387.47L371.42 389.21L369.29 390.88L367.1 392.49L364.86 394.03L362.58 395.51L360.25 396.91L357.88 398.25L355.46 399.52L353 400.71L350.5 401.83L347.95 402.87L345.38 403.84L346.53 403.72L347.69 403.6L348.84 403.48L349.99 403.35L351.13 403.21L352.28 403.07L353.42 402.93L354.56 402.78L355.7 402.63L356.83 402.48L357.96 402.32L359.09 402.15L360.22 401.99L361.35 401.81L362.47 401.64L363.59 401.46L364.71 401.28L365.82 401.09L366.94 400.9L368.05 400.71L369.16 400.51L370.26 400.31L371.37 400.1L372.47 399.89L373.57 399.68L374.67 399.46L375.76 399.24L376.85 399.02L377.94 398.79L379.03 398.56L380.11 398.33L381.2 398.09L382.28 397.85L383.35 397.61L384.43 397.36L385.5 397.11L386.57 396.86L387.64 396.6L388.71 396.34L389.77 396.08L394.91 394.74L399.99 393.33L405 391.85L409.96 390.31L414.85 388.7L419.67 387.04L424.43 385.32L429.13 383.56L433.76 381.74L438.32 379.88L442.81 377.97L447.23 376.03L451.58 374.05L455.86 372.04L460.07 370.01L464.2 367.94L468.25 365.86L472.24 363.75L476.14 361.63L479.97 359.5L483.72 357.36L487.39 355.21L490.98 353.06L494.48 350.91L497.91 348.76L501.25 346.62L504.51 344.5L507.68 342.38L510.77 340.28L513.77 338.21L516.68 336.15L519.5 334.13L522.23 332.13L524.87 330.16L527.42 328.24L529.87 326.35L532.23 324.51L534.5 322.71L536.67 320.96L538.75 319.26L538.6 319.14L538.44 319.01L538.29 318.89L538.14 318.76L537.99 318.63L537.83 318.51L537.68 318.38L537.52 318.25L537.37 318.12L537.21 317.99L537.06 317.87L536.9 317.74L536.74 317.61L536.59 317.48L536.43 317.35L536.27 317.22L536.11 317.09L535.95 316.96L535.79 316.83L535.63 316.7L535.47 316.57L535.31 316.44L535.15 316.31L534.99 316.18L534.82 316.05L534.66 315.91L534.5 315.78L534.33 315.65L534.17 315.52L534 315.39L533.84 315.25L533.67 315.12L533.5 314.99L533.34 314.85L533.17 314.72L533 314.58L532.84 314.45L532.67 314.32L532.5 314.18L532.33 314.05L529.64 311.95L526.83 309.79L523.9 307.59L520.85 305.34L517.69 303.04L514.41 300.71L511.01 298.35L507.5 295.96L503.88 293.55L500.15 291.12L496.31 288.68L492.36 286.23L488.3 283.78L484.15 281.33L479.88 278.88L475.52 276.45L471.06 274.04L466.5 271.64L461.84 269.27L457.08 266.94L452.24 264.64L447.3 262.38L442.26 260.16L437.14 258L431.93 255.89L426.63 253.84L421.25 251.86L415.79 249.95L410.24 248.11L404.61 246.35L398.9 244.67L393.11 243.09L387.25 241.6L381.31 240.2L375.3 238.92L369.21 237.74L363.06 236.67L356.83 235.72L350.54 234.9L344.18 234.2L346.81 235.14L349.41 236.16ZM339.81 269.66L338.5 269.82L337.21 270.04L335.93 270.32L334.68 270.65L333.46 271.04L332.26 271.49L331.09 271.99L329.95 272.54L328.83 273.14L327.75 273.79L326.7 274.48L325.69 275.23L324.71 276.01L323.76 276.84L322.86 277.71L322 278.62L321.18 279.57L320.4 280.56L319.66 281.58L318.97 282.64L318.33 283.73L317.73 284.85L317.19 286L316.7 287.17L316.26 288.38L315.87 289.61L315.54 290.86L315.27 292.14L315.05 293.43L314.9 294.75L314.8 296.08L314.77 297.43L314.8 298.78L314.9 300.11L315.05 301.42L315.27 302.72L315.54 303.99L315.87 305.24L316.26 306.46L316.7 307.66L317.19 308.84L317.73 309.98L318.33 311.09L318.97 312.17L319.66 313.22L320.4 314.24L321.18 315.22L322 316.16L322.86 317.06L323.77 317.93L324.71 318.75L325.69 319.53L326.7 320.26L327.75 320.95L328.83 321.6L329.95 322.19L331.09 322.73L332.26 323.23L333.46 323.67L334.69 324.05L335.93 324.38L337.21 324.66L338.5 324.87L339.81 325.03L341.15 325.12L342.5 325.16L343.85 325.12L345.18 325.03L346.49 324.87L347.79 324.66L349.06 324.38L350.32 324.05L351.55 323.67L352.75 323.23L353.93 322.73L355.08 322.19L356.2 321.6L357.29 320.95L358.34 320.26L359.36 319.53L360.35 318.75L361.3 317.93L362.21 317.06L363.08 316.16L363.91 315.22L364.7 314.24L365.44 313.22L366.14 312.17L366.79 311.09L367.39 309.98L367.94 308.84L368.44 307.66L368.88 306.46L369.27 305.24L369.61 303.99L369.89 302.72L370.1 301.42L370.26 300.11L370.36 298.78L370.39 297.43L370.36 296.08L370.26 294.75L370.1 293.43L369.89 292.14L369.61 290.86L369.27 289.61L368.88 288.38L368.44 287.17L367.94 286L367.39 284.85L366.79 283.73L366.14 282.64L365.44 281.58L364.7 280.56L363.91 279.57L363.08 278.62L362.21 277.71L361.3 276.84L360.35 276.01L359.36 275.23L358.34 274.48L357.29 273.79L356.2 273.14L355.08 272.54L353.93 271.99L352.75 271.49L351.55 271.04L350.32 270.65L349.07 270.32L347.79 270.04L346.49 269.82L345.18 269.66L343.85 269.57L342.5 269.53L341.15 269.57L339.81 269.66Z" id="h1x0Tp2KDa"></path><path d="M445.07 319.19L445.59 319.24L446.11 319.3L446.63 319.38L447.14 319.48L447.65 319.6L448.16 319.74L448.66 319.89L449.15 320.07L449.64 320.26L450.12 320.47L450.6 320.7L451.07 320.94L451.52 321.2L451.97 321.48L452.41 321.78L452.85 322.09L453.27 322.42L453.68 322.77L454.08 323.13L454.46 323.51L454.84 323.91L455.2 324.32L455.54 324.75L455.88 325.2L468.71 343.03L468.94 343.34L469.17 343.65L469.42 343.94L469.67 344.23L469.92 344.52L470.19 344.79L470.45 345.06L470.73 345.32L471.01 345.57L471.3 345.82L471.59 346.06L471.89 346.29L472.19 346.51L472.5 346.73L472.81 346.94L473.13 347.14L473.46 347.33L473.78 347.51L474.12 347.69L474.45 347.85L474.79 348.01L475.13 348.16L475.48 348.3L475.83 348.43L476.19 348.55L476.54 348.66L476.9 348.76L477.27 348.86L477.63 348.94L478 349.02L478.37 349.08L478.75 349.14L479.12 349.18L479.5 349.22L479.87 349.24L480.25 349.26L480.64 349.26L481.02 349.26L481.4 349.24L481.78 349.21L481.98 349.19L482.18 349.18L482.39 349.16L482.59 349.15L482.79 349.13L482.99 349.12L483.19 349.1L483.39 349.09L483.59 349.07L483.79 349.06L483.99 349.05L484.19 349.03L484.4 349.02L484.6 349.01L484.8 349L485 348.99L485.2 348.98L485.41 348.97L485.61 348.96L485.81 348.95L486.01 348.94L486.22 348.93L486.42 348.93L486.62 348.92L486.82 348.91L487.03 348.91L487.23 348.9L487.43 348.9L487.64 348.89L487.84 348.89L488.04 348.88L488.25 348.88L488.45 348.87L488.66 348.87L488.86 348.87L489.06 348.87L489.27 348.87L489.47 348.86L489.68 348.86L489.88 348.86L490.09 348.86L490.29 348.86L490.49 348.87L490.7 348.87L490.9 348.87L491.11 348.87L491.31 348.87L491.51 348.88L491.72 348.88L491.92 348.89L492.12 348.89L492.33 348.9L492.53 348.9L492.73 348.91L492.94 348.91L493.14 348.92L493.34 348.93L493.55 348.93L493.75 348.94L493.95 348.95L494.15 348.96L494.36 348.97L494.56 348.98L494.76 348.99L494.96 349L495.16 349.01L495.36 349.02L495.57 349.03L495.77 349.05L495.97 349.06L496.17 349.07L496.37 349.09L496.57 349.1L496.77 349.12L496.97 349.13L497.18 349.15L497.38 349.16L497.58 349.18L497.78 349.19L497.98 349.21L498.36 349.24L498.74 349.26L499.13 349.26L499.51 349.26L499.89 349.24L500.26 349.22L500.64 349.18L501.02 349.14L501.39 349.08L501.76 349.02L502.13 348.94L502.49 348.86L502.86 348.76L503.22 348.66L503.57 348.55L503.93 348.43L504.28 348.3L504.63 348.16L504.97 348.01L505.31 347.85L505.65 347.69L505.98 347.51L506.3 347.33L506.63 347.14L506.95 346.94L507.26 346.73L507.57 346.51L507.87 346.29L508.17 346.06L508.46 345.82L508.75 345.57L509.03 345.32L509.31 345.06L509.57 344.79L509.84 344.52L510.09 344.23L510.34 343.94L510.59 343.65L510.82 343.34L511.05 343.03L523.88 325.2L524.21 324.75L524.56 324.32L524.92 323.91L525.3 323.51L525.68 323.13L526.08 322.77L526.49 322.42L526.91 322.09L527.34 321.78L527.79 321.48L528.24 321.2L528.69 320.94L529.16 320.7L529.64 320.47L530.12 320.26L530.61 320.07L531.1 319.89L531.6 319.74L532.11 319.6L532.62 319.48L533.13 319.38L533.65 319.3L534.17 319.24L534.69 319.19L535.21 319.16L535.74 319.16L536.26 319.17L536.79 319.2L537.31 319.25L537.84 319.32L538.36 319.41L538.89 319.52L539.4 319.64L539.92 319.79L540.43 319.96L540.94 320.15L541.45 320.36L541.95 320.58L542.44 320.83L542.93 321.1L570.8 337.2L571.28 337.48L571.74 337.79L572.19 338.1L572.62 338.44L573.04 338.78L573.44 339.14L573.83 339.52L574.2 339.9L574.55 340.3L574.89 340.71L575.21 341.13L575.52 341.56L575.81 342L576.08 342.45L576.34 342.91L576.58 343.38L576.8 343.85L577 344.33L577.19 344.82L577.36 345.32L577.51 345.82L577.65 346.32L577.76 346.83L577.86 347.35L577.94 347.87L578 348.39L578.04 348.91L578.06 349.44L578.06 349.97L578.05 350.5L578.01 351.03L577.95 351.56L577.88 352.09L577.78 352.62L577.67 353.14L577.53 353.67L577.37 354.19L577.2 354.71L577 355.23L576.78 355.74L567.65 375.98L567.5 376.34L567.35 376.69L567.22 377.05L567.1 377.41L566.98 377.78L566.88 378.14L566.79 378.51L566.7 378.88L566.63 379.25L566.57 379.62L566.51 379.99L566.47 380.36L566.43 380.74L566.41 381.11L566.4 381.49L566.39 381.86L566.4 382.23L566.41 382.61L566.44 382.98L566.47 383.35L566.51 383.72L566.56 384.09L566.63 384.46L566.7 384.83L566.78 385.2L566.87 385.56L566.97 385.92L567.08 386.28L567.2 386.64L567.32 387L567.46 387.35L567.6 387.7L567.76 388.05L567.92 388.39L568.09 388.73L568.27 389.07L568.46 389.4L568.66 389.73L568.87 390.06L569.09 390.38L569.31 390.7L569.53 391.02L569.75 391.35L569.97 391.67L570.19 392L570.4 392.33L570.62 392.66L570.83 392.99L571.04 393.32L571.25 393.65L571.46 393.98L571.67 394.31L571.88 394.65L572.09 394.98L572.29 395.32L572.49 395.65L572.69 395.99L572.9 396.33L573.09 396.67L573.29 397.01L573.49 397.35L573.68 397.69L573.88 398.04L574.07 398.38L574.26 398.72L574.45 399.07L574.64 399.42L574.82 399.76L575.01 400.11L575.19 400.46L575.38 400.81L575.56 401.16L575.74 401.51L575.92 401.86L576.09 402.22L576.27 402.57L576.44 402.93L576.62 403.28L576.79 403.64L576.96 404L577.13 404.34L577.3 404.68L577.49 405.02L577.68 405.35L577.88 405.68L578.09 405.99L578.31 406.31L578.53 406.61L578.76 406.91L579 407.21L579.25 407.49L579.5 407.77L579.75 408.05L580.02 408.31L580.29 408.57L580.56 408.83L580.85 409.07L581.14 409.31L581.43 409.54L581.73 409.76L582.03 409.98L582.35 410.18L582.66 410.38L582.98 410.57L583.31 410.75L583.64 410.93L583.97 411.09L584.31 411.25L584.66 411.4L585.01 411.54L585.36 411.67L585.72 411.79L586.08 411.9L586.44 412L586.81 412.1L587.18 412.18L587.55 412.25L587.93 412.32L588.31 412.37L588.69 412.41L610.78 414.63L611.33 414.7L611.88 414.78L612.42 414.89L612.95 415.01L613.47 415.16L613.99 415.32L614.49 415.5L614.99 415.7L615.48 415.92L615.95 416.15L616.42 416.4L616.88 416.67L617.32 416.95L617.75 417.25L618.18 417.56L618.59 417.89L618.98 418.23L619.37 418.59L619.74 418.96L620.1 419.34L620.44 419.73L620.77 420.14L621.09 420.56L621.39 420.99L621.67 421.43L621.94 421.88L622.19 422.34L622.43 422.81L622.65 423.29L622.85 423.78L623.04 424.28L623.2 424.78L623.35 425.3L623.48 425.82L623.59 426.35L623.68 426.88L623.76 427.42L623.81 427.97L623.84 428.52L623.85 429.08L623.85 461.26L623.84 461.82L623.81 462.37L623.76 462.92L623.68 463.46L623.59 463.99L623.48 464.52L623.35 465.04L623.2 465.56L623.04 466.06L622.85 466.56L622.65 467.05L622.43 467.53L622.19 468L621.94 468.46L621.67 468.91L621.39 469.35L621.09 469.78L620.77 470.2L620.44 470.61L620.1 471L619.74 471.39L619.37 471.75L618.98 472.11L618.59 472.45L618.18 472.78L617.75 473.09L617.32 473.39L616.88 473.67L616.42 473.94L615.95 474.19L615.48 474.42L614.99 474.64L614.49 474.84L613.99 475.02L613.47 475.18L612.95 475.33L612.42 475.45L611.88 475.56L611.33 475.64L610.78 475.71L588.7 477.93L588.31 477.97L587.93 478.02L587.55 478.09L587.18 478.16L586.81 478.24L586.44 478.34L586.08 478.44L585.72 478.55L585.36 478.67L585.01 478.8L584.66 478.94L584.31 479.09L583.97 479.25L583.64 479.41L583.31 479.59L582.98 479.77L582.66 479.96L582.35 480.16L582.03 480.36L581.73 480.58L581.43 480.8L581.14 481.03L580.85 481.27L580.56 481.51L580.29 481.77L580.02 482.03L579.75 482.29L579.5 482.57L579.25 482.85L579 483.13L578.76 483.43L578.53 483.73L578.31 484.03L578.09 484.35L577.89 484.66L577.68 484.99L577.49 485.32L577.3 485.66L577.13 486L576.96 486.34L576.79 486.7L576.62 487.06L576.44 487.41L576.27 487.77L576.09 488.12L575.92 488.47L575.74 488.83L575.56 489.18L575.38 489.53L575.19 489.88L575.01 490.23L574.83 490.58L574.64 490.92L574.45 491.27L574.26 491.62L574.07 491.96L573.88 492.3L573.68 492.65L573.49 492.99L573.29 493.33L573.1 493.67L572.9 494.01L572.7 494.35L572.49 494.69L572.29 495.02L572.09 495.36L571.88 495.69L571.67 496.03L571.47 496.36L571.26 496.69L571.05 497.03L570.83 497.36L570.62 497.69L570.4 498.01L570.19 498.34L569.97 498.67L569.75 498.99L569.53 499.32L569.31 499.64L569.09 499.97L568.87 500.29L568.66 500.61L568.47 500.94L568.28 501.27L568.09 501.61L567.92 501.95L567.76 502.3L567.61 502.64L567.46 502.99L567.32 503.35L567.2 503.7L567.08 504.06L566.97 504.42L566.87 504.78L566.78 505.15L566.7 505.51L566.63 505.88L566.57 506.25L566.51 506.62L566.47 506.99L566.44 507.36L566.41 507.73L566.4 508.11L566.39 508.48L566.4 508.86L566.41 509.23L566.44 509.6L566.47 509.98L566.52 510.35L566.57 510.72L566.63 511.09L566.71 511.46L566.79 511.83L566.88 512.2L566.99 512.56L567.1 512.93L567.22 513.29L567.36 513.65L567.5 514.01L567.65 514.36L576.78 534.6L577 535.12L577.2 535.63L577.38 536.15L577.53 536.67L577.67 537.2L577.78 537.73L577.88 538.25L577.96 538.78L578.01 539.31L578.05 539.84L578.06 540.37L578.06 540.9L578.04 541.43L578 541.95L577.94 542.47L577.86 542.99L577.76 543.51L577.65 544.02L577.51 544.52L577.36 545.02L577.19 545.52L577.01 546.01L576.8 546.49L576.58 546.96L576.34 547.43L576.08 547.89L575.81 548.34L575.52 548.78L575.21 549.21L574.89 549.63L574.55 550.04L574.2 550.44L573.83 550.82L573.44 551.2L573.04 551.56L572.62 551.9L572.19 552.24L571.74 552.55L571.28 552.86L570.8 553.15L542.93 569.24L542.44 569.51L541.95 569.76L541.45 569.98L540.94 570.19L540.44 570.38L539.92 570.55L539.41 570.7L538.89 570.82L538.36 570.93L537.84 571.02L537.32 571.09L536.79 571.14L536.26 571.17L535.74 571.18L535.21 571.18L534.69 571.15L534.17 571.1L533.65 571.04L533.13 570.96L532.62 570.86L532.11 570.74L531.6 570.6L531.1 570.45L530.61 570.27L530.12 570.08L529.64 569.87L529.16 569.64L528.7 569.4L528.24 569.14L527.79 568.86L527.35 568.56L526.91 568.25L526.49 567.92L526.08 567.57L525.69 567.21L525.3 566.83L524.92 566.43L524.56 566.02L524.22 565.59L523.88 565.14L511.05 547.31L510.82 547L510.59 546.7L510.34 546.4L510.1 546.11L509.84 545.83L509.58 545.55L509.31 545.28L509.03 545.02L508.75 544.77L508.46 544.52L508.17 544.28L507.87 544.05L507.57 543.83L507.26 543.61L506.95 543.41L506.63 543.21L506.31 543.02L505.98 542.83L505.65 542.66L505.31 542.49L504.97 542.33L504.63 542.19L504.28 542.05L503.93 541.92L503.57 541.79L503.22 541.68L502.86 541.58L502.49 541.48L502.13 541.4L501.76 541.33L501.39 541.26L501.02 541.21L500.64 541.16L500.27 541.13L499.89 541.1L499.51 541.09L499.13 541.08L498.74 541.09L498.36 541.11L497.98 541.13L497.78 541.15L497.58 541.17L497.38 541.18L497.18 541.2L496.98 541.21L496.77 541.23L496.57 541.24L496.37 541.26L496.17 541.27L495.97 541.28L495.77 541.3L495.57 541.31L495.37 541.32L495.16 541.33L494.96 541.34L494.76 541.35L494.56 541.36L494.36 541.37L494.15 541.38L493.95 541.39L493.75 541.4L493.55 541.41L493.34 541.42L493.14 541.42L492.94 541.43L492.74 541.44L492.53 541.44L492.33 541.45L492.13 541.45L491.92 541.46L491.72 541.46L491.52 541.47L491.31 541.47L491.11 541.47L490.9 541.48L490.7 541.48L490.5 541.48L490.29 541.48L490.09 541.48L489.88 541.48L489.68 541.48L489.47 541.48L489.27 541.48L489.06 541.48L488.86 541.48L488.66 541.47L488.45 541.47L488.25 541.47L488.05 541.46L487.84 541.46L487.64 541.45L487.43 541.45L487.23 541.44L487.03 541.44L486.82 541.43L486.62 541.42L486.42 541.42L486.22 541.41L486.01 541.4L485.81 541.39L485.61 541.38L485.41 541.37L485.2 541.36L485 541.35L484.8 541.34L484.6 541.33L484.4 541.32L484.2 541.31L483.99 541.3L483.79 541.28L483.59 541.27L483.39 541.26L483.19 541.24L482.99 541.23L482.79 541.21L482.59 541.2L482.39 541.18L482.19 541.17L481.99 541.15L481.79 541.13L481.4 541.11L481.02 541.09L480.64 541.08L480.26 541.09L479.88 541.1L479.5 541.13L479.12 541.16L478.75 541.21L478.37 541.26L478 541.33L477.63 541.4L477.27 541.48L476.91 541.58L476.55 541.68L476.19 541.79L475.83 541.92L475.48 542.05L475.14 542.19L474.79 542.33L474.45 542.49L474.12 542.66L473.78 542.83L473.46 543.02L473.13 543.21L472.82 543.41L472.5 543.61L472.19 543.83L471.89 544.05L471.59 544.28L471.3 544.52L471.01 544.77L470.73 545.02L470.46 545.28L470.19 545.55L469.92 545.83L469.67 546.11L469.42 546.4L469.17 546.7L468.94 547L468.71 547.31L455.88 565.14L455.55 565.59L455.2 566.02L454.84 566.43L454.46 566.83L454.08 567.21L453.68 567.57L453.27 567.92L452.85 568.25L452.42 568.56L451.97 568.86L451.52 569.14L451.07 569.4L450.6 569.64L450.12 569.87L449.64 570.08L449.15 570.27L448.66 570.45L448.16 570.6L447.65 570.74L447.15 570.86L446.63 570.96L446.11 571.04L445.6 571.1L445.07 571.15L444.55 571.18L444.02 571.18L443.5 571.17L442.97 571.14L442.45 571.09L441.92 571.02L441.4 570.93L440.88 570.82L440.36 570.7L439.84 570.55L439.33 570.38L438.82 570.19L438.31 569.98L437.81 569.76L437.32 569.51L436.83 569.24L408.96 553.15L408.48 552.86L408.02 552.55L407.57 552.24L407.14 551.9L406.72 551.56L406.32 551.2L405.94 550.82L405.57 550.44L405.21 550.04L404.87 549.63L404.55 549.21L404.24 548.78L403.95 548.34L403.68 547.89L403.42 547.43L403.18 546.96L402.96 546.49L402.76 546.01L402.57 545.52L402.4 545.02L402.25 544.52L402.12 544.02L402 543.51L401.9 542.99L401.83 542.47L401.77 541.95L401.72 541.43L401.7 540.9L401.7 540.37L401.72 539.84L401.75 539.31L401.81 538.78L401.88 538.25L401.98 537.73L402.1 537.2L402.23 536.67L402.39 536.15L402.57 535.63L402.76 535.12L402.98 534.6L412.11 514.36L412.26 514.01L412.41 513.65L412.54 513.29L412.66 512.93L412.78 512.56L412.88 512.2L412.97 511.83L413.06 511.46L413.13 511.09L413.19 510.72L413.25 510.35L413.29 509.98L413.33 509.6L413.35 509.23L413.36 508.86L413.37 508.48L413.36 508.11L413.35 507.73L413.33 507.36L413.29 506.99L413.25 506.62L413.2 506.25L413.13 505.88L413.06 505.51L412.98 505.15L412.89 504.78L412.79 504.42L412.68 504.06L412.57 503.7L412.44 503.35L412.3 502.99L412.16 502.64L412 502.3L411.84 501.95L411.67 501.61L411.49 501.27L411.3 500.94L411.1 500.61L410.89 500.29L410.68 499.97L410.45 499.64L410.23 499.32L410.01 498.99L409.79 498.67L409.57 498.34L409.36 498.01L409.14 497.69L408.93 497.36L408.72 497.03L408.51 496.69L408.3 496.36L408.09 496.03L407.88 495.69L407.68 495.36L407.47 495.02L407.27 494.69L407.07 494.35L406.87 494.01L406.67 493.67L406.47 493.33L406.27 492.99L406.08 492.65L405.88 492.3L405.69 491.96L405.5 491.62L405.31 491.27L405.12 490.92L404.94 490.58L404.75 490.23L404.57 489.88L404.39 489.53L404.2 489.18L404.02 488.83L403.85 488.48L403.67 488.12L403.49 487.77L403.32 487.41L403.15 487.06L402.98 486.7L402.81 486.34L402.64 486L402.46 485.66L402.27 485.32L402.08 484.99L401.88 484.66L401.67 484.35L401.45 484.03L401.23 483.73L401 483.43L400.76 483.13L400.52 482.85L400.27 482.57L400.01 482.29L399.74 482.03L399.47 481.77L399.2 481.51L398.92 481.27L398.63 481.03L398.33 480.8L398.03 480.58L397.73 480.36L397.42 480.16L397.1 479.96L396.78 479.77L396.45 479.59L396.12 479.41L395.79 479.25L395.45 479.09L395.1 478.94L394.76 478.8L394.4 478.67L394.05 478.55L393.69 478.44L393.32 478.34L392.95 478.24L392.58 478.16L392.21 478.09L391.83 478.02L391.45 477.97L391.07 477.93L368.98 475.71L368.43 475.64L367.88 475.56L367.34 475.45L366.81 475.33L366.29 475.18L365.78 475.02L365.27 474.84L364.77 474.64L364.29 474.42L363.81 474.19L363.34 473.94L362.89 473.67L362.44 473.39L362.01 473.09L361.59 472.78L361.18 472.45L360.78 472.11L360.39 471.75L360.02 471.39L359.66 471L359.32 470.61L358.99 470.2L358.67 469.78L358.37 469.35L358.09 468.91L357.82 468.46L357.57 468L357.33 467.53L357.11 467.05L356.91 466.56L356.72 466.06L356.56 465.56L356.41 465.04L356.28 464.52L356.17 463.99L356.08 463.46L356 462.92L355.95 462.37L355.92 461.82L355.91 461.26L355.91 429.08L355.92 428.52L355.95 427.97L356 427.42L356.08 426.88L356.17 426.35L356.28 425.82L356.41 425.3L356.56 424.78L356.72 424.28L356.91 423.78L357.11 423.29L357.33 422.81L357.57 422.34L357.82 421.88L358.09 421.43L358.37 420.99L358.67 420.56L358.99 420.14L359.32 419.73L359.66 419.34L360.02 418.96L360.39 418.59L360.78 418.23L361.18 417.89L361.59 417.56L362.01 417.25L362.44 416.95L362.89 416.67L363.34 416.4L363.81 416.15L364.29 415.92L364.77 415.7L365.27 415.5L365.78 415.32L366.29 415.16L366.81 415.01L367.34 414.89L367.88 414.78L368.43 414.7L368.98 414.63L391.07 412.41L391.45 412.37L391.83 412.32L392.21 412.25L392.58 412.18L392.95 412.09L393.32 412L393.69 411.9L394.05 411.79L394.4 411.67L394.76 411.54L395.1 411.4L395.45 411.25L395.79 411.09L396.12 410.93L396.45 410.75L396.78 410.57L397.1 410.38L397.42 410.18L397.73 409.97L398.03 409.76L398.33 409.54L398.63 409.31L398.92 409.07L399.2 408.83L399.47 408.57L399.74 408.31L400.01 408.05L400.27 407.77L400.52 407.49L400.76 407.21L401 406.91L401.23 406.61L401.45 406.31L401.67 405.99L401.88 405.67L402.08 405.35L402.27 405.02L402.46 404.68L402.64 404.34L402.81 404L402.98 403.64L403.15 403.28L403.32 402.93L403.49 402.57L403.67 402.22L403.85 401.86L404.02 401.51L404.2 401.16L404.39 400.81L404.57 400.46L404.75 400.11L404.94 399.76L405.12 399.42L405.31 399.07L405.5 398.72L405.69 398.38L405.88 398.04L406.08 397.69L406.27 397.35L406.47 397.01L406.67 396.67L406.87 396.33L407.07 395.99L407.27 395.65L407.47 395.32L407.68 394.98L407.88 394.65L408.09 394.31L408.3 393.98L408.51 393.65L408.72 393.32L408.93 392.99L409.14 392.66L409.36 392.33L409.57 392L409.79 391.67L410.01 391.35L410.23 391.02L410.45 390.7L410.68 390.38L410.89 390.06L411.1 389.73L411.3 389.4L411.49 389.07L411.67 388.73L411.84 388.39L412 388.05L412.16 387.7L412.3 387.35L412.44 387L412.57 386.64L412.68 386.28L412.79 385.92L412.89 385.56L412.98 385.2L413.06 384.83L413.13 384.46L413.2 384.09L413.25 383.72L413.29 383.35L413.33 382.98L413.35 382.61L413.36 382.23L413.37 381.86L413.36 381.48L413.35 381.11L413.33 380.74L413.29 380.36L413.25 379.99L413.19 379.62L413.13 379.25L413.06 378.88L412.97 378.51L412.88 378.14L412.78 377.78L412.66 377.41L412.54 377.05L412.41 376.69L412.26 376.34L412.11 375.98L402.98 355.74L402.76 355.23L402.57 354.71L402.39 354.19L402.23 353.67L402.1 353.14L401.98 352.62L401.88 352.09L401.81 351.56L401.75 351.03L401.72 350.5L401.7 349.97L401.7 349.44L401.72 348.91L401.77 348.39L401.83 347.87L401.9 347.35L402 346.83L402.12 346.32L402.25 345.82L402.4 345.32L402.57 344.82L402.76 344.33L402.96 343.85L403.18 343.38L403.42 342.91L403.68 342.45L403.95 342L404.24 341.56L404.55 341.13L404.87 340.71L405.21 340.3L405.56 339.9L405.94 339.52L406.32 339.14L406.72 338.78L407.14 338.44L407.57 338.1L408.02 337.79L408.48 337.48L408.96 337.19L436.83 321.1L437.32 320.83L437.81 320.58L438.31 320.36L438.82 320.15L439.33 319.96L439.84 319.79L440.36 319.64L440.87 319.52L441.4 319.41L441.92 319.32L442.45 319.25L442.97 319.2L443.5 319.17L444.02 319.16L444.55 319.16L445.07 319.19ZM486.03 398.23L484.13 398.42L482.25 398.69L480.4 399.03L478.58 399.44L476.78 399.93L475.01 400.48L473.27 401.09L471.57 401.78L469.89 402.53L468.26 403.34L466.65 404.21L465.09 405.14L463.57 406.13L462.08 407.17L460.64 408.27L459.25 409.42L457.9 410.63L456.59 411.88L455.34 413.19L454.14 414.54L452.98 415.93L451.88 417.37L450.84 418.85L449.85 420.38L448.92 421.94L448.05 423.54L447.24 425.18L446.49 426.85L445.81 428.56L445.19 430.3L444.64 432.07L444.15 433.87L443.74 435.69L443.4 437.54L443.13 439.42L442.94 441.31L442.82 443.23L442.78 445.17L442.82 447.11L442.94 449.03L443.13 450.92L443.4 452.8L443.74 454.65L444.15 456.47L444.64 458.27L445.19 460.04L445.81 461.78L446.49 463.49L447.24 465.16L448.05 466.8L448.92 468.4L449.85 469.96L450.84 471.49L451.88 472.97L452.98 474.41L454.14 475.8L455.34 477.15L456.59 478.46L457.9 479.71L459.25 480.92L460.64 482.07L462.08 483.17L463.57 484.21L465.09 485.2L466.65 486.13L468.26 487L469.89 487.81L471.57 488.56L473.27 489.24L475.01 489.86L476.78 490.41L478.58 490.9L480.4 491.31L482.25 491.65L484.13 491.92L486.03 492.11L487.94 492.23L489.88 492.27L491.82 492.23L493.74 492.11L495.64 491.92L497.51 491.65L499.36 491.31L501.19 490.9L502.98 490.41L504.75 489.86L506.49 489.24L508.2 488.56L509.87 487.81L511.51 487L513.11 486.13L514.67 485.2L516.2 484.21L517.68 483.17L519.12 482.07L520.52 480.92L521.87 479.71L523.17 478.46L524.42 477.15L525.63 475.8L526.78 474.41L527.88 472.97L528.93 471.49L529.91 469.96L530.84 468.4L531.72 466.8L532.53 465.16L533.27 463.49L533.96 461.78L534.58 460.04L535.13 458.27L535.61 456.47L536.02 454.65L536.36 452.8L536.63 450.92L536.82 449.03L536.94 447.11L536.98 445.17L536.94 443.23L536.82 441.31L536.63 439.42L536.36 437.54L536.02 435.69L535.61 433.87L535.13 432.07L534.58 430.3L533.96 428.56L533.27 426.85L532.53 425.18L531.72 423.54L530.84 421.94L529.91 420.38L528.93 418.85L527.88 417.37L526.78 415.93L525.63 414.54L524.42 413.19L523.17 411.88L521.87 410.63L520.52 409.42L519.12 408.27L517.68 407.17L516.2 406.13L514.67 405.14L513.11 404.21L511.51 403.34L509.87 402.53L508.2 401.78L506.49 401.09L504.75 400.48L502.98 399.93L501.19 399.44L499.36 399.03L497.51 398.69L495.64 398.42L493.74 398.23L491.82 398.11L489.88 398.07L487.94 398.11L486.03 398.23Z" id="cqOFqtBgK"></path><path d="M459.53 445.17C459.53 461.91 473.14 475.52 489.88 475.52C506.62 475.52 520.23 461.91 520.23 445.17C520.23 428.44 506.62 414.82 489.88 414.82C473.14 414.82 459.53 428.44 459.53 445.17Z" id="c22l8Ao72C"></path></defs><g><g><g><use xlink:href="#h1x0Tp2KDa" opacity="1" fill="#4b4b4b" fill-opacity="1"></use><g><use xlink:href="#h1x0Tp2KDa" opacity="1" fill-opacity="0" stroke="#000000" stroke-width="1" stroke-opacity="0"></use></g></g><g><g><filter id="shadow3174132" x="339.91" y="303.16" width="307.94" height="290.03" filterUnits="userSpaceOnUse" primitiveUnits="userSpaceOnUse"><feFlood></feFlood><feComposite in2="SourceAlpha" operator="in"></feComposite><feGaussianBlur stdDeviation="1"></feGaussianBlur><feOffset dx="-8" dy="-6" result="afterOffset"></feOffset><feFlood flood-color="#ffffff" flood-opacity="0.5"></feFlood><feComposite in2="afterOffset" operator="in"></feComposite><feMorphology operator="dilate" radius="1"></feMorphology><feComposite in2="SourceAlpha" operator="out"></feComposite></filter><path d="M445.07 319.19L445.59 319.24L446.11 319.3L446.63 319.38L447.14 319.48L447.65 319.6L448.16 319.74L448.66 319.89L449.15 320.07L449.64 320.26L450.12 320.47L450.6 320.7L451.07 320.94L451.52 321.2L451.97 321.48L452.41 321.78L452.85 322.09L453.27 322.42L453.68 322.77L454.08 323.13L454.46 323.51L454.84 323.91L455.2 324.32L455.54 324.75L455.88 325.2L468.71 343.03L468.94 343.34L469.17 343.65L469.42 343.94L469.67 344.23L469.92 344.52L470.19 344.79L470.45 345.06L470.73 345.32L471.01 345.57L471.3 345.82L471.59 346.06L471.89 346.29L472.19 346.51L472.5 346.73L472.81 346.94L473.13 347.14L473.46 347.33L473.78 347.51L474.12 347.69L474.45 347.85L474.79 348.01L475.13 348.16L475.48 348.3L475.83 348.43L476.19 348.55L476.54 348.66L476.9 348.76L477.27 348.86L477.63 348.94L478 349.02L478.37 349.08L478.75 349.14L479.12 349.18L479.5 349.22L479.87 349.24L480.25 349.26L480.64 349.26L481.02 349.26L481.4 349.24L481.78 349.21L481.98 349.19L482.18 349.18L482.39 349.16L482.59 349.15L482.79 349.13L482.99 349.12L483.19 349.1L483.39 349.09L483.59 349.07L483.79 349.06L483.99 349.05L484.19 349.03L484.4 349.02L484.6 349.01L484.8 349L485 348.99L485.2 348.98L485.41 348.97L485.61 348.96L485.81 348.95L486.01 348.94L486.22 348.93L486.42 348.93L486.62 348.92L486.82 348.91L487.03 348.91L487.23 348.9L487.43 348.9L487.64 348.89L487.84 348.89L488.04 348.88L488.25 348.88L488.45 348.87L488.66 348.87L488.86 348.87L489.06 348.87L489.27 348.87L489.47 348.86L489.68 348.86L489.88 348.86L490.09 348.86L490.29 348.86L490.49 348.87L490.7 348.87L490.9 348.87L491.11 348.87L491.31 348.87L491.51 348.88L491.72 348.88L491.92 348.89L492.12 348.89L492.33 348.9L492.53 348.9L492.73 348.91L492.94 348.91L493.14 348.92L493.34 348.93L493.55 348.93L493.75 348.94L493.95 348.95L494.15 348.96L494.36 348.97L494.56 348.98L494.76 348.99L494.96 349L495.16 349.01L495.36 349.02L495.57 349.03L495.77 349.05L495.97 349.06L496.17 349.07L496.37 349.09L496.57 349.1L496.77 349.12L496.97 349.13L497.18 349.15L497.38 349.16L497.58 349.18L497.78 349.19L497.98 349.21L498.36 349.24L498.74 349.26L499.13 349.26L499.51 349.26L499.89 349.24L500.26 349.22L500.64 349.18L501.02 349.14L501.39 349.08L501.76 349.02L502.13 348.94L502.49 348.86L502.86 348.76L503.22 348.66L503.57 348.55L503.93 348.43L504.28 348.3L504.63 348.16L504.97 348.01L505.31 347.85L505.65 347.69L505.98 347.51L506.3 347.33L506.63 347.14L506.95 346.94L507.26 346.73L507.57 346.51L507.87 346.29L508.17 346.06L508.46 345.82L508.75 345.57L509.03 345.32L509.31 345.06L509.57 344.79L509.84 344.52L510.09 344.23L510.34 343.94L510.59 343.65L510.82 343.34L511.05 343.03L523.88 325.2L524.21 324.75L524.56 324.32L524.92 323.91L525.3 323.51L525.68 323.13L526.08 322.77L526.49 322.42L526.91 322.09L527.34 321.78L527.79 321.48L528.24 321.2L528.69 320.94L529.16 320.7L529.64 320.47L530.12 320.26L530.61 320.07L531.1 319.89L531.6 319.74L532.11 319.6L532.62 319.48L533.13 319.38L533.65 319.3L534.17 319.24L534.69 319.19L535.21 319.16L535.74 319.16L536.26 319.17L536.79 319.2L537.31 319.25L537.84 319.32L538.36 319.41L538.89 319.52L539.4 319.64L539.92 319.79L540.43 319.96L540.94 320.15L541.45 320.36L541.95 320.58L542.44 320.83L542.93 321.1L570.8 337.2L571.28 337.48L571.74 337.79L572.19 338.1L572.62 338.44L573.04 338.78L573.44 339.14L573.83 339.52L574.2 339.9L574.55 340.3L574.89 340.71L575.21 341.13L575.52 341.56L575.81 342L576.08 342.45L576.34 342.91L576.58 343.38L576.8 343.85L577 344.33L577.19 344.82L577.36 345.32L577.51 345.82L577.65 346.32L577.76 346.83L577.86 347.35L577.94 347.87L578 348.39L578.04 348.91L578.06 349.44L578.06 349.97L578.05 350.5L578.01 351.03L577.95 351.56L577.88 352.09L577.78 352.62L577.67 353.14L577.53 353.67L577.37 354.19L577.2 354.71L577 355.23L576.78 355.74L567.65 375.98L567.5 376.34L567.35 376.69L567.22 377.05L567.1 377.41L566.98 377.78L566.88 378.14L566.79 378.51L566.7 378.88L566.63 379.25L566.57 379.62L566.51 379.99L566.47 380.36L566.43 380.74L566.41 381.11L566.4 381.49L566.39 381.86L566.4 382.23L566.41 382.61L566.44 382.98L566.47 383.35L566.51 383.72L566.56 384.09L566.63 384.46L566.7 384.83L566.78 385.2L566.87 385.56L566.97 385.92L567.08 386.28L567.2 386.64L567.32 387L567.46 387.35L567.6 387.7L567.76 388.05L567.92 388.39L568.09 388.73L568.27 389.07L568.46 389.4L568.66 389.73L568.87 390.06L569.09 390.38L569.31 390.7L569.53 391.02L569.75 391.35L569.97 391.67L570.19 392L570.4 392.33L570.62 392.66L570.83 392.99L571.04 393.32L571.25 393.65L571.46 393.98L571.67 394.31L571.88 394.65L572.09 394.98L572.29 395.32L572.49 395.65L572.69 395.99L572.9 396.33L573.09 396.67L573.29 397.01L573.49 397.35L573.68 397.69L573.88 398.04L574.07 398.38L574.26 398.72L574.45 399.07L574.64 399.42L574.82 399.76L575.01 400.11L575.19 400.46L575.38 400.81L575.56 401.16L575.74 401.51L575.92 401.86L576.09 402.22L576.27 402.57L576.44 402.93L576.62 403.28L576.79 403.64L576.96 404L577.13 404.34L577.3 404.68L577.49 405.02L577.68 405.35L577.88 405.68L578.09 405.99L578.31 406.31L578.53 406.61L578.76 406.91L579 407.21L579.25 407.49L579.5 407.77L579.75 408.05L580.02 408.31L580.29 408.57L580.56 408.83L580.85 409.07L581.14 409.31L581.43 409.54L581.73 409.76L582.03 409.98L582.35 410.18L582.66 410.38L582.98 410.57L583.31 410.75L583.64 410.93L583.97 411.09L584.31 411.25L584.66 411.4L585.01 411.54L585.36 411.67L585.72 411.79L586.08 411.9L586.44 412L586.81 412.1L587.18 412.18L587.55 412.25L587.93 412.32L588.31 412.37L588.69 412.41L610.78 414.63L611.33 414.7L611.88 414.78L612.42 414.89L612.95 415.01L613.47 415.16L613.99 415.32L614.49 415.5L614.99 415.7L615.48 415.92L615.95 416.15L616.42 416.4L616.88 416.67L617.32 416.95L617.75 417.25L618.18 417.56L618.59 417.89L618.98 418.23L619.37 418.59L619.74 418.96L620.1 419.34L620.44 419.73L620.77 420.14L621.09 420.56L621.39 420.99L621.67 421.43L621.94 421.88L622.19 422.34L622.43 422.81L622.65 423.29L622.85 423.78L623.04 424.28L623.2 424.78L623.35 425.3L623.48 425.82L623.59 426.35L623.68 426.88L623.76 427.42L623.81 427.97L623.84 428.52L623.85 429.08L623.85 461.26L623.84 461.82L623.81 462.37L623.76 462.92L623.68 463.46L623.59 463.99L623.48 464.52L623.35 465.04L623.2 465.56L623.04 466.06L622.85 466.56L622.65 467.05L622.43 467.53L622.19 468L621.94 468.46L621.67 468.91L621.39 469.35L621.09 469.78L620.77 470.2L620.44 470.61L620.1 471L619.74 471.39L619.37 471.75L618.98 472.11L618.59 472.45L618.18 472.78L617.75 473.09L617.32 473.39L616.88 473.67L616.42 473.94L615.95 474.19L615.48 474.42L614.99 474.64L614.49 474.84L613.99 475.02L613.47 475.18L612.95 475.33L612.42 475.45L611.88 475.56L611.33 475.64L610.78 475.71L588.7 477.93L588.31 477.97L587.93 478.02L587.55 478.09L587.18 478.16L586.81 478.24L586.44 478.34L586.08 478.44L585.72 478.55L585.36 478.67L585.01 478.8L584.66 478.94L584.31 479.09L583.97 479.25L583.64 479.41L583.31 479.59L582.98 479.77L582.66 479.96L582.35 480.16L582.03 480.36L581.73 480.58L581.43 480.8L581.14 481.03L580.85 481.27L580.56 481.51L580.29 481.77L580.02 482.03L579.75 482.29L579.5 482.57L579.25 482.85L579 483.13L578.76 483.43L578.53 483.73L578.31 484.03L578.09 484.35L577.89 484.66L577.68 484.99L577.49 485.32L577.3 485.66L577.13 486L576.96 486.34L576.79 486.7L576.62 487.06L576.44 487.41L576.27 487.77L576.09 488.12L575.92 488.47L575.74 488.83L575.56 489.18L575.38 489.53L575.19 489.88L575.01 490.23L574.83 490.58L574.64 490.92L574.45 491.27L574.26 491.62L574.07 491.96L573.88 492.3L573.68 492.65L573.49 492.99L573.29 493.33L573.1 493.67L572.9 494.01L572.7 494.35L572.49 494.69L572.29 495.02L572.09 495.36L571.88 495.69L571.67 496.03L571.47 496.36L571.26 496.69L571.05 497.03L570.83 497.36L570.62 497.69L570.4 498.01L570.19 498.34L569.97 498.67L569.75 498.99L569.53 499.32L569.31 499.64L569.09 499.97L568.87 500.29L568.66 500.61L568.47 500.94L568.28 501.27L568.09 501.61L567.92 501.95L567.76 502.3L567.61 502.64L567.46 502.99L567.32 503.35L567.2 503.7L567.08 504.06L566.97 504.42L566.87 504.78L566.78 505.15L566.7 505.51L566.63 505.88L566.57 506.25L566.51 506.62L566.47 506.99L566.44 507.36L566.41 507.73L566.4 508.11L566.39 508.48L566.4 508.86L566.41 509.23L566.44 509.6L566.47 509.98L566.52 510.35L566.57 510.72L566.63 511.09L566.71 511.46L566.79 511.83L566.88 512.2L566.99 512.56L567.1 512.93L567.22 513.29L567.36 513.65L567.5 514.01L567.65 514.36L576.78 534.6L577 535.12L577.2 535.63L577.38 536.15L577.53 536.67L577.67 537.2L577.78 537.73L577.88 538.25L577.96 538.78L578.01 539.31L578.05 539.84L578.06 540.37L578.06 540.9L578.04 541.43L578 541.95L577.94 542.47L577.86 542.99L577.76 543.51L577.65 544.02L577.51 544.52L577.36 545.02L577.19 545.52L577.01 546.01L576.8 546.49L576.58 546.96L576.34 547.43L576.08 547.89L575.81 548.34L575.52 548.78L575.21 549.21L574.89 549.63L574.55 550.04L574.2 550.44L573.83 550.82L573.44 551.2L573.04 551.56L572.62 551.9L572.19 552.24L571.74 552.55L571.28 552.86L570.8 553.15L542.93 569.24L542.44 569.51L541.95 569.76L541.45 569.98L540.94 570.19L540.44 570.38L539.92 570.55L539.41 570.7L538.89 570.82L538.36 570.93L537.84 571.02L537.32 571.09L536.79 571.14L536.26 571.17L535.74 571.18L535.21 571.18L534.69 571.15L534.17 571.1L533.65 571.04L533.13 570.96L532.62 570.86L532.11 570.74L531.6 570.6L531.1 570.45L530.61 570.27L530.12 570.08L529.64 569.87L529.16 569.64L528.7 569.4L528.24 569.14L527.79 568.86L527.35 568.56L526.91 568.25L526.49 567.92L526.08 567.57L525.69 567.21L525.3 566.83L524.92 566.43L524.56 566.02L524.22 565.59L523.88 565.14L511.05 547.31L510.82 547L510.59 546.7L510.34 546.4L510.1 546.11L509.84 545.83L509.58 545.55L509.31 545.28L509.03 545.02L508.75 544.77L508.46 544.52L508.17 544.28L507.87 544.05L507.57 543.83L507.26 543.61L506.95 543.41L506.63 543.21L506.31 543.02L505.98 542.83L505.65 542.66L505.31 542.49L504.97 542.33L504.63 542.19L504.28 542.05L503.93 541.92L503.57 541.79L503.22 541.68L502.86 541.58L502.49 541.48L502.13 541.4L501.76 541.33L501.39 541.26L501.02 541.21L500.64 541.16L500.27 541.13L499.89 541.1L499.51 541.09L499.13 541.08L498.74 541.09L498.36 541.11L497.98 541.13L497.78 541.15L497.58 541.17L497.38 541.18L497.18 541.2L496.98 541.21L496.77 541.23L496.57 541.24L496.37 541.26L496.17 541.27L495.97 541.28L495.77 541.3L495.57 541.31L495.37 541.32L495.16 541.33L494.96 541.34L494.76 541.35L494.56 541.36L494.36 541.37L494.15 541.38L493.95 541.39L493.75 541.4L493.55 541.41L493.34 541.42L493.14 541.42L492.94 541.43L492.74 541.44L492.53 541.44L492.33 541.45L492.13 541.45L491.92 541.46L491.72 541.46L491.52 541.47L491.31 541.47L491.11 541.47L490.9 541.48L490.7 541.48L490.5 541.48L490.29 541.48L490.09 541.48L489.88 541.48L489.68 541.48L489.47 541.48L489.27 541.48L489.06 541.48L488.86 541.48L488.66 541.47L488.45 541.47L488.25 541.47L488.05 541.46L487.84 541.46L487.64 541.45L487.43 541.45L487.23 541.44L487.03 541.44L486.82 541.43L486.62 541.42L486.42 541.42L486.22 541.41L486.01 541.4L485.81 541.39L485.61 541.38L485.41 541.37L485.2 541.36L485 541.35L484.8 541.34L484.6 541.33L484.4 541.32L484.2 541.31L483.99 541.3L483.79 541.28L483.59 541.27L483.39 541.26L483.19 541.24L482.99 541.23L482.79 541.21L482.59 541.2L482.39 541.18L482.19 541.17L481.99 541.15L481.79 541.13L481.4 541.11L481.02 541.09L480.64 541.08L480.26 541.09L479.88 541.1L479.5 541.13L479.12 541.16L478.75 541.21L478.37 541.26L478 541.33L477.63 541.4L477.27 541.48L476.91 541.58L476.55 541.68L476.19 541.79L475.83 541.92L475.48 542.05L475.14 542.19L474.79 542.33L474.45 542.49L474.12 542.66L473.78 542.83L473.46 543.02L473.13 543.21L472.82 543.41L472.5 543.61L472.19 543.83L471.89 544.05L471.59 544.28L471.3 544.52L471.01 544.77L470.73 545.02L470.46 545.28L470.19 545.55L469.92 545.83L469.67 546.11L469.42 546.4L469.17 546.7L468.94 547L468.71 547.31L455.88 565.14L455.55 565.59L455.2 566.02L454.84 566.43L454.46 566.83L454.08 567.21L453.68 567.57L453.27 567.92L452.85 568.25L452.42 568.56L451.97 568.86L451.52 569.14L451.07 569.4L450.6 569.64L450.12 569.87L449.64 570.08L449.15 570.27L448.66 570.45L448.16 570.6L447.65 570.74L447.15 570.86L446.63 570.96L446.11 571.04L445.6 571.1L445.07 571.15L444.55 571.18L444.02 571.18L443.5 571.17L442.97 571.14L442.45 571.09L441.92 571.02L441.4 570.93L440.88 570.82L440.36 570.7L439.84 570.55L439.33 570.38L438.82 570.19L438.31 569.98L437.81 569.76L437.32 569.51L436.83 569.24L408.96 553.15L408.48 552.86L408.02 552.55L407.57 552.24L407.14 551.9L406.72 551.56L406.32 551.2L405.94 550.82L405.57 550.44L405.21 550.04L404.87 549.63L404.55 549.21L404.24 548.78L403.95 548.34L403.68 547.89L403.42 547.43L403.18 546.96L402.96 546.49L402.76 546.01L402.57 545.52L402.4 545.02L402.25 544.52L402.12 544.02L402 543.51L401.9 542.99L401.83 542.47L401.77 541.95L401.72 541.43L401.7 540.9L401.7 540.37L401.72 539.84L401.75 539.31L401.81 538.78L401.88 538.25L401.98 537.73L402.1 537.2L402.23 536.67L402.39 536.15L402.57 535.63L402.76 535.12L402.98 534.6L412.11 514.36L412.26 514.01L412.41 513.65L412.54 513.29L412.66 512.93L412.78 512.56L412.88 512.2L412.97 511.83L413.06 511.46L413.13 511.09L413.19 510.72L413.25 510.35L413.29 509.98L413.33 509.6L413.35 509.23L413.36 508.86L413.37 508.48L413.36 508.11L413.35 507.73L413.33 507.36L413.29 506.99L413.25 506.62L413.2 506.25L413.13 505.88L413.06 505.51L412.98 505.15L412.89 504.78L412.79 504.42L412.68 504.06L412.57 503.7L412.44 503.35L412.3 502.99L412.16 502.64L412 502.3L411.84 501.95L411.67 501.61L411.49 501.27L411.3 500.94L411.1 500.61L410.89 500.29L410.68 499.97L410.45 499.64L410.23 499.32L410.01 498.99L409.79 498.67L409.57 498.34L409.36 498.01L409.14 497.69L408.93 497.36L408.72 497.03L408.51 496.69L408.3 496.36L408.09 496.03L407.88 495.69L407.68 495.36L407.47 495.02L407.27 494.69L407.07 494.35L406.87 494.01L406.67 493.67L406.47 493.33L406.27 492.99L406.08 492.65L405.88 492.3L405.69 491.96L405.5 491.62L405.31 491.27L405.12 490.92L404.94 490.58L404.75 490.23L404.57 489.88L404.39 489.53L404.2 489.18L404.02 488.83L403.85 488.48L403.67 488.12L403.49 487.77L403.32 487.41L403.15 487.06L402.98 486.7L402.81 486.34L402.64 486L402.46 485.66L402.27 485.32L402.08 484.99L401.88 484.66L401.67 484.35L401.45 484.03L401.23 483.73L401 483.43L400.76 483.13L400.52 482.85L400.27 482.57L400.01 482.29L399.74 482.03L399.47 481.77L399.2 481.51L398.92 481.27L398.63 481.03L398.33 480.8L398.03 480.58L397.73 480.36L397.42 480.16L397.1 479.96L396.78 479.77L396.45 479.59L396.12 479.41L395.79 479.25L395.45 479.09L395.1 478.94L394.76 478.8L394.4 478.67L394.05 478.55L393.69 478.44L393.32 478.34L392.95 478.24L392.58 478.16L392.21 478.09L391.83 478.02L391.45 477.97L391.07 477.93L368.98 475.71L368.43 475.64L367.88 475.56L367.34 475.45L366.81 475.33L366.29 475.18L365.78 475.02L365.27 474.84L364.77 474.64L364.29 474.42L363.81 474.19L363.34 473.94L362.89 473.67L362.44 473.39L362.01 473.09L361.59 472.78L361.18 472.45L360.78 472.11L360.39 471.75L360.02 471.39L359.66 471L359.32 470.61L358.99 470.2L358.67 469.78L358.37 469.35L358.09 468.91L357.82 468.46L357.57 468L357.33 467.53L357.11 467.05L356.91 466.56L356.72 466.06L356.56 465.56L356.41 465.04L356.28 464.52L356.17 463.99L356.08 463.46L356 462.92L355.95 462.37L355.92 461.82L355.91 461.26L355.91 429.08L355.92 428.52L355.95 427.97L356 427.42L356.08 426.88L356.17 426.35L356.28 425.82L356.41 425.3L356.56 424.78L356.72 424.28L356.91 423.78L357.11 423.29L357.33 422.81L357.57 422.34L357.82 421.88L358.09 421.43L358.37 420.99L358.67 420.56L358.99 420.14L359.32 419.73L359.66 419.34L360.02 418.96L360.39 418.59L360.78 418.23L361.18 417.89L361.59 417.56L362.01 417.25L362.44 416.95L362.89 416.67L363.34 416.4L363.81 416.15L364.29 415.92L364.77 415.7L365.27 415.5L365.78 415.32L366.29 415.16L366.81 415.01L367.34 414.89L367.88 414.78L368.43 414.7L368.98 414.63L391.07 412.41L391.45 412.37L391.83 412.32L392.21 412.25L392.58 412.18L392.95 412.09L393.32 412L393.69 411.9L394.05 411.79L394.4 411.67L394.76 411.54L395.1 411.4L395.45 411.25L395.79 411.09L396.12 410.93L396.45 410.75L396.78 410.57L397.1 410.38L397.42 410.18L397.73 409.97L398.03 409.76L398.33 409.54L398.63 409.31L398.92 409.07L399.2 408.83L399.47 408.57L399.74 408.31L400.01 408.05L400.27 407.77L400.52 407.49L400.76 407.21L401 406.91L401.23 406.61L401.45 406.31L401.67 405.99L401.88 405.67L402.08 405.35L402.27 405.02L402.46 404.68L402.64 404.34L402.81 404L402.98 403.64L403.15 403.28L403.32 402.93L403.49 402.57L403.67 402.22L403.85 401.86L404.02 401.51L404.2 401.16L404.39 400.81L404.57 400.46L404.75 400.11L404.94 399.76L405.12 399.42L405.31 399.07L405.5 398.72L405.69 398.38L405.88 398.04L406.08 397.69L406.27 397.35L406.47 397.01L406.67 396.67L406.87 396.33L407.07 395.99L407.27 395.65L407.47 395.32L407.68 394.98L407.88 394.65L408.09 394.31L408.3 393.98L408.51 393.65L408.72 393.32L408.93 392.99L409.14 392.66L409.36 392.33L409.57 392L409.79 391.67L410.01 391.35L410.23 391.02L410.45 390.7L410.68 390.38L410.89 390.06L411.1 389.73L411.3 389.4L411.49 389.07L411.67 388.73L411.84 388.39L412 388.05L412.16 387.7L412.3 387.35L412.44 387L412.57 386.64L412.68 386.28L412.79 385.92L412.89 385.56L412.98 385.2L413.06 384.83L413.13 384.46L413.2 384.09L413.25 383.72L413.29 383.35L413.33 382.98L413.35 382.61L413.36 382.23L413.37 381.86L413.36 381.48L413.35 381.11L413.33 380.74L413.29 380.36L413.25 379.99L413.19 379.62L413.13 379.25L413.06 378.88L412.97 378.51L412.88 378.14L412.78 377.78L412.66 377.41L412.54 377.05L412.41 376.69L412.26 376.34L412.11 375.98L402.98 355.74L402.76 355.23L402.57 354.71L402.39 354.19L402.23 353.67L402.1 353.14L401.98 352.62L401.88 352.09L401.81 351.56L401.75 351.03L401.72 350.5L401.7 349.97L401.7 349.44L401.72 348.91L401.77 348.39L401.83 347.87L401.9 347.35L402 346.83L402.12 346.32L402.25 345.82L402.4 345.32L402.57 344.82L402.76 344.33L402.96 343.85L403.18 343.38L403.42 342.91L403.68 342.45L403.95 342L404.24 341.56L404.55 341.13L404.87 340.71L405.21 340.3L405.56 339.9L405.94 339.52L406.32 339.14L406.72 338.78L407.14 338.44L407.57 338.1L408.02 337.79L408.48 337.48L408.96 337.19L436.83 321.1L437.32 320.83L437.81 320.58L438.31 320.36L438.82 320.15L439.33 319.96L439.84 319.79L440.36 319.64L440.87 319.52L441.4 319.41L441.92 319.32L442.45 319.25L442.97 319.2L443.5 319.17L444.02 319.16L444.55 319.16L445.07 319.19ZM486.03 398.23L484.13 398.42L482.25 398.69L480.4 399.03L478.58 399.44L476.78 399.93L475.01 400.48L473.27 401.09L471.57 401.78L469.89 402.53L468.26 403.34L466.65 404.21L465.09 405.14L463.57 406.13L462.08 407.17L460.64 408.27L459.25 409.42L457.9 410.63L456.59 411.88L455.34 413.19L454.14 414.54L452.98 415.93L451.88 417.37L450.84 418.85L449.85 420.38L448.92 421.94L448.05 423.54L447.24 425.18L446.49 426.85L445.81 428.56L445.19 430.3L444.64 432.07L444.15 433.87L443.74 435.69L443.4 437.54L443.13 439.42L442.94 441.31L442.82 443.23L442.78 445.17L442.82 447.11L442.94 449.03L443.13 450.92L443.4 452.8L443.74 454.65L444.15 456.47L444.64 458.27L445.19 460.04L445.81 461.78L446.49 463.49L447.24 465.16L448.05 466.8L448.92 468.4L449.85 469.96L450.84 471.49L451.88 472.97L452.98 474.41L454.14 475.8L455.34 477.15L456.59 478.46L457.9 479.71L459.25 480.92L460.64 482.07L462.08 483.17L463.57 484.21L465.09 485.2L466.65 486.13L468.26 487L469.89 487.81L471.57 488.56L473.27 489.24L475.01 489.86L476.78 490.41L478.58 490.9L480.4 491.31L482.25 491.65L484.13 491.92L486.03 492.11L487.94 492.23L489.88 492.27L491.82 492.23L493.74 492.11L495.64 491.92L497.51 491.65L499.36 491.31L501.19 490.9L502.98 490.41L504.75 489.86L506.49 489.24L508.2 488.56L509.87 487.81L511.51 487L513.11 486.13L514.67 485.2L516.2 484.21L517.68 483.17L519.12 482.07L520.52 480.92L521.87 479.71L523.17 478.46L524.42 477.15L525.63 475.8L526.78 474.41L527.88 472.97L528.93 471.49L529.91 469.96L530.84 468.4L531.72 466.8L532.53 465.16L533.27 463.49L533.96 461.78L534.58 460.04L535.13 458.27L535.61 456.47L536.02 454.65L536.36 452.8L536.63 450.92L536.82 449.03L536.94 447.11L536.98 445.17L536.94 443.23L536.82 441.31L536.63 439.42L536.36 437.54L536.02 435.69L535.61 433.87L535.13 432.07L534.58 430.3L533.96 428.56L533.27 426.85L532.53 425.18L531.72 423.54L530.84 421.94L529.91 420.38L528.93 418.85L527.88 417.37L526.78 415.93L525.63 414.54L524.42 413.19L523.17 411.88L521.87 410.63L520.52 409.42L519.12 408.27L517.68 407.17L516.2 406.13L514.67 405.14L513.11 404.21L511.51 403.34L509.87 402.53L508.2 401.78L506.49 401.09L504.75 400.48L502.98 399.93L501.19 399.44L499.36 399.03L497.51 398.69L495.64 398.42L493.74 398.23L491.82 398.11L489.88 398.07L487.94 398.11L486.03 398.23Z" id="f7HWye2Em" fill="white" fill-opacity="1" filter="url(#shadow3174132)"></path></g><use xlink:href="#cqOFqtBgK" opacity="1" fill="#4b4b4b" fill-opacity="1"></use><g><use xlink:href="#cqOFqtBgK" opacity="1" fill-opacity="0" stroke="#db0000" stroke-width="0" stroke-opacity="0"></use></g></g><g><g><filter id="shadow5015489" x="443.53" y="398.82" width="100.7" height="98.7" filterUnits="userSpaceOnUse" primitiveUnits="userSpaceOnUse"><feFlood></feFlood><feComposite in2="SourceAlpha" operator="in"></feComposite><feGaussianBlur stdDeviation="1"></feGaussianBlur><feOffset dx="-8" dy="-6" result="afterOffset"></feOffset><feFlood flood-color="#ffffff" flood-opacity="0.5"></feFlood><feComposite in2="afterOffset" operator="in"></feComposite><feMorphology operator="dilate" radius="1"></feMorphology><feComposite in2="SourceAlpha" operator="out"></feComposite></filter><path d="M459.53 445.17C459.53 461.91 473.14 475.52 489.88 475.52C506.62 475.52 520.23 461.91 520.23 445.17C520.23 428.44 506.62 414.82 489.88 414.82C473.14 414.82 459.53 428.44 459.53 445.17Z" id="j3pKuaNKlb" fill="white" fill-opacity="1" filter="url(#shadow5015489)"></path></g><use xlink:href="#c22l8Ao72C" opacity="1" fill="#4b4b4b" fill-opacity="1"></use><g><use xlink:href="#c22l8Ao72C" opacity="1" fill-opacity="0" stroke="#000000" stroke-width="0" stroke-opacity="0"></use></g></g></g></g></svg>