<?xml version="1.0" encoding="UTF-8" standalone="no"?>
<!DOCTYPE svg PUBLIC "-//W3C//DTD SVG 1.1//EN" "http://www.w3.org/Graphics/SVG/1.1/DTD/svg11.dtd">
<svg version="1.1" xmlns="http://www.w3.org/2000/svg" xmlns:xlink="http://www.w3.org/1999/xlink" preserveAspectRatio="xMidYMid meet" viewBox="0 0 640 640" width="256" height="256"><defs><path d="M526.58 238.05L526.87 238.05L526.87 238.25L632.5 331.8L632.2 331.8L632.37 331.95L587.26 331.8L526.87 331.8L526.87 602.63L113.13 602.63L113.13 331.8L7.51 331.8L7.72 331.6L7.5 331.6L53.01 291.49L113.13 238.25L113.13 238.05L113.43 238.05L320 55.03L408.61 133.54L408.74 102.65L408.74 54.99L485.44 54.99L485.44 201.58L526.58 238.05ZM231.99 495.54L305.4 495.54L305.4 425.16L231.99 425.16L231.99 495.54ZM334.6 495.54L408.01 495.54L408.01 425.16L334.6 425.16L334.6 495.54ZM231.99 395.95L305.4 395.95L305.4 325.67L231.99 325.67L231.99 395.95ZM334.6 395.95L408.01 395.95L408.01 325.67L334.6 325.67L334.6 395.95Z" id="a4sXTbDEp"></path><path d="M471.62 497.72C471.62 513.71 484.63 526.72 500.62 526.72C516.61 526.72 529.62 513.71 529.62 497.72C529.62 481.73 516.61 468.72 500.62 468.72C484.63 468.72 471.62 481.73 471.62 497.72Z" id="bLoM8CovS"></path><path d="M457.81 377.36L458.31 377.4L458.81 377.46L459.3 377.54L459.79 377.64L460.28 377.75L460.76 377.88L461.24 378.03L461.71 378.19L462.18 378.38L462.64 378.58L463.09 378.79L463.54 379.03L463.98 379.28L464.41 379.54L464.83 379.83L465.24 380.13L465.64 380.44L466.03 380.77L466.41 381.12L466.78 381.49L467.14 381.87L467.48 382.26L467.82 382.67L468.14 383.1L480.39 400.14L480.61 400.43L480.84 400.72L481.07 401.01L481.31 401.28L481.55 401.55L481.81 401.82L482.06 402.07L482.33 402.32L482.59 402.57L482.87 402.8L483.15 403.03L483.43 403.25L483.72 403.46L484.02 403.67L484.32 403.87L484.62 404.06L484.93 404.24L485.24 404.42L485.56 404.58L485.88 404.74L486.21 404.89L486.53 405.03L486.87 405.17L487.2 405.29L487.54 405.41L487.88 405.51L488.23 405.61L488.57 405.7L488.92 405.78L489.27 405.85L489.63 405.92L489.98 405.97L490.34 406.01L490.7 406.05L491.06 406.07L491.43 406.08L491.79 406.09L492.15 406.08L492.52 406.07L492.89 406.04L493.08 406.02L493.27 406.01L493.46 405.99L493.65 405.98L493.84 405.96L494.04 405.95L494.23 405.93L494.42 405.92L494.61 405.91L494.81 405.9L495 405.88L495.19 405.87L495.38 405.86L495.58 405.85L495.77 405.84L495.96 405.83L496.15 405.82L496.35 405.81L496.54 405.8L496.73 405.79L496.93 405.78L497.12 405.78L497.31 405.77L497.51 405.76L497.7 405.76L497.9 405.75L498.09 405.74L498.28 405.74L498.48 405.73L498.67 405.73L498.87 405.72L499.06 405.72L499.26 405.72L499.45 405.72L499.65 405.71L499.84 405.71L500.04 405.71L500.23 405.71L500.43 405.71L500.62 405.71L500.82 405.71L501.01 405.71L501.21 405.71L501.4 405.71L501.6 405.71L501.79 405.72L501.99 405.72L502.18 405.72L502.38 405.72L502.57 405.73L502.77 405.73L502.96 405.74L503.16 405.74L503.35 405.75L503.54 405.76L503.74 405.76L503.93 405.77L504.12 405.78L504.32 405.78L504.51 405.79L504.71 405.8L504.9 405.81L505.09 405.82L505.28 405.83L505.48 405.84L505.67 405.85L505.86 405.86L506.06 405.87L506.25 405.88L506.44 405.9L506.63 405.91L506.82 405.92L507.02 405.93L507.21 405.95L507.4 405.96L507.59 405.98L507.78 405.99L507.98 406.01L508.17 406.02L508.36 406.04L508.73 406.07L509.09 406.08L509.46 406.09L509.82 406.08L510.18 406.07L510.54 406.05L510.9 406.01L511.26 405.97L511.62 405.92L511.97 405.85L512.32 405.78L512.67 405.7L513.02 405.61L513.36 405.51L513.71 405.41L514.04 405.29L514.38 405.17L514.71 405.03L515.04 404.89L515.36 404.74L515.69 404.58L516 404.42L516.32 404.24L516.62 404.06L516.93 403.87L517.23 403.67L517.52 403.46L517.81 403.25L518.1 403.03L518.38 402.8L518.65 402.57L518.92 402.32L519.18 402.07L519.44 401.82L519.69 401.55L519.94 401.28L520.17 401.01L520.41 400.72L520.63 400.43L520.85 400.14L533.11 383.1L533.43 382.67L533.76 382.26L534.1 381.87L534.46 381.49L534.83 381.12L535.21 380.78L535.6 380.44L536.01 380.13L536.42 379.83L536.84 379.55L537.27 379.28L537.71 379.03L538.15 378.79L538.61 378.58L539.07 378.38L539.53 378.2L540.01 378.03L540.48 377.88L540.97 377.75L541.45 377.64L541.94 377.54L542.44 377.46L542.93 377.4L543.43 377.36L543.93 377.33L544.44 377.32L544.94 377.34L545.44 377.37L545.94 377.41L546.45 377.48L546.95 377.56L547.44 377.67L547.94 377.79L548.43 377.93L548.92 378.09L549.41 378.27L549.89 378.47L550.37 378.69L550.84 378.93L551.31 379.18L577.94 394.56L578.39 394.83L578.83 395.12L579.26 395.43L579.68 395.75L580.07 396.08L580.46 396.42L580.83 396.78L581.18 397.15L581.52 397.53L581.84 397.92L582.15 398.32L582.45 398.73L582.72 399.15L582.98 399.58L583.23 400.02L583.46 400.46L583.67 400.92L583.86 401.38L584.04 401.85L584.21 402.32L584.35 402.8L584.48 403.28L584.59 403.77L584.68 404.26L584.76 404.76L584.81 405.25L584.85 405.76L584.87 406.26L584.88 406.76L584.86 407.27L584.83 407.78L584.77 408.28L584.7 408.79L584.61 409.29L584.5 409.8L584.37 410.3L584.22 410.8L584.05 411.3L583.86 411.79L583.65 412.28L574.93 431.62L574.78 431.96L574.64 432.3L574.52 432.64L574.4 432.99L574.29 433.33L574.19 433.68L574.1 434.03L574.02 434.39L573.95 434.74L573.89 435.09L573.84 435.45L573.8 435.81L573.77 436.16L573.74 436.52L573.73 436.88L573.72 437.23L573.73 437.59L573.74 437.95L573.77 438.3L573.8 438.66L573.84 439.01L573.89 439.37L573.95 439.72L574.02 440.07L574.1 440.42L574.18 440.77L574.28 441.12L574.38 441.46L574.49 441.8L574.61 442.14L574.74 442.48L574.88 442.81L575.03 443.15L575.19 443.47L575.35 443.8L575.52 444.12L575.7 444.44L575.89 444.75L576.09 445.07L576.3 445.37L576.51 445.68L576.72 445.99L576.93 446.3L577.14 446.61L577.35 446.92L577.56 447.24L577.76 447.55L577.97 447.86L578.17 448.18L578.37 448.5L578.57 448.81L578.77 449.13L578.97 449.45L579.17 449.77L579.36 450.09L579.55 450.41L579.75 450.74L579.94 451.06L580.13 451.38L580.32 451.71L580.51 452.03L580.69 452.36L580.88 452.69L581.06 453.02L581.24 453.35L581.42 453.68L581.6 454.01L581.78 454.34L581.96 454.67L582.14 455.01L582.31 455.34L582.48 455.68L582.65 456.01L582.82 456.35L582.99 456.68L583.16 457.02L583.33 457.36L583.49 457.7L583.66 458.04L583.82 458.38L583.98 458.72L584.15 459.04L584.33 459.36L584.51 459.68L584.71 459.99L584.91 460.29L585.11 460.59L585.33 460.88L585.55 461.17L585.77 461.45L586.01 461.73L586.25 461.99L586.49 462.25L586.74 462.51L587 462.76L587.27 463L587.54 463.23L587.81 463.46L588.09 463.68L588.38 463.89L588.67 464.1L588.97 464.29L589.27 464.48L589.58 464.67L589.89 464.84L590.2 465.01L590.52 465.16L590.85 465.31L591.18 465.46L591.51 465.59L591.85 465.71L592.19 465.83L592.53 465.94L592.88 466.03L593.23 466.12L593.59 466.2L593.94 466.27L594.3 466.33L594.67 466.38L595.03 466.43L616.14 468.54L616.66 468.61L617.19 468.69L617.7 468.79L618.21 468.91L618.71 469.05L619.2 469.21L619.68 469.38L620.16 469.57L620.62 469.78L621.08 470L621.52 470.24L621.96 470.49L622.39 470.76L622.8 471.05L623.2 471.35L623.59 471.66L623.97 471.99L624.34 472.33L624.7 472.68L625.04 473.04L625.37 473.42L625.68 473.81L625.98 474.21L626.27 474.62L626.54 475.04L626.8 475.47L627.04 475.91L627.27 476.36L627.48 476.82L627.67 477.29L627.85 477.76L628 478.24L628.15 478.74L628.27 479.23L628.38 479.74L628.46 480.25L628.53 480.77L628.58 481.29L628.61 481.82L628.62 482.35L628.62 513.1L628.61 513.63L628.58 514.16L628.53 514.68L628.46 515.2L628.38 515.71L628.27 516.21L628.15 516.71L628 517.2L627.85 517.68L627.67 518.16L627.48 518.63L627.27 519.09L627.04 519.54L626.8 519.98L626.54 520.41L626.27 520.83L625.98 521.24L625.68 521.64L625.37 522.03L625.04 522.41L624.7 522.77L624.34 523.12L623.97 523.46L623.59 523.79L623.2 524.1L622.8 524.4L622.39 524.68L621.96 524.95L621.52 525.21L621.08 525.45L620.62 525.67L620.16 525.88L619.68 526.07L619.2 526.24L618.71 526.4L618.21 526.54L617.7 526.66L617.19 526.76L616.67 526.84L616.14 526.9L595.04 529.02L594.67 529.06L594.3 529.11L593.94 529.17L593.59 529.24L593.23 529.32L592.88 529.41L592.53 529.51L592.19 529.62L591.85 529.73L591.51 529.86L591.18 529.99L590.85 530.13L590.52 530.28L590.2 530.44L589.89 530.61L589.58 530.78L589.27 530.96L588.97 531.15L588.67 531.35L588.38 531.55L588.09 531.77L587.81 531.99L587.54 532.21L587.27 532.45L587 532.69L586.74 532.94L586.49 533.19L586.25 533.45L586.01 533.72L585.77 533.99L585.55 534.28L585.33 534.56L585.11 534.85L584.91 535.15L584.71 535.46L584.51 535.77L584.33 536.08L584.15 536.4L583.98 536.73L583.82 537.06L583.66 537.4L583.49 537.74L583.33 538.08L583.16 538.42L582.99 538.76L582.83 539.1L582.66 539.44L582.48 539.77L582.31 540.11L582.14 540.44L581.96 540.77L581.78 541.11L581.6 541.44L581.42 541.77L581.24 542.1L581.06 542.43L580.88 542.76L580.69 543.08L580.51 543.41L580.32 543.74L580.13 544.06L579.94 544.39L579.75 544.71L579.56 545.03L579.36 545.36L579.17 545.68L578.97 546L578.77 546.32L578.57 546.63L578.37 546.95L578.17 547.27L577.97 547.58L577.76 547.9L577.56 548.21L577.35 548.53L577.14 548.84L576.94 549.15L576.73 549.46L576.51 549.77L576.3 550.08L576.09 550.38L575.9 550.7L575.71 551.01L575.52 551.33L575.35 551.65L575.19 551.98L575.03 552.3L574.88 552.64L574.75 552.97L574.62 553.31L574.49 553.65L574.38 553.99L574.28 554.33L574.18 554.68L574.1 555.03L574.02 555.38L573.95 555.73L573.89 556.08L573.84 556.43L573.8 556.79L573.77 557.14L573.75 557.5L573.73 557.86L573.73 558.21L573.73 558.57L573.75 558.93L573.77 559.29L573.8 559.64L573.84 560L573.89 560.35L573.95 560.71L574.03 561.06L574.1 561.41L574.19 561.77L574.29 562.11L574.4 562.46L574.52 562.81L574.65 563.15L574.78 563.49L574.93 563.83L583.65 583.17L583.86 583.66L584.05 584.15L584.22 584.65L584.37 585.15L584.5 585.65L584.61 586.15L584.7 586.66L584.77 587.17L584.83 587.67L584.86 588.18L584.88 588.68L584.87 589.19L584.85 589.69L584.81 590.19L584.76 590.69L584.68 591.19L584.59 591.68L584.48 592.17L584.35 592.65L584.21 593.13L584.04 593.6L583.87 594.07L583.67 594.53L583.46 594.98L583.23 595.43L582.99 595.87L582.72 596.3L582.45 596.72L582.15 597.13L581.85 597.53L581.52 597.92L581.18 598.3L580.83 598.67L580.46 599.03L580.08 599.37L579.68 599.7L579.26 600.02L578.84 600.32L578.4 600.61L577.94 600.89L551.31 616.26L550.84 616.52L550.37 616.76L549.89 616.98L549.41 617.17L548.93 617.35L548.44 617.51L547.94 617.66L547.45 617.78L546.95 617.88L546.45 617.97L545.94 618.03L545.44 618.08L544.94 618.11L544.44 618.12L543.93 618.12L543.43 618.09L542.94 618.05L542.44 617.99L541.95 617.91L541.45 617.81L540.97 617.7L540.49 617.57L540.01 617.42L539.54 617.25L539.07 617.07L538.61 616.87L538.15 616.65L537.71 616.42L537.27 616.17L536.84 615.9L536.42 615.62L536.01 615.32L535.61 615L535.21 614.67L534.83 614.32L534.46 613.96L534.11 613.58L533.76 613.19L533.43 612.77L533.11 612.35L520.85 595.31L520.63 595.02L520.41 594.73L520.18 594.44L519.94 594.17L519.69 593.9L519.44 593.63L519.18 593.38L518.92 593.13L518.65 592.88L518.38 592.65L518.1 592.42L517.81 592.2L517.52 591.99L517.23 591.78L516.93 591.58L516.62 591.39L516.32 591.21L516 591.03L515.69 590.87L515.37 590.71L515.04 590.56L514.71 590.42L514.38 590.28L514.04 590.16L513.71 590.04L513.37 589.93L513.02 589.84L512.67 589.75L512.32 589.67L511.97 589.59L511.62 589.53L511.26 589.48L510.9 589.44L510.55 589.4L510.18 589.38L509.82 589.37L509.46 589.36L509.09 589.37L508.73 589.38L508.36 589.41L508.17 589.43L507.98 589.44L507.79 589.46L507.59 589.47L507.4 589.49L507.21 589.5L507.02 589.52L506.83 589.53L506.63 589.54L506.44 589.55L506.25 589.57L506.06 589.58L505.86 589.59L505.67 589.6L505.48 589.61L505.29 589.62L505.09 589.63L504.9 589.64L504.71 589.65L504.51 589.66L504.32 589.67L504.13 589.67L503.93 589.68L503.74 589.69L503.54 589.69L503.35 589.7L503.16 589.71L502.96 589.71L502.77 589.72L502.57 589.72L502.38 589.73L502.19 589.73L501.99 589.73L501.8 589.74L501.6 589.74L501.41 589.74L501.21 589.74L501.02 589.74L500.82 589.74L500.63 589.74L500.43 589.74L500.23 589.74L500.04 589.74L499.84 589.74L499.65 589.74L499.45 589.74L499.26 589.73L499.06 589.73L498.87 589.73L498.67 589.72L498.48 589.72L498.29 589.71L498.09 589.71L497.9 589.7L497.7 589.69L497.51 589.69L497.32 589.68L497.12 589.67L496.93 589.67L496.73 589.66L496.54 589.65L496.35 589.64L496.16 589.63L495.96 589.62L495.77 589.61L495.58 589.6L495.38 589.59L495.19 589.58L495 589.57L494.81 589.55L494.61 589.54L494.42 589.53L494.23 589.52L494.04 589.5L493.85 589.49L493.65 589.47L493.46 589.46L493.27 589.44L493.08 589.43L492.89 589.41L492.52 589.38L492.16 589.37L491.79 589.36L491.43 589.37L491.06 589.38L490.7 589.4L490.34 589.44L489.98 589.48L489.63 589.53L489.27 589.59L488.92 589.67L488.57 589.75L488.23 589.84L487.88 589.93L487.54 590.04L487.2 590.16L486.87 590.28L486.54 590.42L486.21 590.56L485.88 590.71L485.56 590.87L485.24 591.03L484.93 591.21L484.62 591.39L484.32 591.58L484.02 591.78L483.72 591.99L483.43 592.2L483.15 592.42L482.87 592.65L482.6 592.88L482.33 593.13L482.06 593.38L481.81 593.63L481.55 593.9L481.31 594.17L481.07 594.44L480.84 594.73L480.61 595.02L480.39 595.31L468.14 612.35L467.82 612.77L467.49 613.19L467.14 613.58L466.78 613.96L466.41 614.32L466.03 614.67L465.64 615L465.24 615.32L464.83 615.62L464.41 615.9L463.98 616.17L463.54 616.42L463.09 616.65L462.64 616.87L462.18 617.07L461.71 617.25L461.24 617.42L460.76 617.57L460.28 617.7L459.79 617.81L459.3 617.91L458.81 617.99L458.31 618.05L457.81 618.09L457.31 618.12L456.81 618.12L456.31 618.11L455.8 618.08L455.3 618.03L454.8 617.97L454.3 617.88L453.8 617.78L453.3 617.66L452.81 617.51L452.32 617.35L451.83 617.17L451.35 616.98L450.88 616.76L450.4 616.52L449.94 616.26L423.31 600.89L422.85 600.61L422.41 600.32L421.98 600.02L421.57 599.7L421.17 599.37L420.79 599.03L420.42 598.67L420.06 598.3L419.73 597.92L419.4 597.53L419.09 597.13L418.8 596.72L418.52 596.3L418.26 595.87L418.02 595.43L417.79 594.98L417.58 594.53L417.38 594.07L417.2 593.6L417.04 593.13L416.9 592.65L416.77 592.17L416.66 591.68L416.57 591.19L416.49 590.69L416.43 590.19L416.39 589.69L416.37 589.19L416.37 588.68L416.39 588.18L416.42 587.67L416.47 587.17L416.55 586.66L416.64 586.15L416.75 585.65L416.88 585.15L417.03 584.65L417.2 584.15L417.39 583.66L417.6 583.17L426.32 563.83L426.46 563.49L426.6 563.15L426.73 562.81L426.85 562.46L426.96 562.11L427.05 561.77L427.14 561.41L427.22 561.06L427.29 560.71L427.35 560.35L427.4 560L427.45 559.64L427.48 559.29L427.5 558.93L427.52 558.57L427.52 558.21L427.52 557.86L427.5 557.5L427.48 557.14L427.45 556.79L427.41 556.43L427.36 556.08L427.3 555.73L427.23 555.38L427.15 555.03L427.06 554.68L426.97 554.33L426.87 553.99L426.75 553.65L426.63 553.31L426.5 552.97L426.36 552.64L426.22 552.3L426.06 551.98L425.9 551.65L425.72 551.33L425.54 551.01L425.35 550.7L425.15 550.38L424.95 550.08L424.73 549.77L424.52 549.46L424.31 549.15L424.1 548.84L423.9 548.53L423.69 548.21L423.48 547.9L423.28 547.58L423.08 547.27L422.87 546.95L422.67 546.63L422.48 546.32L422.28 546L422.08 545.68L421.89 545.36L421.69 545.03L421.5 544.71L421.31 544.39L421.12 544.06L420.93 543.74L420.74 543.41L420.55 543.08L420.37 542.76L420.19 542.43L420 542.1L419.82 541.77L419.64 541.44L419.46 541.11L419.29 540.77L419.11 540.44L418.94 540.11L418.76 539.77L418.59 539.44L418.42 539.1L418.25 538.76L418.09 538.42L417.92 538.08L417.75 537.74L417.59 537.4L417.43 537.06L417.27 536.73L417.1 536.4L416.92 536.08L416.73 535.77L416.54 535.46L416.34 535.15L416.14 534.85L415.92 534.56L415.7 534.28L415.47 533.99L415.24 533.72L415 533.45L414.76 533.19L414.5 532.94L414.24 532.69L413.98 532.45L413.71 532.21L413.44 531.99L413.15 531.77L412.87 531.55L412.58 531.35L412.28 531.15L411.98 530.96L411.67 530.78L411.36 530.61L411.04 530.44L410.72 530.28L410.4 530.13L410.07 529.99L409.74 529.86L409.4 529.73L409.06 529.62L408.72 529.51L408.37 529.41L408.02 529.32L407.66 529.24L407.3 529.17L406.94 529.11L406.58 529.06L406.21 529.02L385.11 526.9L384.58 526.84L384.06 526.76L383.55 526.66L383.04 526.54L382.54 526.4L382.05 526.24L381.56 526.07L381.09 525.88L380.62 525.67L380.17 525.45L379.72 525.21L379.29 524.95L378.86 524.68L378.45 524.4L378.04 524.1L377.65 523.79L377.27 523.46L376.9 523.12L376.55 522.77L376.21 522.41L375.88 522.03L375.56 521.64L375.26 521.24L374.98 520.83L374.7 520.41L374.45 519.98L374.21 519.54L373.98 519.09L373.77 518.63L373.58 518.16L373.4 517.68L373.24 517.2L373.1 516.71L372.97 516.21L372.87 515.71L372.78 515.2L372.71 514.68L372.66 514.16L372.63 513.63L372.62 513.1L372.62 482.35L372.63 481.82L372.66 481.29L372.71 480.77L372.78 480.25L372.87 479.74L372.97 479.23L373.1 478.74L373.24 478.24L373.4 477.76L373.58 477.29L373.77 476.82L373.98 476.36L374.21 475.91L374.45 475.47L374.7 475.04L374.98 474.62L375.26 474.21L375.56 473.81L375.88 473.42L376.21 473.04L376.55 472.68L376.9 472.32L377.27 471.99L377.65 471.66L378.04 471.35L378.45 471.05L378.86 470.76L379.29 470.49L379.72 470.24L380.17 470L380.62 469.78L381.09 469.57L381.56 469.38L382.05 469.21L382.54 469.05L383.04 468.91L383.55 468.79L384.06 468.69L384.58 468.61L385.11 468.54L406.21 466.43L406.58 466.38L406.94 466.33L407.3 466.27L407.66 466.2L408.02 466.12L408.37 466.03L408.72 465.94L409.06 465.83L409.4 465.71L409.74 465.59L410.07 465.46L410.4 465.31L410.72 465.16L411.04 465.01L411.36 464.84L411.67 464.67L411.98 464.48L412.28 464.29L412.58 464.1L412.87 463.89L413.15 463.68L413.44 463.46L413.71 463.23L413.98 463L414.25 462.76L414.5 462.51L414.76 462.25L415 461.99L415.24 461.72L415.47 461.45L415.7 461.17L415.92 460.88L416.14 460.59L416.34 460.29L416.54 459.99L416.73 459.68L416.92 459.36L417.1 459.04L417.27 458.71L417.43 458.38L417.59 458.04L417.75 457.7L417.92 457.36L418.09 457.02L418.25 456.68L418.42 456.35L418.59 456.01L418.76 455.67L418.94 455.34L419.11 455.01L419.29 454.67L419.46 454.34L419.64 454.01L419.82 453.68L420 453.35L420.19 453.02L420.37 452.69L420.55 452.36L420.74 452.03L420.93 451.71L421.12 451.38L421.31 451.06L421.5 450.74L421.69 450.41L421.89 450.09L422.08 449.77L422.28 449.45L422.48 449.13L422.67 448.81L422.87 448.5L423.08 448.18L423.28 447.86L423.48 447.55L423.69 447.24L423.9 446.92L424.1 446.61L424.31 446.3L424.52 445.99L424.73 445.68L424.95 445.37L425.15 445.06L425.35 444.75L425.54 444.44L425.72 444.12L425.9 443.8L426.06 443.47L426.22 443.14L426.36 442.81L426.5 442.48L426.63 442.14L426.75 441.8L426.87 441.46L426.97 441.12L427.06 440.77L427.15 440.42L427.23 440.07L427.3 439.72L427.36 439.37L427.41 439.01L427.45 438.66L427.48 438.3L427.5 437.95L427.52 437.59L427.52 437.23L427.52 436.88L427.5 436.52L427.48 436.16L427.45 435.8L427.4 435.45L427.35 435.09L427.29 434.74L427.22 434.39L427.14 434.03L427.05 433.68L426.96 433.33L426.85 432.99L426.73 432.64L426.6 432.3L426.46 431.96L426.32 431.62L417.6 412.28L417.39 411.79L417.2 411.3L417.03 410.8L416.88 410.3L416.75 409.8L416.64 409.29L416.55 408.79L416.47 408.28L416.42 407.78L416.39 407.27L416.37 406.76L416.37 406.26L416.39 405.76L416.43 405.25L416.49 404.76L416.57 404.26L416.66 403.77L416.77 403.28L416.9 402.8L417.04 402.32L417.2 401.85L417.38 401.38L417.58 400.92L417.79 400.46L418.02 400.02L418.26 399.58L418.52 399.15L418.8 398.73L419.09 398.32L419.4 397.92L419.72 397.53L420.06 397.15L420.42 396.78L420.79 396.42L421.17 396.08L421.57 395.75L421.98 395.43L422.41 395.12L422.85 394.83L423.31 394.56L449.94 379.18L450.4 378.93L450.87 378.69L451.35 378.47L451.83 378.27L452.32 378.09L452.81 377.93L453.3 377.79L453.8 377.67L454.3 377.56L454.8 377.48L455.3 377.41L455.8 377.36L456.31 377.34L456.81 377.32L457.31 377.33L457.81 377.36ZM496.94 452.87L495.13 453.06L493.34 453.31L491.57 453.64L489.82 454.03L488.11 454.49L486.42 455.02L484.76 455.61L483.13 456.26L481.53 456.98L479.96 457.75L478.43 458.59L476.94 459.47L475.48 460.42L474.07 461.42L472.69 462.47L471.36 463.57L470.07 464.72L468.82 465.92L467.62 467.16L466.47 468.45L465.37 469.79L464.32 471.16L463.32 472.58L462.38 474.04L461.49 475.53L460.66 477.06L459.88 478.63L459.17 480.22L458.51 481.85L457.92 483.51L457.4 485.2L456.93 486.92L456.54 488.67L456.21 490.43L455.96 492.22L455.77 494.04L455.66 495.87L455.62 497.72L455.66 499.57L455.77 501.41L455.96 503.22L456.21 505.01L456.54 506.78L456.93 508.52L457.4 510.24L457.92 511.93L458.51 513.59L459.17 515.22L459.88 516.82L460.66 518.39L461.49 519.92L462.38 521.41L463.32 522.87L464.32 524.28L465.37 525.66L466.47 526.99L467.62 528.28L468.82 529.53L470.07 530.73L471.36 531.88L472.69 532.98L474.07 534.03L475.48 535.03L476.94 535.97L478.43 536.86L479.96 537.69L481.53 538.47L483.13 539.18L484.76 539.83L486.42 540.43L488.11 540.95L489.82 541.41L491.57 541.81L493.34 542.13L495.13 542.39L496.94 542.57L498.77 542.69L500.62 542.72L502.48 542.69L504.31 542.57L506.12 542.39L507.91 542.13L509.68 541.81L511.43 541.41L513.14 540.95L514.83 540.43L516.49 539.83L518.12 539.18L519.72 538.47L521.29 537.69L522.82 536.86L524.31 535.97L525.77 535.03L527.18 534.03L528.56 532.98L529.89 531.88L531.18 530.73L532.43 529.53L533.63 528.28L534.78 526.99L535.88 525.66L536.93 524.28L537.93 522.87L538.87 521.41L539.76 519.92L540.59 518.39L541.37 516.82L542.08 515.22L542.74 513.59L543.33 511.93L543.85 510.24L544.31 508.52L544.71 506.78L545.03 505.01L545.29 503.22L545.48 501.41L545.59 499.57L545.62 497.72L545.59 495.87L545.48 494.04L545.29 492.22L545.03 490.43L544.71 488.67L544.31 486.92L543.85 485.2L543.33 483.51L542.74 481.85L542.08 480.22L541.37 478.63L540.59 477.06L539.76 475.53L538.87 474.04L537.93 472.58L536.93 471.16L535.88 469.79L534.78 468.45L533.63 467.16L532.43 465.92L531.18 464.72L529.89 463.57L528.56 462.47L527.18 461.42L525.77 460.42L524.31 459.47L522.82 458.59L521.29 457.75L519.72 456.98L518.12 456.26L516.49 455.61L514.83 455.02L513.14 454.49L511.43 454.03L509.68 453.64L507.91 453.31L506.12 453.06L504.31 452.87L502.48 452.76L500.62 452.72L498.77 452.76L496.94 452.87Z" id="b5gxPZgRBm"></path></defs><g><g><g><use xlink:href="#a4sXTbDEp" opacity="1" fill="#4b4b4b" fill-opacity="1"></use><g><use xlink:href="#a4sXTbDEp" opacity="1" fill-opacity="0" stroke="#000000" stroke-width="1" stroke-opacity="0"></use></g></g><g><g><filter id="shadow15022087" x="455.62" y="452.72" width="98" height="96" filterUnits="userSpaceOnUse" primitiveUnits="userSpaceOnUse"><feFlood></feFlood><feComposite in2="SourceAlpha" operator="in"></feComposite><feGaussianBlur stdDeviation="1"></feGaussianBlur><feOffset dx="-8" dy="-6" result="afterOffset"></feOffset><feFlood flood-color="#ffffff" flood-opacity="0.5"></feFlood><feComposite in2="afterOffset" operator="in"></feComposite><feMorphology operator="dilate" radius="1"></feMorphology><feComposite in2="SourceAlpha" operator="out"></feComposite></filter><path d="M471.62 497.72C471.62 513.71 484.63 526.72 500.62 526.72C516.61 526.72 529.62 513.71 529.62 497.72C529.62 481.73 516.61 468.72 500.62 468.72C484.63 468.72 471.62 481.73 471.62 497.72Z" id="aWHI2JWkl" fill="white" fill-opacity="1" filter="url(#shadow15022087)"></path></g><use xlink:href="#bLoM8CovS" opacity="1" fill="#4b4b4b" fill-opacity="1"></use><g><use xlink:href="#bLoM8CovS" opacity="1" fill-opacity="0" stroke="#000000" stroke-width="1" stroke-opacity="0"></use></g></g><g><g><filter id="shadow7001493" x="356.62" y="361.32" width="296" height="278.8" filterUnits="userSpaceOnUse" primitiveUnits="userSpaceOnUse"><feFlood></feFlood><feComposite in2="SourceAlpha" operator="in"></feComposite><feGaussianBlur stdDeviation="1"></feGaussianBlur><feOffset dx="-8" dy="-6" result="afterOffset"></feOffset><feFlood flood-color="#ffffff" flood-opacity="0.5"></feFlood><feComposite in2="afterOffset" operator="in"></feComposite><feMorphology operator="dilate" radius="1"></feMorphology><feComposite in2="SourceAlpha" operator="out"></feComposite></filter><path d="M457.81 377.36L458.31 377.4L458.81 377.46L459.3 377.54L459.79 377.64L460.28 377.75L460.76 377.88L461.24 378.03L461.71 378.19L462.18 378.38L462.64 378.58L463.09 378.79L463.54 379.03L463.98 379.28L464.41 379.54L464.83 379.83L465.24 380.13L465.64 380.44L466.03 380.77L466.41 381.12L466.78 381.49L467.14 381.87L467.48 382.26L467.82 382.67L468.14 383.1L480.39 400.14L480.61 400.43L480.84 400.72L481.07 401.01L481.31 401.28L481.55 401.55L481.81 401.82L482.06 402.07L482.33 402.32L482.59 402.57L482.87 402.8L483.15 403.03L483.43 403.25L483.72 403.46L484.02 403.67L484.32 403.87L484.62 404.06L484.93 404.24L485.24 404.42L485.56 404.58L485.88 404.74L486.21 404.89L486.53 405.03L486.87 405.17L487.2 405.29L487.54 405.41L487.88 405.51L488.23 405.61L488.57 405.7L488.92 405.78L489.27 405.85L489.63 405.92L489.98 405.97L490.34 406.01L490.7 406.05L491.06 406.07L491.43 406.08L491.79 406.09L492.15 406.08L492.52 406.07L492.89 406.04L493.08 406.02L493.27 406.01L493.46 405.99L493.65 405.98L493.84 405.96L494.04 405.95L494.23 405.93L494.42 405.92L494.61 405.91L494.81 405.9L495 405.88L495.19 405.87L495.38 405.86L495.58 405.85L495.77 405.84L495.96 405.83L496.15 405.82L496.35 405.81L496.54 405.8L496.73 405.79L496.93 405.78L497.12 405.78L497.31 405.77L497.51 405.76L497.7 405.76L497.9 405.75L498.09 405.74L498.28 405.74L498.48 405.73L498.67 405.73L498.87 405.72L499.06 405.72L499.26 405.72L499.45 405.72L499.65 405.71L499.84 405.71L500.04 405.71L500.23 405.71L500.43 405.71L500.62 405.71L500.82 405.71L501.01 405.71L501.21 405.71L501.4 405.71L501.6 405.71L501.79 405.72L501.99 405.72L502.18 405.72L502.38 405.72L502.57 405.73L502.77 405.73L502.96 405.74L503.16 405.74L503.35 405.75L503.54 405.76L503.74 405.76L503.93 405.77L504.12 405.78L504.32 405.78L504.51 405.79L504.71 405.8L504.9 405.81L505.09 405.82L505.28 405.83L505.48 405.84L505.67 405.85L505.86 405.86L506.06 405.87L506.25 405.88L506.44 405.9L506.63 405.91L506.82 405.92L507.02 405.93L507.21 405.95L507.4 405.96L507.59 405.98L507.78 405.99L507.98 406.01L508.17 406.02L508.36 406.04L508.73 406.07L509.09 406.08L509.46 406.09L509.82 406.08L510.18 406.07L510.54 406.05L510.9 406.01L511.26 405.97L511.62 405.92L511.97 405.85L512.32 405.78L512.67 405.7L513.02 405.61L513.36 405.51L513.71 405.41L514.04 405.29L514.38 405.17L514.71 405.03L515.04 404.89L515.36 404.74L515.69 404.58L516 404.42L516.32 404.24L516.62 404.06L516.93 403.87L517.23 403.67L517.52 403.46L517.81 403.25L518.1 403.03L518.38 402.8L518.65 402.57L518.92 402.32L519.18 402.07L519.44 401.82L519.69 401.55L519.94 401.28L520.17 401.01L520.41 400.72L520.63 400.43L520.85 400.14L533.11 383.1L533.43 382.67L533.76 382.26L534.1 381.87L534.46 381.49L534.83 381.12L535.21 380.78L535.6 380.44L536.01 380.13L536.42 379.83L536.84 379.55L537.27 379.28L537.71 379.03L538.15 378.79L538.61 378.58L539.07 378.38L539.53 378.2L540.01 378.03L540.48 377.88L540.97 377.75L541.45 377.64L541.94 377.54L542.44 377.46L542.93 377.4L543.43 377.36L543.93 377.33L544.44 377.32L544.94 377.34L545.44 377.37L545.94 377.41L546.45 377.48L546.95 377.56L547.44 377.67L547.94 377.79L548.43 377.93L548.92 378.09L549.41 378.27L549.89 378.47L550.37 378.69L550.84 378.93L551.31 379.18L577.94 394.56L578.39 394.83L578.83 395.12L579.26 395.43L579.68 395.75L580.07 396.08L580.46 396.42L580.83 396.78L581.18 397.15L581.52 397.53L581.84 397.92L582.15 398.32L582.45 398.73L582.72 399.15L582.98 399.58L583.23 400.02L583.46 400.46L583.67 400.92L583.86 401.38L584.04 401.85L584.21 402.32L584.35 402.8L584.48 403.28L584.59 403.77L584.68 404.26L584.76 404.76L584.81 405.25L584.85 405.76L584.87 406.26L584.88 406.76L584.86 407.27L584.83 407.78L584.77 408.28L584.7 408.79L584.61 409.29L584.5 409.8L584.37 410.3L584.22 410.8L584.05 411.3L583.86 411.79L583.65 412.28L574.93 431.62L574.78 431.96L574.64 432.3L574.52 432.64L574.4 432.99L574.29 433.33L574.19 433.68L574.1 434.03L574.02 434.39L573.95 434.74L573.89 435.09L573.84 435.45L573.8 435.81L573.77 436.16L573.74 436.52L573.73 436.88L573.72 437.23L573.73 437.59L573.74 437.95L573.77 438.3L573.8 438.66L573.84 439.01L573.89 439.37L573.95 439.72L574.02 440.07L574.1 440.42L574.18 440.77L574.28 441.12L574.38 441.46L574.49 441.8L574.61 442.14L574.74 442.48L574.88 442.81L575.03 443.15L575.19 443.47L575.35 443.8L575.52 444.12L575.7 444.44L575.89 444.75L576.09 445.07L576.3 445.37L576.51 445.68L576.72 445.99L576.93 446.3L577.14 446.61L577.35 446.92L577.56 447.24L577.76 447.55L577.97 447.86L578.17 448.18L578.37 448.5L578.57 448.81L578.77 449.13L578.97 449.45L579.17 449.77L579.36 450.09L579.55 450.41L579.75 450.74L579.94 451.06L580.13 451.38L580.32 451.71L580.51 452.03L580.69 452.36L580.88 452.69L581.06 453.02L581.24 453.35L581.42 453.68L581.6 454.01L581.78 454.34L581.96 454.67L582.14 455.01L582.31 455.34L582.48 455.68L582.65 456.01L582.82 456.35L582.99 456.68L583.16 457.02L583.33 457.36L583.49 457.7L583.66 458.04L583.82 458.38L583.98 458.72L584.15 459.04L584.33 459.36L584.51 459.68L584.71 459.99L584.91 460.29L585.11 460.59L585.33 460.88L585.55 461.17L585.77 461.45L586.01 461.73L586.25 461.99L586.49 462.25L586.74 462.51L587 462.76L587.27 463L587.54 463.23L587.81 463.46L588.09 463.68L588.38 463.89L588.67 464.1L588.97 464.29L589.27 464.48L589.58 464.67L589.89 464.84L590.2 465.01L590.52 465.16L590.85 465.31L591.18 465.46L591.51 465.59L591.85 465.71L592.19 465.83L592.53 465.94L592.88 466.03L593.23 466.12L593.59 466.2L593.94 466.27L594.3 466.33L594.67 466.38L595.03 466.43L616.14 468.54L616.66 468.61L617.19 468.69L617.7 468.79L618.21 468.91L618.71 469.05L619.2 469.21L619.68 469.38L620.16 469.57L620.62 469.78L621.08 470L621.52 470.24L621.96 470.49L622.39 470.76L622.8 471.05L623.2 471.35L623.59 471.66L623.97 471.99L624.34 472.33L624.7 472.68L625.04 473.04L625.37 473.42L625.68 473.81L625.98 474.21L626.27 474.62L626.54 475.04L626.8 475.47L627.04 475.91L627.27 476.36L627.48 476.82L627.67 477.29L627.85 477.76L628 478.24L628.15 478.74L628.27 479.23L628.38 479.74L628.46 480.25L628.53 480.77L628.58 481.29L628.61 481.82L628.62 482.35L628.62 513.1L628.61 513.63L628.58 514.16L628.53 514.68L628.46 515.2L628.38 515.71L628.27 516.21L628.15 516.71L628 517.2L627.85 517.68L627.67 518.16L627.48 518.63L627.27 519.09L627.04 519.54L626.8 519.98L626.54 520.41L626.27 520.83L625.98 521.24L625.68 521.64L625.37 522.03L625.04 522.41L624.7 522.77L624.34 523.12L623.97 523.46L623.59 523.79L623.2 524.1L622.8 524.4L622.39 524.68L621.96 524.95L621.52 525.21L621.08 525.45L620.62 525.67L620.16 525.88L619.68 526.07L619.2 526.24L618.71 526.4L618.21 526.54L617.7 526.66L617.19 526.76L616.67 526.84L616.14 526.9L595.04 529.02L594.67 529.06L594.3 529.11L593.94 529.17L593.59 529.24L593.23 529.32L592.88 529.41L592.53 529.51L592.19 529.62L591.85 529.73L591.51 529.86L591.18 529.99L590.85 530.13L590.52 530.28L590.2 530.44L589.89 530.61L589.58 530.78L589.27 530.96L588.97 531.15L588.67 531.35L588.38 531.55L588.09 531.77L587.81 531.99L587.54 532.21L587.27 532.45L587 532.69L586.74 532.94L586.49 533.19L586.25 533.45L586.01 533.72L585.77 533.99L585.55 534.28L585.33 534.56L585.11 534.85L584.91 535.15L584.71 535.46L584.51 535.77L584.33 536.08L584.15 536.4L583.98 536.73L583.82 537.06L583.66 537.4L583.49 537.74L583.33 538.08L583.16 538.42L582.99 538.76L582.83 539.1L582.66 539.44L582.48 539.77L582.31 540.11L582.14 540.44L581.96 540.77L581.78 541.11L581.6 541.44L581.42 541.77L581.24 542.1L581.06 542.43L580.88 542.76L580.69 543.08L580.51 543.41L580.32 543.74L580.13 544.06L579.94 544.39L579.75 544.71L579.56 545.03L579.36 545.36L579.17 545.68L578.97 546L578.77 546.32L578.57 546.63L578.37 546.95L578.17 547.27L577.97 547.58L577.76 547.9L577.56 548.21L577.35 548.53L577.14 548.84L576.94 549.15L576.73 549.46L576.51 549.77L576.3 550.08L576.09 550.38L575.9 550.7L575.71 551.01L575.52 551.33L575.35 551.65L575.19 551.98L575.03 552.3L574.88 552.64L574.75 552.97L574.62 553.31L574.49 553.65L574.38 553.99L574.28 554.33L574.18 554.68L574.1 555.03L574.02 555.38L573.95 555.73L573.89 556.08L573.84 556.43L573.8 556.79L573.77 557.14L573.75 557.5L573.73 557.86L573.73 558.21L573.73 558.57L573.75 558.93L573.77 559.29L573.8 559.64L573.84 560L573.89 560.35L573.95 560.71L574.03 561.06L574.1 561.41L574.19 561.77L574.29 562.11L574.4 562.46L574.52 562.81L574.65 563.15L574.78 563.49L574.93 563.83L583.65 583.17L583.86 583.66L584.05 584.15L584.22 584.65L584.37 585.15L584.5 585.65L584.61 586.15L584.7 586.66L584.77 587.17L584.83 587.67L584.86 588.18L584.88 588.68L584.87 589.19L584.85 589.69L584.81 590.19L584.76 590.69L584.68 591.19L584.59 591.68L584.48 592.17L584.35 592.65L584.21 593.13L584.04 593.6L583.87 594.07L583.67 594.53L583.46 594.98L583.23 595.43L582.99 595.87L582.72 596.3L582.45 596.72L582.15 597.13L581.85 597.53L581.52 597.92L581.18 598.3L580.83 598.67L580.46 599.03L580.08 599.37L579.68 599.7L579.26 600.02L578.84 600.32L578.4 600.61L577.94 600.89L551.31 616.26L550.84 616.52L550.37 616.76L549.89 616.98L549.41 617.17L548.93 617.35L548.44 617.51L547.94 617.66L547.45 617.78L546.95 617.88L546.45 617.97L545.94 618.03L545.44 618.08L544.94 618.11L544.44 618.12L543.93 618.12L543.43 618.09L542.94 618.05L542.44 617.99L541.95 617.91L541.45 617.81L540.97 617.7L540.49 617.57L540.01 617.42L539.54 617.25L539.07 617.07L538.61 616.87L538.15 616.65L537.71 616.42L537.27 616.17L536.84 615.9L536.42 615.62L536.01 615.32L535.61 615L535.21 614.67L534.83 614.32L534.46 613.96L534.11 613.58L533.76 613.19L533.43 612.77L533.11 612.35L520.85 595.31L520.63 595.02L520.41 594.73L520.18 594.44L519.94 594.17L519.69 593.9L519.44 593.63L519.18 593.38L518.92 593.13L518.65 592.88L518.38 592.65L518.1 592.42L517.81 592.2L517.52 591.99L517.23 591.78L516.93 591.58L516.62 591.39L516.32 591.21L516 591.03L515.69 590.87L515.37 590.71L515.04 590.56L514.71 590.42L514.38 590.28L514.04 590.16L513.71 590.04L513.37 589.93L513.02 589.84L512.67 589.75L512.32 589.67L511.97 589.59L511.62 589.53L511.26 589.48L510.9 589.44L510.55 589.4L510.18 589.38L509.82 589.37L509.46 589.36L509.09 589.37L508.73 589.38L508.36 589.41L508.17 589.43L507.98 589.44L507.79 589.46L507.59 589.47L507.4 589.49L507.21 589.5L507.02 589.52L506.83 589.53L506.63 589.54L506.44 589.55L506.25 589.57L506.06 589.58L505.86 589.59L505.67 589.6L505.48 589.61L505.29 589.62L505.09 589.63L504.9 589.64L504.71 589.65L504.51 589.66L504.32 589.67L504.13 589.67L503.93 589.68L503.74 589.69L503.54 589.69L503.35 589.7L503.16 589.71L502.96 589.71L502.77 589.72L502.57 589.72L502.38 589.73L502.19 589.73L501.99 589.73L501.8 589.74L501.6 589.74L501.41 589.74L501.21 589.74L501.02 589.74L500.82 589.74L500.63 589.74L500.43 589.74L500.23 589.74L500.04 589.74L499.84 589.74L499.65 589.74L499.45 589.74L499.26 589.73L499.06 589.73L498.87 589.73L498.67 589.72L498.48 589.72L498.29 589.71L498.09 589.71L497.9 589.7L497.7 589.69L497.51 589.69L497.32 589.68L497.12 589.67L496.93 589.67L496.73 589.66L496.54 589.65L496.35 589.64L496.16 589.63L495.96 589.62L495.77 589.61L495.58 589.6L495.38 589.59L495.19 589.58L495 589.57L494.81 589.55L494.61 589.54L494.42 589.53L494.23 589.52L494.04 589.5L493.85 589.49L493.65 589.47L493.46 589.46L493.27 589.44L493.08 589.43L492.89 589.41L492.52 589.38L492.16 589.37L491.79 589.36L491.43 589.37L491.06 589.38L490.7 589.4L490.34 589.44L489.98 589.48L489.63 589.53L489.27 589.59L488.92 589.67L488.57 589.75L488.23 589.84L487.88 589.93L487.54 590.04L487.2 590.16L486.87 590.28L486.54 590.42L486.21 590.56L485.88 590.71L485.56 590.87L485.24 591.03L484.93 591.21L484.62 591.39L484.32 591.58L484.02 591.78L483.72 591.99L483.43 592.2L483.15 592.42L482.87 592.65L482.6 592.88L482.33 593.13L482.06 593.38L481.81 593.63L481.55 593.9L481.31 594.17L481.07 594.44L480.84 594.73L480.61 595.02L480.39 595.31L468.14 612.35L467.82 612.77L467.49 613.19L467.14 613.58L466.78 613.96L466.41 614.32L466.03 614.67L465.64 615L465.24 615.32L464.83 615.62L464.41 615.9L463.98 616.17L463.54 616.42L463.09 616.65L462.64 616.87L462.18 617.07L461.71 617.25L461.24 617.42L460.76 617.57L460.28 617.7L459.79 617.81L459.3 617.91L458.81 617.99L458.31 618.05L457.81 618.09L457.31 618.12L456.81 618.12L456.31 618.11L455.8 618.08L455.3 618.03L454.8 617.97L454.3 617.88L453.8 617.78L453.3 617.66L452.81 617.51L452.32 617.35L451.83 617.17L451.35 616.98L450.88 616.76L450.4 616.52L449.94 616.26L423.31 600.89L422.85 600.61L422.41 600.32L421.98 600.02L421.57 599.7L421.17 599.37L420.79 599.03L420.42 598.67L420.06 598.3L419.73 597.92L419.4 597.53L419.09 597.13L418.8 596.72L418.52 596.3L418.26 595.87L418.02 595.43L417.79 594.98L417.58 594.53L417.38 594.07L417.2 593.6L417.04 593.13L416.9 592.65L416.77 592.17L416.66 591.68L416.57 591.19L416.49 590.69L416.43 590.19L416.39 589.69L416.37 589.19L416.37 588.68L416.39 588.18L416.42 587.67L416.47 587.17L416.55 586.66L416.64 586.15L416.75 585.65L416.88 585.15L417.03 584.65L417.2 584.15L417.39 583.66L417.6 583.17L426.32 563.83L426.46 563.49L426.6 563.15L426.73 562.81L426.85 562.46L426.96 562.11L427.05 561.77L427.14 561.41L427.22 561.06L427.29 560.71L427.35 560.35L427.4 560L427.45 559.64L427.48 559.29L427.5 558.93L427.52 558.57L427.52 558.21L427.52 557.86L427.5 557.5L427.48 557.14L427.45 556.79L427.41 556.43L427.36 556.08L427.3 555.73L427.23 555.38L427.15 555.03L427.06 554.68L426.97 554.33L426.87 553.99L426.75 553.65L426.63 553.31L426.5 552.97L426.36 552.64L426.22 552.3L426.06 551.98L425.9 551.65L425.72 551.33L425.54 551.01L425.35 550.7L425.15 550.38L424.95 550.08L424.73 549.77L424.52 549.46L424.31 549.15L424.1 548.84L423.9 548.53L423.69 548.21L423.48 547.9L423.28 547.58L423.08 547.27L422.87 546.95L422.67 546.63L422.48 546.32L422.28 546L422.08 545.68L421.89 545.36L421.69 545.03L421.5 544.71L421.31 544.39L421.12 544.06L420.93 543.74L420.74 543.41L420.55 543.08L420.37 542.76L420.19 542.43L420 542.1L419.82 541.77L419.64 541.44L419.46 541.11L419.29 540.77L419.11 540.44L418.94 540.11L418.76 539.77L418.59 539.44L418.42 539.1L418.25 538.76L418.09 538.42L417.92 538.08L417.75 537.74L417.59 537.4L417.43 537.06L417.27 536.73L417.1 536.4L416.92 536.08L416.73 535.77L416.54 535.46L416.34 535.15L416.14 534.85L415.92 534.56L415.7 534.28L415.47 533.99L415.24 533.72L415 533.45L414.76 533.19L414.5 532.94L414.24 532.69L413.98 532.45L413.71 532.21L413.44 531.99L413.15 531.77L412.87 531.55L412.58 531.35L412.28 531.15L411.98 530.96L411.67 530.78L411.36 530.61L411.04 530.44L410.72 530.28L410.4 530.13L410.07 529.99L409.74 529.86L409.4 529.73L409.06 529.62L408.72 529.51L408.37 529.41L408.02 529.32L407.66 529.24L407.3 529.17L406.94 529.11L406.58 529.06L406.21 529.02L385.11 526.9L384.58 526.84L384.06 526.76L383.55 526.66L383.04 526.54L382.54 526.4L382.05 526.24L381.56 526.07L381.09 525.88L380.62 525.67L380.17 525.45L379.72 525.21L379.29 524.95L378.86 524.68L378.45 524.4L378.04 524.1L377.65 523.79L377.27 523.46L376.9 523.12L376.55 522.77L376.21 522.41L375.88 522.03L375.56 521.64L375.26 521.24L374.98 520.83L374.7 520.41L374.45 519.98L374.21 519.54L373.98 519.09L373.77 518.63L373.58 518.16L373.4 517.68L373.24 517.2L373.1 516.71L372.97 516.21L372.87 515.71L372.78 515.2L372.71 514.68L372.66 514.16L372.63 513.63L372.62 513.1L372.62 482.35L372.63 481.82L372.66 481.29L372.71 480.77L372.78 480.25L372.87 479.74L372.97 479.23L373.1 478.74L373.24 478.24L373.4 477.76L373.58 477.29L373.77 476.82L373.98 476.36L374.21 475.91L374.45 475.47L374.7 475.04L374.98 474.62L375.26 474.21L375.56 473.81L375.88 473.42L376.21 473.04L376.55 472.68L376.9 472.32L377.27 471.99L377.65 471.66L378.04 471.35L378.45 471.05L378.86 470.76L379.29 470.49L379.72 470.24L380.17 470L380.62 469.78L381.09 469.57L381.56 469.38L382.05 469.21L382.54 469.05L383.04 468.91L383.55 468.79L384.06 468.69L384.58 468.61L385.11 468.54L406.21 466.43L406.58 466.38L406.94 466.33L407.3 466.27L407.66 466.2L408.02 466.12L408.37 466.03L408.72 465.94L409.06 465.83L409.4 465.71L409.74 465.59L410.07 465.46L410.4 465.31L410.72 465.16L411.04 465.01L411.36 464.84L411.67 464.67L411.98 464.48L412.28 464.29L412.58 464.1L412.87 463.89L413.15 463.68L413.44 463.46L413.71 463.23L413.98 463L414.25 462.76L414.5 462.51L414.76 462.25L415 461.99L415.24 461.72L415.47 461.45L415.7 461.17L415.92 460.88L416.14 460.59L416.34 460.29L416.54 459.99L416.73 459.68L416.92 459.36L417.1 459.04L417.27 458.71L417.43 458.38L417.59 458.04L417.75 457.7L417.92 457.36L418.09 457.02L418.25 456.68L418.42 456.35L418.59 456.01L418.76 455.67L418.94 455.34L419.11 455.01L419.29 454.67L419.46 454.34L419.64 454.01L419.82 453.68L420 453.35L420.19 453.02L420.37 452.69L420.55 452.36L420.74 452.03L420.93 451.71L421.12 451.38L421.31 451.06L421.5 450.74L421.69 450.41L421.89 450.09L422.08 449.77L422.28 449.45L422.48 449.13L422.67 448.81L422.87 448.5L423.08 448.18L423.28 447.86L423.48 447.55L423.69 447.24L423.9 446.92L424.1 446.61L424.31 446.3L424.52 445.99L424.73 445.68L424.95 445.37L425.15 445.06L425.35 444.75L425.54 444.44L425.72 444.12L425.9 443.8L426.06 443.47L426.22 443.14L426.36 442.81L426.5 442.48L426.63 442.14L426.75 441.8L426.87 441.46L426.97 441.12L427.06 440.77L427.15 440.42L427.23 440.07L427.3 439.72L427.36 439.37L427.41 439.01L427.45 438.66L427.48 438.3L427.5 437.95L427.52 437.59L427.52 437.23L427.52 436.88L427.5 436.52L427.48 436.16L427.45 435.8L427.4 435.45L427.35 435.09L427.29 434.74L427.22 434.39L427.14 434.03L427.05 433.68L426.96 433.33L426.85 432.99L426.73 432.64L426.6 432.3L426.46 431.96L426.32 431.62L417.6 412.28L417.39 411.79L417.2 411.3L417.03 410.8L416.88 410.3L416.75 409.8L416.64 409.29L416.55 408.79L416.47 408.28L416.42 407.78L416.39 407.27L416.37 406.76L416.37 406.26L416.39 405.76L416.43 405.25L416.49 404.76L416.57 404.26L416.66 403.77L416.77 403.28L416.9 402.8L417.04 402.32L417.2 401.85L417.38 401.38L417.58 400.92L417.79 400.46L418.02 400.02L418.26 399.58L418.52 399.15L418.8 398.73L419.09 398.32L419.4 397.92L419.72 397.53L420.06 397.15L420.42 396.78L420.79 396.42L421.17 396.08L421.57 395.75L421.98 395.43L422.41 395.12L422.85 394.83L423.31 394.56L449.94 379.18L450.4 378.93L450.87 378.69L451.35 378.47L451.83 378.27L452.32 378.09L452.81 377.93L453.3 377.79L453.8 377.67L454.3 377.56L454.8 377.48L455.3 377.41L455.8 377.36L456.31 377.34L456.81 377.32L457.31 377.33L457.81 377.36ZM496.94 452.87L495.13 453.06L493.34 453.31L491.57 453.64L489.82 454.03L488.11 454.49L486.42 455.02L484.76 455.61L483.13 456.26L481.53 456.98L479.96 457.75L478.43 458.59L476.94 459.47L475.48 460.42L474.07 461.42L472.69 462.47L471.36 463.57L470.07 464.72L468.82 465.92L467.62 467.16L466.47 468.45L465.37 469.79L464.32 471.16L463.32 472.58L462.38 474.04L461.49 475.53L460.66 477.06L459.88 478.63L459.17 480.22L458.51 481.85L457.92 483.51L457.4 485.2L456.93 486.92L456.54 488.67L456.21 490.43L455.96 492.22L455.77 494.04L455.66 495.87L455.62 497.72L455.66 499.57L455.77 501.41L455.96 503.22L456.21 505.01L456.54 506.78L456.93 508.52L457.4 510.24L457.92 511.93L458.51 513.59L459.17 515.22L459.88 516.82L460.66 518.39L461.49 519.92L462.38 521.41L463.32 522.87L464.32 524.28L465.37 525.66L466.47 526.99L467.62 528.28L468.82 529.53L470.07 530.73L471.36 531.88L472.69 532.98L474.07 534.03L475.48 535.03L476.94 535.97L478.43 536.86L479.96 537.69L481.53 538.47L483.13 539.18L484.76 539.83L486.42 540.43L488.11 540.95L489.82 541.41L491.57 541.81L493.34 542.13L495.13 542.39L496.94 542.57L498.77 542.69L500.62 542.72L502.48 542.69L504.31 542.57L506.12 542.39L507.91 542.13L509.68 541.81L511.43 541.41L513.14 540.95L514.83 540.43L516.49 539.83L518.12 539.18L519.72 538.47L521.29 537.69L522.82 536.86L524.31 535.97L525.77 535.03L527.18 534.03L528.56 532.98L529.89 531.88L531.18 530.73L532.43 529.53L533.63 528.28L534.78 526.99L535.88 525.66L536.93 524.28L537.93 522.87L538.87 521.41L539.76 519.92L540.59 518.39L541.37 516.82L542.08 515.22L542.74 513.59L543.33 511.93L543.85 510.24L544.31 508.52L544.71 506.78L545.03 505.01L545.29 503.22L545.48 501.41L545.59 499.57L545.62 497.72L545.59 495.87L545.48 494.04L545.29 492.22L545.03 490.43L544.71 488.67L544.31 486.92L543.85 485.2L543.33 483.51L542.74 481.85L542.08 480.22L541.37 478.63L540.59 477.06L539.76 475.53L538.87 474.04L537.93 472.58L536.93 471.16L535.88 469.79L534.78 468.45L533.63 467.16L532.43 465.92L531.18 464.72L529.89 463.57L528.56 462.47L527.18 461.42L525.77 460.42L524.31 459.47L522.82 458.59L521.29 457.75L519.72 456.98L518.12 456.26L516.49 455.61L514.83 455.02L513.14 454.49L511.43 454.03L509.68 453.64L507.91 453.31L506.12 453.06L504.31 452.87L502.48 452.76L500.62 452.72L498.77 452.76L496.94 452.87Z" id="b9O1w7Fgc" fill="white" fill-opacity="1" filter="url(#shadow7001493)"></path></g><use xlink:href="#b5gxPZgRBm" opacity="1" fill="#4b4b4b" fill-opacity="1"></use><g><use xlink:href="#b5gxPZgRBm" opacity="1" fill-opacity="0" stroke="#000000" stroke-width="1" stroke-opacity="0"></use></g></g></g></g></svg>