<?xml version="1.0" encoding="UTF-8" standalone="no"?>
<!DOCTYPE svg PUBLIC "-//W3C//DTD SVG 1.1//EN" "http://www.w3.org/Graphics/SVG/1.1/DTD/svg11.dtd">
<svg version="1.1" xmlns="http://www.w3.org/2000/svg" xmlns:xlink="http://www.w3.org/1999/xlink" preserveAspectRatio="xMidYMid meet" viewBox="0 0 640 640" width="256" height="256"><defs><path d="M326.76 623C419.93 623 505.91 612.48 575.22 594.87C587.15 591.84 594.54 580.1 592.36 567.97C591.85 565.12 591.1 562.44 590.48 559.66C590.37 559.16 590.26 558.64 590.14 558.14C589.48 555.27 588.94 552.29 588.19 549.51C586.87 544.59 585.45 539.85 583.74 535.31C583 533.02 582.07 530.96 581.23 528.78C581.18 528.63 581.12 528.48 581.06 528.34C580.12 525.9 579.27 523.34 578.25 521.01C569.54 500.37 558.94 484.75 550.51 477.08C539.71 467.13 490.85 442.33 449.2 421.12C418.8 405.49 401.66 391.96 396.74 387.5C396.74 385.75 396.74 376.97 396.74 361.18C396.74 352.49 396.74 347.67 396.74 346.7C399.01 345.84 401.19 344.24 403.27 341.96C403.65 341.59 404.03 341.2 404.31 340.73C410.09 334.2 414.82 326.82 417.19 319.9C417.47 319.05 417.76 318.2 418.04 317.35C423.25 302.57 427.22 285.92 427.98 281.17C428.07 280.7 428.07 280.32 428.17 279.94C430.35 280.6 432.43 280.89 434.23 280.89C456.2 280.89 465.2 235.91 466.43 224.08C467.75 212.15 457.14 204.01 453.26 200.88C454.11 198.98 455.15 196.15 456.2 192.83C456.29 192.64 456.39 192.36 456.48 192.08C457.81 188 459.7 182.51 461.4 174.85C462.44 170.29 463.39 164.9 464.25 158.55C464.81 154.67 464.91 150.51 464.72 146.44C464.43 137.92 462.63 129.1 459.51 121.06C456.96 114.05 453.35 107.61 449 102.41C448.99 102.4 448.92 102.32 448.91 102.31C445.87 98.72 442.47 95.02 438.86 91.7C424.67 77.97 407.91 66.89 400.05 66.89C384.14 38.3 363.78 19.75 326.1 17.19C323.83 17.09 321.56 17.09 319.09 17C319.04 17 318.66 17 318.62 17C290.21 17 242.3 41.43 217.87 74.76C217.87 74.86 217.87 74.86 217.87 74.86C215.41 78.17 213.23 81.57 211.34 84.99C208.12 90.85 205.18 96.35 202.72 101.56C198.75 109.98 195.71 117.84 193.82 125.69C192.68 129.39 191.93 133.17 191.55 137.06C189.94 148.04 190.22 159.69 192.4 173.7C192.4 173.71 192.4 173.79 192.4 173.8C193.25 179.58 194.39 185.83 195.91 192.54C196 192.64 196 192.74 196 192.83C197.14 196.15 198.08 198.98 199.12 200.88C195.33 204.01 185.96 209.21 187.1 221.05C188.32 232.97 196 280.89 217.96 280.89C219.94 280.89 222.02 280.6 224.28 279.95C224.29 279.95 224.3 279.95 224.31 279.95C224.69 283.74 226.68 294.53 230.75 305.51C231.89 308.72 233.21 312.8 234.63 317.06C234.91 317.91 235.2 318.67 235.48 319.52C237.85 326.34 242.3 333.72 247.89 340.06C248.46 340.73 249.12 341.4 249.69 342.05C251.77 344.24 253.95 345.84 256.22 346.7C256.22 347.65 256.22 352.38 256.22 360.9C256.22 376.86 256.22 385.73 256.22 387.5C251.39 391.96 234.16 405.59 203.86 421.12C162.2 442.42 113.53 467.24 102.73 477.08C94.31 484.66 83.7 500.38 74.9 521.01C73 525.56 71.1 530.3 69.4 535.31C67.79 539.85 66.28 544.59 65.05 549.51C63.34 555.48 62.02 561.63 60.88 567.98C58.8 580.1 66.19 591.74 78.02 594.77C147.42 612.48 233.5 623 326.76 623Z" id="b1Ta2fr4nz"></path><path d="M468.72 516.57C468.72 532.56 481.73 545.57 497.72 545.57C513.71 545.57 526.72 532.56 526.72 516.57C526.72 500.58 513.71 487.57 497.72 487.57C481.73 487.57 468.72 500.58 468.72 516.57Z" id="a11vf7w9qe"></path><path d="M454.91 396.21L455.41 396.25L455.91 396.31L456.4 396.39L456.89 396.48L457.38 396.6L457.86 396.73L458.34 396.88L458.81 397.04L459.28 397.23L459.74 397.43L460.19 397.64L460.64 397.88L461.08 398.13L461.51 398.39L461.93 398.68L462.34 398.98L462.74 399.29L463.13 399.62L463.51 399.97L463.88 400.33L464.24 400.71L464.59 401.11L464.92 401.52L465.24 401.95L477.49 418.99L477.71 419.28L477.94 419.57L478.17 419.85L478.41 420.13L478.65 420.4L478.91 420.67L479.16 420.92L479.43 421.17L479.69 421.41L479.97 421.65L480.25 421.88L480.53 422.1L480.82 422.31L481.12 422.52L481.42 422.72L481.72 422.91L482.03 423.09L482.34 423.26L482.66 423.43L482.98 423.59L483.31 423.74L483.63 423.88L483.97 424.02L484.3 424.14L484.64 424.26L484.98 424.36L485.33 424.46L485.67 424.55L486.02 424.63L486.37 424.7L486.73 424.77L487.08 424.82L487.44 424.86L487.8 424.89L488.16 424.92L488.53 424.93L488.89 424.94L489.25 424.93L489.62 424.91L489.99 424.89L490.18 424.87L490.37 424.86L490.56 424.84L490.75 424.83L490.95 424.81L491.14 424.8L491.33 424.78L491.52 424.77L491.71 424.76L491.91 424.74L492.1 424.73L492.29 424.72L492.48 424.71L492.68 424.7L492.87 424.69L493.06 424.68L493.25 424.67L493.45 424.66L493.64 424.65L493.83 424.64L494.03 424.63L494.22 424.62L494.41 424.62L494.61 424.61L494.8 424.6L495 424.6L495.19 424.59L495.39 424.59L495.58 424.58L495.77 424.58L495.97 424.57L496.16 424.57L496.36 424.57L496.55 424.56L496.75 424.56L496.94 424.56L497.14 424.56L497.33 424.56L497.53 424.56L497.72 424.56L497.92 424.56L498.11 424.56L498.31 424.56L498.51 424.56L498.7 424.56L498.89 424.56L499.09 424.57L499.28 424.57L499.48 424.57L499.67 424.58L499.87 424.58L500.06 424.59L500.26 424.59L500.45 424.6L500.64 424.6L500.84 424.61L501.03 424.62L501.23 424.62L501.42 424.63L501.61 424.64L501.81 424.65L502 424.66L502.19 424.67L502.38 424.68L502.58 424.69L502.77 424.7L502.96 424.71L503.16 424.72L503.35 424.73L503.54 424.74L503.73 424.76L503.92 424.77L504.12 424.78L504.31 424.8L504.5 424.81L504.69 424.83L504.88 424.84L505.08 424.86L505.27 424.87L505.46 424.89L505.83 424.91L506.19 424.93L506.56 424.94L506.92 424.93L507.28 424.92L507.64 424.89L508 424.86L508.36 424.82L508.72 424.77L509.07 424.7L509.42 424.63L509.77 424.55L510.12 424.46L510.46 424.36L510.81 424.26L511.14 424.14L511.48 424.02L511.81 423.88L512.14 423.74L512.46 423.59L512.79 423.43L513.1 423.26L513.42 423.09L513.72 422.91L514.03 422.72L514.33 422.52L514.62 422.31L514.91 422.1L515.2 421.88L515.48 421.65L515.75 421.41L516.02 421.17L516.28 420.92L516.54 420.67L516.79 420.4L517.04 420.13L517.27 419.85L517.51 419.57L517.73 419.28L517.95 418.99L530.21 401.95L530.53 401.52L530.86 401.11L531.21 400.71L531.56 400.34L531.93 399.97L532.31 399.62L532.7 399.29L533.11 398.98L533.52 398.68L533.94 398.39L534.37 398.13L534.81 397.88L535.25 397.64L535.71 397.43L536.17 397.23L536.63 397.04L537.11 396.88L537.58 396.73L538.07 396.6L538.55 396.48L539.04 396.39L539.54 396.31L540.03 396.25L540.53 396.21L541.03 396.18L541.54 396.17L542.04 396.18L542.54 396.21L543.04 396.26L543.55 396.33L544.05 396.41L544.54 396.52L545.04 396.64L545.53 396.78L546.02 396.94L546.51 397.12L546.99 397.32L547.47 397.54L547.94 397.78L548.41 398.03L575.04 413.41L575.49 413.68L575.93 413.97L576.36 414.28L576.78 414.59L577.17 414.93L577.56 415.27L577.93 415.63L578.28 416L578.62 416.37L578.95 416.77L579.25 417.17L579.55 417.58L579.82 418L580.08 418.43L580.33 418.87L580.56 419.31L580.77 419.77L580.97 420.23L581.14 420.69L581.31 421.17L581.45 421.65L581.58 422.13L581.69 422.62L581.78 423.11L581.86 423.6L581.91 424.1L581.95 424.6L581.97 425.11L581.98 425.61L581.96 426.12L581.93 426.63L581.87 427.13L581.8 427.64L581.71 428.14L581.6 428.65L581.47 429.15L581.32 429.65L581.15 430.14L580.96 430.64L580.75 431.13L572.03 450.47L571.88 450.81L571.74 451.15L571.62 451.49L571.5 451.84L571.39 452.18L571.29 452.53L571.2 452.88L571.12 453.23L571.05 453.59L570.99 453.94L570.94 454.3L570.9 454.65L570.87 455.01L570.84 455.37L570.83 455.72L570.83 456.08L570.83 456.44L570.84 456.8L570.87 457.15L570.9 457.51L570.94 457.86L570.99 458.22L571.05 458.57L571.12 458.92L571.2 459.27L571.28 459.62L571.38 459.96L571.48 460.31L571.59 460.65L571.71 460.99L571.84 461.33L571.98 461.66L572.13 461.99L572.29 462.32L572.45 462.65L572.62 462.97L572.81 463.29L573 463.6L573.19 463.91L573.4 464.22L573.61 464.53L573.82 464.84L574.03 465.15L574.24 465.46L574.45 465.77L574.66 466.08L574.86 466.4L575.07 466.71L575.27 467.03L575.47 467.34L575.67 467.66L575.87 467.98L576.07 468.3L576.27 468.62L576.46 468.94L576.65 469.26L576.85 469.58L577.04 469.91L577.23 470.23L577.42 470.56L577.61 470.88L577.79 471.21L577.98 471.54L578.16 471.87L578.34 472.2L578.52 472.53L578.7 472.86L578.88 473.19L579.06 473.52L579.24 473.85L579.41 474.19L579.58 474.52L579.75 474.86L579.93 475.2L580.09 475.53L580.26 475.87L580.43 476.21L580.59 476.55L580.76 476.89L580.92 477.23L581.08 477.56L581.25 477.89L581.43 478.21L581.61 478.53L581.81 478.84L582.01 479.14L582.21 479.44L582.43 479.73L582.65 480.02L582.87 480.3L583.11 480.57L583.35 480.84L583.59 481.1L583.84 481.36L584.1 481.61L584.37 481.85L584.64 482.08L584.91 482.31L585.19 482.53L585.48 482.74L585.77 482.95L586.07 483.14L586.37 483.33L586.68 483.51L586.99 483.69L587.3 483.85L587.62 484.01L587.95 484.16L588.28 484.3L588.61 484.44L588.95 484.56L589.29 484.68L589.63 484.78L589.98 484.88L590.33 484.97L590.69 485.05L591.04 485.12L591.4 485.18L591.77 485.23L592.13 485.27L613.24 487.39L613.76 487.46L614.29 487.54L614.8 487.64L615.31 487.76L615.81 487.9L616.3 488.05L616.78 488.23L617.26 488.42L617.72 488.63L618.18 488.85L618.62 489.09L619.06 489.34L619.49 489.61L619.9 489.9L620.3 490.2L620.69 490.51L621.07 490.83L621.44 491.17L621.8 491.53L622.14 491.89L622.47 492.27L622.78 492.66L623.08 493.05L623.37 493.47L623.64 493.89L623.9 494.32L624.14 494.76L624.37 495.21L624.58 495.67L624.77 496.13L624.95 496.61L625.1 497.09L625.25 497.58L625.37 498.08L625.48 498.59L625.56 499.1L625.63 499.61L625.68 500.14L625.71 500.66L625.72 501.2L625.72 531.95L625.71 532.48L625.68 533.01L625.63 533.53L625.56 534.05L625.48 534.56L625.37 535.06L625.25 535.56L625.1 536.05L624.95 536.53L624.77 537.01L624.58 537.48L624.37 537.94L624.14 538.39L623.9 538.83L623.64 539.26L623.37 539.68L623.08 540.09L622.78 540.49L622.47 540.88L622.14 541.25L621.8 541.62L621.44 541.97L621.07 542.31L620.69 542.64L620.3 542.95L619.9 543.25L619.49 543.53L619.06 543.8L618.62 544.06L618.18 544.3L617.72 544.52L617.26 544.73L616.78 544.92L616.3 545.09L615.81 545.25L615.31 545.38L614.8 545.5L614.29 545.61L613.77 545.69L613.24 545.75L592.14 547.87L591.77 547.91L591.41 547.96L591.04 548.02L590.69 548.09L590.33 548.17L589.98 548.26L589.63 548.36L589.29 548.47L588.95 548.58L588.61 548.71L588.28 548.84L587.95 548.98L587.62 549.13L587.3 549.29L586.99 549.45L586.68 549.63L586.37 549.81L586.07 550L585.77 550.2L585.48 550.4L585.19 550.62L584.91 550.84L584.64 551.06L584.37 551.3L584.1 551.54L583.84 551.79L583.59 552.04L583.35 552.3L583.11 552.57L582.87 552.84L582.65 553.12L582.43 553.41L582.21 553.7L582.01 554L581.81 554.31L581.61 554.62L581.43 554.93L581.25 555.25L581.08 555.58L580.92 555.91L580.76 556.25L580.59 556.59L580.43 556.93L580.26 557.27L580.09 557.61L579.93 557.95L579.76 558.28L579.58 558.62L579.41 558.95L579.24 559.29L579.06 559.62L578.88 559.95L578.7 560.29L578.53 560.62L578.34 560.95L578.16 561.28L577.98 561.61L577.79 561.93L577.61 562.26L577.42 562.59L577.23 562.91L577.04 563.24L576.85 563.56L576.66 563.88L576.46 564.2L576.27 564.52L576.07 564.85L575.87 565.16L575.67 565.48L575.47 565.8L575.27 566.12L575.07 566.43L574.86 566.75L574.66 567.06L574.45 567.37L574.24 567.69L574.04 568L573.83 568.31L573.61 568.62L573.4 568.93L573.19 569.23L573 569.54L572.81 569.86L572.62 570.18L572.45 570.5L572.29 570.82L572.13 571.15L571.98 571.48L571.85 571.82L571.72 572.16L571.59 572.49L571.48 572.84L571.38 573.18L571.28 573.53L571.2 573.87L571.12 574.22L571.05 574.58L570.99 574.93L570.94 575.28L570.9 575.64L570.87 575.99L570.85 576.35L570.83 576.71L570.83 577.06L570.83 577.42L570.85 577.78L570.87 578.13L570.9 578.49L570.94 578.85L570.99 579.2L571.06 579.56L571.13 579.91L571.2 580.26L571.29 580.61L571.39 580.96L571.5 581.31L571.62 581.66L571.75 582L571.88 582.34L572.03 582.68L580.75 602.02L580.96 602.51L581.15 603L581.32 603.5L581.47 604L581.6 604.5L581.71 605L581.8 605.51L581.87 606.01L581.93 606.52L581.96 607.03L581.98 607.53L581.97 608.04L581.95 608.54L581.91 609.04L581.86 609.54L581.78 610.04L581.69 610.53L581.58 611.02L581.45 611.5L581.31 611.98L581.15 612.45L580.97 612.92L580.77 613.38L580.56 613.83L580.33 614.28L580.09 614.72L579.82 615.14L579.55 615.57L579.26 615.98L578.95 616.38L578.62 616.77L578.28 617.15L577.93 617.52L577.56 617.87L577.18 618.22L576.78 618.55L576.36 618.87L575.94 619.17L575.5 619.46L575.04 619.74L548.41 635.11L547.94 635.37L547.47 635.61L546.99 635.82L546.51 636.02L546.03 636.2L545.54 636.36L545.04 636.5L544.55 636.63L544.05 636.73L543.55 636.82L543.04 636.88L542.54 636.93L542.04 636.96L541.54 636.97L541.04 636.96L540.53 636.94L540.04 636.9L539.54 636.83L539.05 636.76L538.55 636.66L538.07 636.55L537.59 636.41L537.11 636.27L536.64 636.1L536.17 635.92L535.71 635.72L535.26 635.5L534.81 635.27L534.37 635.02L533.94 634.75L533.52 634.47L533.11 634.17L532.71 633.85L532.31 633.52L531.93 633.17L531.56 632.81L531.21 632.43L530.86 632.03L530.53 631.62L530.21 631.2L517.95 614.16L517.73 613.87L517.51 613.58L517.28 613.29L517.04 613.02L516.79 612.75L516.54 612.48L516.28 612.23L516.02 611.98L515.75 611.73L515.48 611.5L515.2 611.27L514.91 611.05L514.62 610.84L514.33 610.63L514.03 610.43L513.72 610.24L513.42 610.06L513.1 609.88L512.79 609.72L512.47 609.56L512.14 609.41L511.81 609.26L511.48 609.13L511.15 609.01L510.81 608.89L510.47 608.78L510.12 608.68L509.77 608.59L509.42 608.51L509.07 608.44L508.72 608.38L508.36 608.33L508.01 608.29L507.65 608.25L507.28 608.23L506.92 608.21L506.56 608.21L506.19 608.22L505.83 608.23L505.46 608.26L505.27 608.28L505.08 608.29L504.89 608.31L504.69 608.32L504.5 608.34L504.31 608.35L504.12 608.36L503.93 608.38L503.73 608.39L503.54 608.4L503.35 608.41L503.16 608.43L502.96 608.44L502.77 608.45L502.58 608.46L502.39 608.47L502.19 608.48L502 608.49L501.81 608.5L501.61 608.51L501.42 608.51L501.23 608.52L501.03 608.53L500.84 608.54L500.64 608.54L500.45 608.55L500.26 608.56L500.06 608.56L499.87 608.57L499.67 608.57L499.48 608.57L499.29 608.58L499.09 608.58L498.9 608.58L498.7 608.59L498.51 608.59L498.31 608.59L498.12 608.59L497.92 608.59L497.73 608.59L497.53 608.59L497.33 608.59L497.14 608.59L496.94 608.59L496.75 608.59L496.55 608.58L496.36 608.58L496.16 608.58L495.97 608.57L495.77 608.57L495.58 608.57L495.39 608.56L495.19 608.56L495 608.55L494.8 608.54L494.61 608.54L494.42 608.53L494.22 608.52L494.03 608.51L493.84 608.51L493.64 608.5L493.45 608.49L493.26 608.48L493.06 608.47L492.87 608.46L492.68 608.45L492.48 608.44L492.29 608.43L492.1 608.41L491.91 608.4L491.71 608.39L491.52 608.38L491.33 608.36L491.14 608.35L490.95 608.34L490.75 608.32L490.56 608.31L490.37 608.29L490.18 608.28L489.99 608.26L489.62 608.23L489.26 608.22L488.89 608.21L488.53 608.21L488.16 608.23L487.8 608.25L487.44 608.29L487.08 608.33L486.73 608.38L486.37 608.44L486.02 608.51L485.67 608.59L485.33 608.68L484.98 608.78L484.64 608.89L484.3 609.01L483.97 609.13L483.64 609.26L483.31 609.41L482.98 609.56L482.66 609.72L482.34 609.88L482.03 610.06L481.72 610.24L481.42 610.43L481.12 610.63L480.82 610.84L480.53 611.05L480.25 611.27L479.97 611.5L479.7 611.73L479.43 611.98L479.16 612.23L478.91 612.48L478.66 612.75L478.41 613.02L478.17 613.29L477.94 613.58L477.71 613.87L477.49 614.16L465.24 631.2L464.92 631.62L464.59 632.03L464.24 632.43L463.88 632.81L463.51 633.17L463.13 633.52L462.74 633.85L462.34 634.17L461.93 634.47L461.51 634.75L461.08 635.02L460.64 635.27L460.19 635.5L459.74 635.72L459.28 635.92L458.81 636.1L458.34 636.27L457.86 636.41L457.38 636.55L456.89 636.66L456.4 636.76L455.91 636.83L455.41 636.9L454.91 636.94L454.41 636.96L453.91 636.97L453.41 636.96L452.9 636.93L452.4 636.88L451.9 636.82L451.4 636.73L450.9 636.63L450.4 636.5L449.91 636.36L449.42 636.2L448.93 636.02L448.45 635.82L447.98 635.61L447.5 635.37L447.04 635.11L420.41 619.74L419.95 619.46L419.51 619.17L419.08 618.87L418.67 618.55L418.27 618.22L417.89 617.87L417.52 617.52L417.16 617.15L416.83 616.77L416.5 616.38L416.19 615.98L415.9 615.57L415.62 615.14L415.36 614.72L415.12 614.28L414.89 613.83L414.68 613.38L414.48 612.92L414.3 612.45L414.14 611.98L414 611.5L413.87 611.02L413.76 610.53L413.67 610.04L413.59 609.54L413.53 609.04L413.49 608.54L413.47 608.04L413.47 607.53L413.49 607.03L413.52 606.52L413.58 606.01L413.65 605.51L413.74 605L413.85 604.5L413.98 604L414.13 603.5L414.3 603L414.49 602.51L414.7 602.02L423.42 582.68L423.56 582.34L423.7 582L423.83 581.66L423.95 581.31L424.06 580.96L424.15 580.61L424.24 580.26L424.32 579.91L424.39 579.56L424.45 579.2L424.51 578.85L424.55 578.49L424.58 578.13L424.6 577.78L424.62 577.42L424.62 577.06L424.62 576.71L424.6 576.35L424.58 575.99L424.55 575.64L424.51 575.28L424.46 574.93L424.4 574.58L424.33 574.22L424.25 573.87L424.16 573.53L424.07 573.18L423.97 572.84L423.85 572.49L423.73 572.16L423.6 571.82L423.46 571.48L423.32 571.15L423.16 570.82L423 570.5L422.82 570.18L422.64 569.86L422.45 569.54L422.25 569.23L422.05 568.93L421.83 568.62L421.62 568.31L421.41 568L421.2 567.69L421 567.37L420.79 567.06L420.58 566.75L420.38 566.43L420.18 566.12L419.97 565.8L419.77 565.48L419.58 565.16L419.38 564.85L419.18 564.53L418.99 564.2L418.79 563.88L418.6 563.56L418.41 563.24L418.22 562.91L418.03 562.59L417.84 562.26L417.66 561.93L417.47 561.61L417.29 561.28L417.1 560.95L416.92 560.62L416.74 560.29L416.56 559.95L416.39 559.62L416.21 559.29L416.04 558.95L415.86 558.62L415.69 558.28L415.52 557.95L415.35 557.61L415.19 557.27L415.02 556.93L414.85 556.59L414.69 556.25L414.53 555.91L414.37 555.58L414.2 555.25L414.02 554.93L413.83 554.62L413.64 554.31L413.44 554L413.24 553.7L413.02 553.41L412.8 553.12L412.57 552.84L412.34 552.57L412.1 552.3L411.86 552.04L411.6 551.79L411.35 551.54L411.08 551.3L410.81 551.06L410.54 550.84L410.25 550.62L409.97 550.4L409.68 550.2L409.38 550L409.08 549.81L408.77 549.63L408.46 549.45L408.14 549.29L407.82 549.13L407.5 548.98L407.17 548.84L406.84 548.71L406.5 548.58L406.16 548.47L405.82 548.36L405.47 548.26L405.12 548.17L404.76 548.09L404.4 548.02L404.04 547.96L403.68 547.91L403.31 547.87L382.21 545.75L381.68 545.69L381.16 545.61L380.65 545.5L380.14 545.38L379.64 545.25L379.15 545.09L378.66 544.92L378.19 544.73L377.72 544.52L377.27 544.3L376.82 544.06L376.39 543.8L375.96 543.53L375.55 543.25L375.14 542.95L374.75 542.64L374.37 542.31L374.01 541.97L373.65 541.62L373.31 541.25L372.98 540.88L372.66 540.49L372.36 540.09L372.08 539.68L371.8 539.26L371.55 538.83L371.31 538.39L371.08 537.94L370.87 537.48L370.68 537.01L370.5 536.53L370.34 536.05L370.2 535.56L370.07 535.06L369.97 534.56L369.88 534.05L369.81 533.53L369.76 533.01L369.73 532.48L369.72 531.95L369.72 501.2L369.73 500.66L369.76 500.14L369.81 499.61L369.88 499.1L369.97 498.59L370.07 498.08L370.2 497.58L370.34 497.09L370.5 496.61L370.68 496.13L370.87 495.67L371.08 495.21L371.31 494.76L371.55 494.32L371.8 493.89L372.08 493.47L372.36 493.05L372.66 492.66L372.98 492.27L373.31 491.89L373.65 491.53L374.01 491.17L374.37 490.83L374.75 490.51L375.14 490.2L375.55 489.9L375.96 489.61L376.39 489.34L376.82 489.09L377.27 488.85L377.72 488.63L378.19 488.42L378.66 488.23L379.15 488.05L379.64 487.9L380.14 487.76L380.65 487.64L381.16 487.54L381.68 487.45L382.21 487.39L403.31 485.27L403.68 485.23L404.04 485.18L404.4 485.12L404.76 485.05L405.12 484.97L405.47 484.88L405.82 484.78L406.16 484.68L406.5 484.56L406.84 484.44L407.17 484.3L407.5 484.16L407.82 484.01L408.14 483.85L408.46 483.69L408.77 483.51L409.08 483.33L409.38 483.14L409.68 482.94L409.97 482.74L410.25 482.53L410.54 482.31L410.81 482.08L411.08 481.85L411.35 481.61L411.6 481.36L411.86 481.1L412.1 480.84L412.34 480.57L412.58 480.3L412.8 480.02L413.02 479.73L413.24 479.44L413.44 479.14L413.64 478.84L413.83 478.53L414.02 478.21L414.2 477.89L414.37 477.56L414.53 477.23L414.69 476.89L414.85 476.55L415.02 476.21L415.19 475.87L415.35 475.53L415.52 475.2L415.69 474.86L415.86 474.52L416.04 474.19L416.21 473.85L416.39 473.52L416.56 473.19L416.74 472.86L416.92 472.53L417.1 472.2L417.29 471.87L417.47 471.54L417.66 471.21L417.84 470.88L418.03 470.56L418.22 470.23L418.41 469.91L418.6 469.58L418.79 469.26L418.99 468.94L419.18 468.62L419.38 468.3L419.58 467.98L419.77 467.66L419.97 467.34L420.18 467.03L420.38 466.71L420.58 466.4L420.79 466.08L421 465.77L421.2 465.46L421.41 465.15L421.62 464.84L421.83 464.53L422.05 464.22L422.25 463.91L422.45 463.6L422.64 463.29L422.82 462.97L423 462.65L423.16 462.32L423.32 461.99L423.46 461.66L423.6 461.33L423.73 460.99L423.85 460.65L423.97 460.31L424.07 459.96L424.16 459.62L424.25 459.27L424.33 458.92L424.4 458.57L424.46 458.22L424.51 457.86L424.55 457.51L424.58 457.15L424.6 456.8L424.62 456.44L424.62 456.08L424.62 455.72L424.6 455.37L424.58 455.01L424.55 454.65L424.51 454.3L424.45 453.94L424.39 453.59L424.32 453.23L424.24 452.88L424.15 452.53L424.06 452.18L423.95 451.83L423.83 451.49L423.7 451.15L423.56 450.8L423.42 450.47L414.7 431.13L414.49 430.64L414.3 430.14L414.13 429.65L413.98 429.15L413.85 428.65L413.74 428.14L413.65 427.64L413.58 427.13L413.52 426.62L413.49 426.12L413.47 425.61L413.47 425.11L413.49 424.6L413.53 424.1L413.59 423.6L413.67 423.11L413.76 422.62L413.87 422.13L414 421.65L414.14 421.17L414.3 420.69L414.48 420.23L414.68 419.77L414.89 419.31L415.12 418.87L415.36 418.43L415.62 418L415.9 417.58L416.19 417.17L416.5 416.77L416.83 416.37L417.16 415.99L417.52 415.63L417.89 415.27L418.27 414.93L418.67 414.59L419.08 414.28L419.51 413.97L419.95 413.68L420.41 413.41L447.04 398.03L447.5 397.78L447.98 397.54L448.45 397.32L448.93 397.12L449.42 396.94L449.91 396.78L450.4 396.64L450.9 396.52L451.4 396.41L451.9 396.33L452.4 396.26L452.9 396.21L453.41 396.18L453.91 396.17L454.41 396.18L454.91 396.21ZM494.04 471.72L492.23 471.91L490.44 472.16L488.67 472.49L486.92 472.88L485.21 473.34L483.52 473.87L481.86 474.46L480.23 475.11L478.63 475.83L477.06 476.6L475.53 477.43L474.04 478.32L472.58 479.27L471.17 480.27L469.79 481.32L468.46 482.42L467.17 483.57L465.92 484.77L464.72 486.01L463.57 487.3L462.47 488.64L461.42 490.01L460.42 491.43L459.48 492.89L458.59 494.38L457.76 495.91L456.98 497.47L456.27 499.07L455.61 500.7L455.02 502.36L454.5 504.05L454.03 505.77L453.64 507.51L453.31 509.28L453.06 511.07L452.87 512.89L452.76 514.72L452.72 516.57L452.76 518.42L452.87 520.26L453.06 522.07L453.31 523.86L453.64 525.63L454.03 527.37L454.5 529.09L455.02 530.78L455.61 532.44L456.27 534.07L456.98 535.67L457.76 537.23L458.59 538.76L459.48 540.26L460.42 541.71L461.42 543.13L462.47 544.51L463.57 545.84L464.72 547.13L465.92 548.38L467.17 549.58L468.46 550.73L469.79 551.83L471.17 552.88L472.58 553.88L474.04 554.82L475.53 555.71L477.06 556.54L478.63 557.32L480.23 558.03L481.86 558.68L483.52 559.27L485.21 559.8L486.92 560.26L488.67 560.66L490.44 560.98L492.23 561.24L494.04 561.42L495.87 561.53L497.72 561.57L499.58 561.53L501.41 561.42L503.22 561.24L505.01 560.98L506.78 560.66L508.53 560.26L510.24 559.8L511.93 559.27L513.59 558.68L515.22 558.03L516.82 557.32L518.39 556.54L519.92 555.71L521.41 554.82L522.87 553.88L524.28 552.88L525.66 551.83L526.99 550.73L528.28 549.58L529.53 548.38L530.73 547.13L531.88 545.84L532.98 544.51L534.03 543.13L535.03 541.71L535.97 540.26L536.86 538.76L537.69 537.23L538.47 535.67L539.18 534.07L539.84 532.44L540.43 530.78L540.95 529.09L541.41 527.37L541.81 525.63L542.13 523.86L542.39 522.07L542.58 520.26L542.69 518.42L542.72 516.57L542.69 514.72L542.58 512.89L542.39 511.07L542.13 509.28L541.81 507.51L541.41 505.77L540.95 504.05L540.43 502.36L539.84 500.7L539.18 499.07L538.47 497.47L537.69 495.91L536.86 494.38L535.97 492.89L535.03 491.43L534.03 490.01L532.98 488.64L531.88 487.3L530.73 486.01L529.53 484.77L528.28 483.57L526.99 482.42L525.66 481.32L524.28 480.27L522.87 479.27L521.41 478.32L519.92 477.43L518.39 476.6L516.82 475.83L515.22 475.11L513.59 474.46L511.93 473.87L510.24 473.34L508.53 472.88L506.78 472.49L505.01 472.16L503.22 471.91L501.41 471.72L499.58 471.61L497.72 471.57L495.87 471.61L494.04 471.72Z" id="e1rOp1NJgT"></path></defs><g><g><g><use xlink:href="#b1Ta2fr4nz" opacity="1" fill="#4b4b4b" fill-opacity="1"></use><g><use xlink:href="#b1Ta2fr4nz" opacity="1" fill-opacity="0" stroke="#000000" stroke-width="1" stroke-opacity="0"></use></g></g><g><g><filter id="shadow13932074" x="452.72" y="471.57" width="98" height="96" filterUnits="userSpaceOnUse" primitiveUnits="userSpaceOnUse"><feFlood></feFlood><feComposite in2="SourceAlpha" operator="in"></feComposite><feGaussianBlur stdDeviation="1"></feGaussianBlur><feOffset dx="-8" dy="-6" result="afterOffset"></feOffset><feFlood flood-color="#ffffff" flood-opacity="0.5"></feFlood><feComposite in2="afterOffset" operator="in"></feComposite><feMorphology operator="dilate" radius="1"></feMorphology><feComposite in2="SourceAlpha" operator="out"></feComposite></filter><path d="M468.72 516.57C468.72 532.56 481.73 545.57 497.72 545.57C513.71 545.57 526.72 532.56 526.72 516.57C526.72 500.58 513.71 487.57 497.72 487.57C481.73 487.57 468.72 500.58 468.72 516.57Z" id="a2yIdtRyJl" fill="white" fill-opacity="1" filter="url(#shadow13932074)"></path></g><use xlink:href="#a11vf7w9qe" opacity="1" fill="#4b4b4b" fill-opacity="1"></use><g><use xlink:href="#a11vf7w9qe" opacity="1" fill-opacity="0" stroke="#000000" stroke-width="1" stroke-opacity="0"></use></g></g><g><g><filter id="shadow5632863" x="353.72" y="380.17" width="296" height="278.8" filterUnits="userSpaceOnUse" primitiveUnits="userSpaceOnUse"><feFlood></feFlood><feComposite in2="SourceAlpha" operator="in"></feComposite><feGaussianBlur stdDeviation="1"></feGaussianBlur><feOffset dx="-8" dy="-6" result="afterOffset"></feOffset><feFlood flood-color="#ffffff" flood-opacity="0.5"></feFlood><feComposite in2="afterOffset" operator="in"></feComposite><feMorphology operator="dilate" radius="1"></feMorphology><feComposite in2="SourceAlpha" operator="out"></feComposite></filter><path d="M454.91 396.21L455.41 396.25L455.91 396.31L456.4 396.39L456.89 396.48L457.38 396.6L457.86 396.73L458.34 396.88L458.81 397.04L459.28 397.23L459.74 397.43L460.19 397.64L460.64 397.88L461.08 398.13L461.51 398.39L461.93 398.68L462.34 398.98L462.74 399.29L463.13 399.62L463.51 399.97L463.88 400.33L464.24 400.71L464.59 401.11L464.92 401.52L465.24 401.95L477.49 418.99L477.71 419.28L477.94 419.57L478.17 419.85L478.41 420.13L478.65 420.4L478.91 420.67L479.16 420.92L479.43 421.17L479.69 421.41L479.97 421.65L480.25 421.88L480.53 422.1L480.82 422.31L481.12 422.52L481.42 422.72L481.72 422.91L482.03 423.09L482.34 423.26L482.66 423.43L482.98 423.59L483.31 423.74L483.63 423.88L483.97 424.02L484.3 424.14L484.64 424.26L484.98 424.36L485.33 424.46L485.67 424.55L486.02 424.63L486.37 424.7L486.73 424.77L487.08 424.82L487.44 424.86L487.8 424.89L488.16 424.92L488.53 424.93L488.89 424.94L489.25 424.93L489.62 424.91L489.99 424.89L490.18 424.87L490.37 424.86L490.56 424.84L490.75 424.83L490.95 424.81L491.14 424.8L491.33 424.78L491.52 424.77L491.71 424.76L491.91 424.74L492.1 424.73L492.29 424.72L492.48 424.71L492.68 424.7L492.87 424.69L493.06 424.68L493.25 424.67L493.45 424.66L493.64 424.65L493.83 424.64L494.03 424.63L494.22 424.62L494.41 424.62L494.61 424.61L494.8 424.6L495 424.6L495.19 424.59L495.39 424.59L495.58 424.58L495.77 424.58L495.97 424.57L496.16 424.57L496.36 424.57L496.55 424.56L496.75 424.56L496.94 424.56L497.14 424.56L497.33 424.56L497.53 424.56L497.72 424.56L497.92 424.56L498.11 424.56L498.31 424.56L498.51 424.56L498.7 424.56L498.89 424.56L499.09 424.57L499.28 424.57L499.48 424.57L499.67 424.58L499.87 424.58L500.06 424.59L500.26 424.59L500.45 424.6L500.64 424.6L500.84 424.61L501.03 424.62L501.23 424.62L501.42 424.63L501.61 424.64L501.81 424.65L502 424.66L502.19 424.67L502.38 424.68L502.58 424.69L502.77 424.7L502.96 424.71L503.16 424.72L503.35 424.73L503.54 424.74L503.73 424.76L503.92 424.77L504.12 424.78L504.31 424.8L504.5 424.81L504.69 424.83L504.88 424.84L505.08 424.86L505.27 424.87L505.46 424.89L505.83 424.91L506.19 424.93L506.56 424.94L506.92 424.93L507.28 424.92L507.64 424.89L508 424.86L508.36 424.82L508.72 424.77L509.07 424.7L509.42 424.63L509.77 424.55L510.12 424.46L510.46 424.36L510.81 424.26L511.14 424.14L511.48 424.02L511.81 423.88L512.14 423.74L512.46 423.59L512.79 423.43L513.1 423.26L513.42 423.09L513.72 422.91L514.03 422.72L514.33 422.52L514.62 422.31L514.91 422.1L515.2 421.88L515.48 421.65L515.75 421.41L516.02 421.17L516.28 420.92L516.54 420.67L516.79 420.4L517.04 420.13L517.27 419.85L517.51 419.57L517.73 419.28L517.95 418.99L530.21 401.95L530.53 401.52L530.86 401.11L531.21 400.71L531.56 400.34L531.93 399.97L532.31 399.62L532.7 399.29L533.11 398.98L533.52 398.68L533.94 398.39L534.37 398.13L534.81 397.88L535.25 397.64L535.71 397.43L536.17 397.23L536.63 397.04L537.11 396.88L537.58 396.73L538.07 396.6L538.55 396.48L539.04 396.39L539.54 396.31L540.03 396.25L540.53 396.21L541.03 396.18L541.54 396.17L542.04 396.18L542.54 396.21L543.04 396.26L543.55 396.33L544.05 396.41L544.54 396.52L545.04 396.64L545.53 396.78L546.02 396.94L546.51 397.12L546.99 397.32L547.47 397.54L547.94 397.78L548.41 398.03L575.04 413.41L575.49 413.68L575.93 413.97L576.36 414.28L576.78 414.59L577.17 414.93L577.56 415.27L577.93 415.63L578.28 416L578.62 416.37L578.95 416.77L579.25 417.17L579.55 417.58L579.82 418L580.08 418.43L580.33 418.87L580.56 419.31L580.77 419.77L580.97 420.23L581.14 420.69L581.31 421.17L581.45 421.65L581.58 422.13L581.69 422.62L581.78 423.11L581.86 423.6L581.91 424.1L581.95 424.6L581.97 425.11L581.98 425.61L581.96 426.12L581.93 426.63L581.87 427.13L581.8 427.64L581.71 428.14L581.6 428.65L581.47 429.15L581.32 429.65L581.15 430.14L580.96 430.64L580.75 431.13L572.03 450.47L571.88 450.81L571.74 451.15L571.62 451.49L571.5 451.84L571.39 452.18L571.29 452.53L571.2 452.88L571.12 453.23L571.05 453.59L570.99 453.94L570.94 454.3L570.9 454.65L570.87 455.01L570.84 455.37L570.83 455.72L570.83 456.08L570.83 456.44L570.84 456.8L570.87 457.15L570.9 457.51L570.94 457.86L570.99 458.22L571.05 458.57L571.12 458.92L571.2 459.27L571.28 459.62L571.38 459.96L571.48 460.31L571.59 460.65L571.71 460.99L571.84 461.33L571.98 461.66L572.13 461.99L572.29 462.32L572.45 462.65L572.62 462.97L572.81 463.29L573 463.6L573.19 463.91L573.4 464.22L573.61 464.53L573.82 464.84L574.03 465.15L574.24 465.46L574.45 465.77L574.66 466.08L574.86 466.4L575.07 466.71L575.27 467.03L575.47 467.34L575.67 467.66L575.87 467.98L576.07 468.3L576.27 468.62L576.46 468.94L576.65 469.26L576.85 469.58L577.04 469.91L577.23 470.23L577.42 470.56L577.61 470.88L577.79 471.21L577.98 471.54L578.16 471.87L578.34 472.2L578.52 472.53L578.7 472.86L578.88 473.19L579.06 473.52L579.24 473.85L579.41 474.19L579.58 474.52L579.75 474.86L579.93 475.2L580.09 475.53L580.26 475.87L580.43 476.21L580.59 476.55L580.76 476.89L580.92 477.23L581.08 477.56L581.25 477.89L581.43 478.21L581.61 478.53L581.81 478.84L582.01 479.14L582.21 479.44L582.43 479.73L582.65 480.02L582.87 480.3L583.11 480.57L583.35 480.84L583.59 481.1L583.84 481.36L584.1 481.61L584.37 481.85L584.64 482.08L584.91 482.31L585.19 482.53L585.48 482.74L585.77 482.95L586.07 483.14L586.37 483.33L586.68 483.51L586.99 483.69L587.3 483.85L587.62 484.01L587.95 484.16L588.28 484.3L588.61 484.44L588.95 484.56L589.29 484.68L589.63 484.78L589.98 484.88L590.33 484.97L590.69 485.05L591.04 485.12L591.4 485.18L591.77 485.23L592.13 485.27L613.24 487.39L613.76 487.46L614.29 487.54L614.8 487.64L615.31 487.76L615.81 487.9L616.3 488.05L616.78 488.23L617.26 488.42L617.72 488.63L618.18 488.85L618.62 489.09L619.06 489.34L619.49 489.61L619.9 489.9L620.3 490.2L620.69 490.51L621.07 490.83L621.44 491.17L621.8 491.53L622.14 491.89L622.47 492.27L622.78 492.66L623.08 493.05L623.37 493.47L623.64 493.89L623.9 494.32L624.14 494.76L624.37 495.21L624.58 495.67L624.77 496.13L624.95 496.61L625.1 497.09L625.25 497.58L625.37 498.08L625.48 498.59L625.56 499.1L625.63 499.61L625.68 500.14L625.71 500.66L625.72 501.2L625.72 531.95L625.71 532.48L625.68 533.01L625.63 533.53L625.56 534.05L625.48 534.56L625.37 535.06L625.25 535.56L625.1 536.05L624.95 536.53L624.77 537.01L624.58 537.48L624.37 537.94L624.14 538.39L623.9 538.83L623.64 539.26L623.37 539.68L623.08 540.09L622.78 540.49L622.47 540.88L622.14 541.25L621.8 541.62L621.44 541.97L621.07 542.31L620.69 542.64L620.3 542.95L619.9 543.25L619.49 543.53L619.06 543.8L618.62 544.06L618.18 544.3L617.72 544.52L617.26 544.73L616.78 544.92L616.3 545.09L615.81 545.25L615.31 545.38L614.8 545.5L614.29 545.61L613.77 545.69L613.24 545.75L592.14 547.87L591.77 547.91L591.41 547.96L591.04 548.02L590.69 548.09L590.33 548.17L589.98 548.26L589.63 548.36L589.29 548.47L588.95 548.58L588.61 548.71L588.28 548.84L587.95 548.98L587.62 549.13L587.3 549.29L586.99 549.45L586.68 549.63L586.37 549.81L586.07 550L585.77 550.2L585.48 550.4L585.19 550.62L584.91 550.84L584.64 551.06L584.37 551.3L584.1 551.54L583.84 551.79L583.59 552.04L583.35 552.3L583.11 552.57L582.87 552.84L582.65 553.12L582.43 553.41L582.21 553.7L582.01 554L581.81 554.31L581.61 554.62L581.43 554.93L581.25 555.25L581.08 555.58L580.92 555.91L580.76 556.25L580.59 556.59L580.43 556.93L580.26 557.27L580.09 557.61L579.93 557.95L579.76 558.28L579.58 558.62L579.41 558.95L579.24 559.29L579.06 559.62L578.88 559.95L578.7 560.29L578.53 560.62L578.34 560.95L578.16 561.28L577.98 561.61L577.79 561.93L577.61 562.26L577.42 562.59L577.23 562.91L577.04 563.24L576.85 563.56L576.66 563.88L576.46 564.2L576.27 564.52L576.07 564.85L575.87 565.16L575.67 565.48L575.47 565.8L575.27 566.12L575.07 566.43L574.86 566.75L574.66 567.06L574.45 567.37L574.24 567.69L574.04 568L573.83 568.31L573.61 568.62L573.4 568.93L573.19 569.23L573 569.54L572.81 569.86L572.62 570.18L572.45 570.5L572.29 570.82L572.13 571.15L571.98 571.48L571.85 571.82L571.72 572.16L571.59 572.49L571.48 572.84L571.38 573.18L571.28 573.53L571.2 573.87L571.12 574.22L571.05 574.58L570.99 574.93L570.94 575.28L570.9 575.64L570.87 575.99L570.85 576.35L570.83 576.71L570.83 577.06L570.83 577.42L570.85 577.78L570.87 578.13L570.9 578.49L570.94 578.85L570.99 579.2L571.06 579.56L571.13 579.91L571.2 580.26L571.29 580.61L571.39 580.96L571.5 581.31L571.62 581.66L571.75 582L571.88 582.34L572.03 582.68L580.75 602.02L580.96 602.51L581.15 603L581.32 603.5L581.47 604L581.6 604.5L581.71 605L581.8 605.51L581.87 606.01L581.93 606.52L581.96 607.03L581.98 607.53L581.97 608.04L581.95 608.54L581.91 609.04L581.86 609.54L581.78 610.04L581.69 610.53L581.58 611.02L581.45 611.5L581.31 611.98L581.15 612.45L580.97 612.92L580.77 613.38L580.56 613.83L580.33 614.28L580.09 614.72L579.82 615.14L579.55 615.57L579.26 615.98L578.95 616.38L578.62 616.77L578.28 617.15L577.93 617.52L577.56 617.87L577.18 618.22L576.78 618.55L576.36 618.87L575.94 619.17L575.5 619.46L575.04 619.74L548.41 635.11L547.94 635.37L547.47 635.61L546.99 635.82L546.51 636.02L546.03 636.2L545.54 636.36L545.04 636.5L544.55 636.63L544.05 636.73L543.55 636.82L543.04 636.88L542.54 636.93L542.04 636.96L541.54 636.97L541.04 636.96L540.53 636.94L540.04 636.9L539.54 636.83L539.05 636.76L538.55 636.66L538.07 636.55L537.59 636.41L537.11 636.27L536.64 636.1L536.17 635.92L535.71 635.72L535.26 635.5L534.81 635.27L534.37 635.02L533.94 634.75L533.52 634.47L533.11 634.17L532.71 633.85L532.31 633.52L531.93 633.17L531.56 632.81L531.21 632.43L530.86 632.03L530.53 631.62L530.21 631.2L517.95 614.16L517.73 613.87L517.51 613.58L517.28 613.29L517.04 613.02L516.79 612.75L516.54 612.48L516.28 612.23L516.02 611.98L515.75 611.73L515.48 611.5L515.2 611.27L514.91 611.05L514.62 610.84L514.33 610.63L514.03 610.43L513.72 610.24L513.42 610.06L513.1 609.88L512.79 609.72L512.47 609.56L512.14 609.41L511.81 609.26L511.48 609.13L511.15 609.01L510.81 608.89L510.47 608.78L510.12 608.68L509.77 608.59L509.42 608.51L509.07 608.44L508.72 608.38L508.36 608.33L508.01 608.29L507.65 608.25L507.28 608.23L506.92 608.21L506.56 608.21L506.19 608.22L505.83 608.23L505.46 608.26L505.27 608.28L505.08 608.29L504.89 608.31L504.69 608.32L504.5 608.34L504.31 608.35L504.12 608.36L503.93 608.38L503.73 608.39L503.54 608.4L503.35 608.41L503.16 608.43L502.96 608.44L502.77 608.45L502.58 608.46L502.39 608.47L502.19 608.48L502 608.49L501.81 608.5L501.61 608.51L501.42 608.51L501.23 608.52L501.03 608.53L500.84 608.54L500.64 608.54L500.45 608.55L500.26 608.56L500.06 608.56L499.87 608.57L499.67 608.57L499.48 608.57L499.29 608.58L499.09 608.58L498.9 608.58L498.7 608.59L498.51 608.59L498.31 608.59L498.12 608.59L497.92 608.59L497.73 608.59L497.53 608.59L497.33 608.59L497.14 608.59L496.94 608.59L496.75 608.59L496.55 608.58L496.36 608.58L496.16 608.58L495.97 608.57L495.77 608.57L495.58 608.57L495.39 608.56L495.19 608.56L495 608.55L494.8 608.54L494.61 608.54L494.42 608.53L494.22 608.52L494.03 608.51L493.84 608.51L493.64 608.5L493.45 608.49L493.26 608.48L493.06 608.47L492.87 608.46L492.68 608.45L492.48 608.44L492.29 608.43L492.1 608.41L491.91 608.4L491.71 608.39L491.52 608.38L491.33 608.36L491.14 608.35L490.95 608.34L490.75 608.32L490.56 608.31L490.37 608.29L490.18 608.28L489.99 608.26L489.62 608.23L489.26 608.22L488.89 608.21L488.53 608.21L488.16 608.23L487.8 608.25L487.44 608.29L487.08 608.33L486.73 608.38L486.37 608.44L486.02 608.51L485.67 608.59L485.33 608.68L484.98 608.78L484.64 608.89L484.3 609.01L483.97 609.13L483.64 609.26L483.31 609.41L482.98 609.56L482.66 609.72L482.34 609.88L482.03 610.06L481.72 610.24L481.42 610.43L481.12 610.63L480.82 610.84L480.53 611.05L480.25 611.27L479.97 611.5L479.7 611.73L479.43 611.98L479.16 612.23L478.91 612.48L478.66 612.75L478.41 613.02L478.17 613.29L477.94 613.58L477.71 613.87L477.49 614.16L465.24 631.2L464.92 631.62L464.59 632.03L464.24 632.43L463.88 632.81L463.51 633.17L463.13 633.52L462.74 633.85L462.34 634.17L461.93 634.47L461.51 634.75L461.08 635.02L460.64 635.27L460.19 635.5L459.74 635.72L459.28 635.92L458.81 636.1L458.34 636.27L457.86 636.41L457.38 636.55L456.89 636.66L456.4 636.76L455.91 636.83L455.41 636.9L454.91 636.94L454.41 636.96L453.91 636.97L453.41 636.96L452.9 636.93L452.4 636.88L451.9 636.82L451.4 636.73L450.9 636.63L450.4 636.5L449.91 636.36L449.42 636.2L448.93 636.02L448.45 635.82L447.98 635.61L447.5 635.37L447.04 635.11L420.41 619.74L419.95 619.46L419.51 619.17L419.08 618.87L418.67 618.55L418.27 618.22L417.89 617.87L417.52 617.52L417.16 617.15L416.83 616.77L416.5 616.38L416.19 615.98L415.9 615.57L415.62 615.14L415.36 614.72L415.12 614.28L414.89 613.83L414.68 613.38L414.48 612.92L414.3 612.45L414.14 611.98L414 611.5L413.87 611.02L413.76 610.53L413.67 610.04L413.59 609.54L413.53 609.04L413.49 608.54L413.47 608.04L413.47 607.53L413.49 607.03L413.52 606.52L413.58 606.01L413.65 605.51L413.74 605L413.85 604.5L413.98 604L414.13 603.5L414.3 603L414.49 602.51L414.7 602.02L423.42 582.68L423.56 582.34L423.7 582L423.83 581.66L423.95 581.31L424.06 580.96L424.15 580.61L424.24 580.26L424.32 579.91L424.39 579.56L424.45 579.2L424.51 578.85L424.55 578.49L424.58 578.13L424.6 577.78L424.62 577.42L424.62 577.06L424.62 576.71L424.6 576.35L424.58 575.99L424.55 575.64L424.51 575.28L424.46 574.93L424.4 574.58L424.33 574.22L424.25 573.87L424.16 573.53L424.07 573.18L423.97 572.84L423.85 572.49L423.73 572.16L423.6 571.82L423.46 571.48L423.32 571.15L423.16 570.82L423 570.5L422.82 570.18L422.64 569.86L422.45 569.54L422.25 569.23L422.05 568.93L421.83 568.62L421.62 568.31L421.41 568L421.2 567.69L421 567.37L420.79 567.06L420.58 566.75L420.38 566.43L420.18 566.12L419.97 565.8L419.77 565.48L419.58 565.16L419.38 564.85L419.18 564.53L418.99 564.2L418.79 563.88L418.6 563.56L418.41 563.24L418.22 562.91L418.03 562.59L417.84 562.26L417.66 561.93L417.47 561.61L417.29 561.28L417.1 560.95L416.92 560.62L416.74 560.29L416.56 559.95L416.39 559.62L416.21 559.29L416.04 558.95L415.86 558.62L415.69 558.28L415.52 557.95L415.35 557.61L415.19 557.27L415.02 556.93L414.85 556.59L414.69 556.25L414.53 555.91L414.37 555.58L414.2 555.25L414.02 554.93L413.83 554.62L413.64 554.31L413.44 554L413.24 553.7L413.02 553.41L412.8 553.12L412.57 552.84L412.34 552.57L412.1 552.3L411.86 552.04L411.6 551.79L411.35 551.54L411.08 551.3L410.81 551.06L410.54 550.84L410.25 550.62L409.97 550.4L409.68 550.2L409.38 550L409.08 549.81L408.77 549.63L408.46 549.45L408.14 549.29L407.82 549.13L407.5 548.98L407.17 548.84L406.84 548.71L406.5 548.58L406.16 548.47L405.82 548.36L405.47 548.26L405.12 548.17L404.76 548.09L404.4 548.02L404.04 547.96L403.68 547.91L403.31 547.87L382.21 545.75L381.68 545.69L381.16 545.61L380.65 545.5L380.14 545.38L379.64 545.25L379.15 545.09L378.66 544.92L378.19 544.73L377.72 544.52L377.27 544.3L376.82 544.06L376.39 543.8L375.96 543.53L375.55 543.25L375.14 542.95L374.75 542.64L374.37 542.31L374.01 541.97L373.65 541.62L373.31 541.25L372.98 540.88L372.66 540.49L372.36 540.09L372.08 539.68L371.8 539.26L371.55 538.83L371.31 538.39L371.08 537.94L370.87 537.48L370.68 537.01L370.5 536.53L370.34 536.05L370.2 535.56L370.07 535.06L369.97 534.56L369.88 534.05L369.81 533.53L369.76 533.01L369.73 532.48L369.72 531.95L369.72 501.2L369.73 500.66L369.76 500.14L369.81 499.61L369.88 499.1L369.97 498.59L370.07 498.08L370.2 497.58L370.34 497.09L370.5 496.61L370.68 496.13L370.87 495.67L371.08 495.21L371.31 494.76L371.55 494.32L371.8 493.89L372.08 493.47L372.36 493.05L372.66 492.66L372.98 492.27L373.31 491.89L373.65 491.53L374.01 491.17L374.37 490.83L374.75 490.51L375.14 490.2L375.55 489.9L375.96 489.61L376.39 489.34L376.82 489.09L377.27 488.85L377.72 488.63L378.19 488.42L378.66 488.23L379.15 488.05L379.64 487.9L380.14 487.76L380.65 487.64L381.16 487.54L381.68 487.45L382.21 487.39L403.31 485.27L403.68 485.23L404.04 485.18L404.4 485.12L404.76 485.05L405.12 484.97L405.47 484.88L405.82 484.78L406.16 484.68L406.5 484.56L406.84 484.44L407.17 484.3L407.5 484.16L407.82 484.01L408.14 483.85L408.46 483.69L408.77 483.51L409.08 483.33L409.38 483.14L409.68 482.94L409.97 482.74L410.25 482.53L410.54 482.31L410.81 482.08L411.08 481.85L411.35 481.61L411.6 481.36L411.86 481.1L412.1 480.84L412.34 480.57L412.58 480.3L412.8 480.02L413.02 479.73L413.24 479.44L413.44 479.14L413.64 478.84L413.83 478.53L414.02 478.21L414.2 477.89L414.37 477.56L414.53 477.23L414.69 476.89L414.85 476.55L415.02 476.21L415.19 475.87L415.35 475.53L415.52 475.2L415.69 474.86L415.86 474.52L416.04 474.19L416.21 473.85L416.39 473.52L416.56 473.19L416.74 472.86L416.92 472.53L417.1 472.2L417.29 471.87L417.47 471.54L417.66 471.21L417.84 470.88L418.03 470.56L418.22 470.23L418.41 469.91L418.6 469.58L418.79 469.26L418.99 468.94L419.18 468.62L419.38 468.3L419.58 467.98L419.77 467.66L419.97 467.34L420.18 467.03L420.38 466.71L420.58 466.4L420.79 466.08L421 465.77L421.2 465.46L421.41 465.15L421.62 464.84L421.83 464.53L422.05 464.22L422.25 463.91L422.45 463.6L422.64 463.29L422.82 462.97L423 462.65L423.16 462.32L423.32 461.99L423.46 461.66L423.6 461.33L423.73 460.99L423.85 460.65L423.97 460.31L424.07 459.96L424.16 459.62L424.25 459.27L424.33 458.92L424.4 458.57L424.46 458.22L424.51 457.86L424.55 457.51L424.58 457.15L424.6 456.8L424.62 456.44L424.62 456.08L424.62 455.72L424.6 455.37L424.58 455.01L424.55 454.65L424.51 454.3L424.45 453.94L424.39 453.59L424.32 453.23L424.24 452.88L424.15 452.53L424.06 452.18L423.95 451.83L423.83 451.49L423.7 451.15L423.56 450.8L423.42 450.47L414.7 431.13L414.49 430.64L414.3 430.14L414.13 429.65L413.98 429.15L413.85 428.65L413.74 428.14L413.65 427.64L413.58 427.13L413.52 426.62L413.49 426.12L413.47 425.61L413.47 425.11L413.49 424.6L413.53 424.1L413.59 423.6L413.67 423.11L413.76 422.62L413.87 422.13L414 421.65L414.14 421.17L414.3 420.69L414.48 420.23L414.68 419.77L414.89 419.31L415.12 418.87L415.36 418.43L415.62 418L415.9 417.58L416.19 417.17L416.5 416.77L416.83 416.37L417.16 415.99L417.52 415.63L417.89 415.27L418.27 414.93L418.67 414.59L419.08 414.28L419.51 413.97L419.95 413.68L420.41 413.41L447.04 398.03L447.5 397.78L447.98 397.54L448.45 397.32L448.93 397.12L449.42 396.94L449.91 396.78L450.4 396.64L450.9 396.52L451.4 396.41L451.9 396.33L452.4 396.26L452.9 396.21L453.41 396.18L453.91 396.17L454.41 396.18L454.91 396.21ZM494.04 471.72L492.23 471.91L490.44 472.16L488.67 472.49L486.92 472.88L485.21 473.34L483.52 473.87L481.86 474.46L480.23 475.11L478.63 475.83L477.06 476.6L475.53 477.43L474.04 478.32L472.58 479.27L471.17 480.27L469.79 481.32L468.46 482.42L467.17 483.57L465.92 484.77L464.72 486.01L463.57 487.3L462.47 488.64L461.42 490.01L460.42 491.43L459.48 492.89L458.59 494.38L457.76 495.91L456.98 497.47L456.27 499.07L455.61 500.7L455.02 502.36L454.5 504.05L454.03 505.77L453.64 507.51L453.31 509.28L453.06 511.07L452.87 512.89L452.76 514.72L452.72 516.57L452.76 518.42L452.87 520.26L453.06 522.07L453.31 523.86L453.64 525.63L454.03 527.37L454.5 529.09L455.02 530.78L455.61 532.44L456.27 534.07L456.98 535.67L457.76 537.23L458.59 538.76L459.48 540.26L460.42 541.71L461.42 543.13L462.47 544.51L463.57 545.84L464.72 547.13L465.92 548.38L467.17 549.58L468.46 550.73L469.79 551.83L471.17 552.88L472.58 553.88L474.04 554.82L475.53 555.71L477.06 556.54L478.63 557.32L480.23 558.03L481.86 558.68L483.52 559.27L485.21 559.8L486.92 560.26L488.67 560.66L490.44 560.98L492.23 561.24L494.04 561.42L495.87 561.53L497.72 561.57L499.58 561.53L501.41 561.42L503.22 561.24L505.01 560.98L506.78 560.66L508.53 560.26L510.24 559.8L511.93 559.27L513.59 558.68L515.22 558.03L516.82 557.32L518.39 556.54L519.92 555.71L521.41 554.82L522.87 553.88L524.28 552.88L525.66 551.83L526.99 550.73L528.28 549.58L529.53 548.38L530.73 547.13L531.88 545.84L532.98 544.51L534.03 543.13L535.03 541.71L535.97 540.26L536.86 538.76L537.69 537.23L538.47 535.67L539.18 534.07L539.84 532.44L540.43 530.78L540.95 529.09L541.41 527.37L541.81 525.63L542.13 523.86L542.39 522.07L542.58 520.26L542.69 518.42L542.72 516.57L542.69 514.72L542.58 512.89L542.39 511.07L542.13 509.28L541.81 507.51L541.41 505.77L540.95 504.05L540.43 502.36L539.84 500.7L539.18 499.07L538.47 497.47L537.69 495.91L536.86 494.38L535.97 492.89L535.03 491.43L534.03 490.01L532.98 488.64L531.88 487.3L530.73 486.01L529.53 484.77L528.28 483.57L526.99 482.42L525.66 481.32L524.28 480.27L522.87 479.27L521.41 478.32L519.92 477.43L518.39 476.6L516.82 475.83L515.22 475.11L513.59 474.46L511.93 473.87L510.24 473.34L508.53 472.88L506.78 472.49L505.01 472.16L503.22 471.91L501.41 471.72L499.58 471.61L497.72 471.57L495.87 471.61L494.04 471.72Z" id="b11dURjPGW" fill="white" fill-opacity="1" filter="url(#shadow5632863)"></path></g><use xlink:href="#e1rOp1NJgT" opacity="1" fill="#4b4b4b" fill-opacity="1"></use><g><use xlink:href="#e1rOp1NJgT" opacity="1" fill-opacity="0" stroke="#000000" stroke-width="1" stroke-opacity="0"></use></g></g></g></g></svg>