<!DOCTYPE svg PUBLIC "-//W3C//DTD SVG 20010904//EN" "http://www.w3.org/TR/2001/REC-SVG-20010904/DTD/svg10.dtd">
<svg version="1.0" xmlns="http://www.w3.org/2000/svg" style="width: 256px; height: 256px; opacity: 1;" viewBox="0 0 2560 2560" preserveAspectRatio="xMidYMid meet">
<g id="layer101" fill="#4b4b4b" stroke="none">
 <path d="M630 2415 c-91 -52 -175 -106 -187 -120 -39 -44 -31 -97 32 -226 30 -62 55 -120 55 -129 0 -9 -15 -37 -33 -61 -45 -59 -69 -100 -116 -196 -23 -47 -48 -84 -59 -87 -11 -4 -75 -10 -144 -14 -91 -6 -133 -13 -152 -25 l-26 -17 0 -255 c0 -320 -17 -296 218 -309 51 -3 101 -10 111 -16 11 -5 36 -46 57 -91 21 -45 62 -116 91 -158 29 -41 53 -81 53 -88 0 -8 -25 -63 -55 -123 -64 -128 -73 -189 -33 -234 13 -14 98 -68 190 -121 140 -79 174 -95 210 -95 24 0 54 7 66 16 12 8 54 62 92 119 38 57 75 107 82 111 6 4 96 7 200 7 139 0 192 -4 203 -13 9 -8 43 -56 77 -107 74 -114 96 -133 156 -133 38 0 68 14 206 92 198 113 216 129 216 195 0 38 -11 72 -57 166 -64 133 -65 112 9 221 21 30 58 95 83 144 24 50 53 93 62 96 10 3 75 10 145 15 90 6 135 13 153 25 l25 16 0 260 0 260 -26 17 c-19 12 -61 19 -152 25 -69 4 -133 10 -143 13 -11 4 -42 51 -74 114 -30 59 -73 131 -95 161 -22 29 -40 59 -40 66 0 7 25 63 55 125 62 126 71 186 36 231 -11 14 -96 68 -189 121 -144 83 -175 97 -213 97 -24 0 -55 -7 -67 -16 -12 -8 -54 -62 -92 -119 -38 -57 -75 -107 -81 -111 -15 -9 -383 -9 -398 0 -6 4 -43 54 -81 111 -38 57 -80 111 -92 119 -12 9 -43 16 -68 16 -39 0 -69 -14 -210 -95z m784 -601 c193 -50 350 -207 400 -400 75 -290 -110 -593 -409 -669 -282 -72 -582 112 -660 405 -75 281 118 595 408 666 73 17 188 17 261 -2z"/>
 <path d="M1166 1560 c-57 -22 -128 -87 -159 -145 -18 -33 -22 -57 -22 -135 0 -110 11 -138 83 -213 58 -59 127 -87 217 -87 84 0 138 22 198 79 77 73 92 109 92 221 0 110 -11 138 -83 213 -81 83 -214 111 -326 67z"/>
 </g>

</svg>