<!DOCTYPE svg PUBLIC "-//W3C//DTD SVG 20010904//EN" "http://www.w3.org/TR/2001/REC-SVG-20010904/DTD/svg10.dtd">
<svg version="1.0" xmlns="http://www.w3.org/2000/svg" viewBox="0 0 2560 2560" style="width: 256px; height: 256px; opacity: 1;" preserveAspectRatio="xMidYMid meet">
<g id="layer101" fill="#4b4b4b" stroke="none">
 <path d="M2245 2541 c-16 -10 -97 -86 -179 -169 -114 -115 -148 -155 -144 -170 4 -15 1 -18 -14 -14 -14 3 -36 -11 -79 -54 -32 -32 -59 -63 -59 -69 0 -13 282 -295 295 -295 6 0 37 27 69 59 43 43 57 65 54 79 -4 15 -1 18 14 14 15 -4 55 30 175 149 85 85 161 166 169 181 20 38 19 199 -1 239 -28 53 -68 69 -175 69 -76 0 -101 -4 -125 -19z"/>
 <path d="M1676 1911 l-99 -100 -44 31 c-178 122 -462 181 -700 144 -224 -34 -399 -122 -559 -281 -93 -92 -150 -173 -205 -290 -55 -118 -69 -204 -69 -430 0 -266 19 -347 119 -519 54 -92 168 -218 260 -288 97 -73 250 -145 346 -163 109 -20 422 -20 529 0 88 17 212 72 307 135 82 56 213 187 269 269 219 326 224 793 12 1114 l-25 38 96 97 c53 54 97 104 97 112 0 17 -209 230 -225 230 -6 0 -55 -45 -109 -99z m-521 -256 c180 -46 342 -171 433 -332 59 -107 85 -204 85 -328 1 -116 -7 -160 -50 -265 -77 -190 -231 -333 -428 -396 -318 -103 -671 46 -819 346 -25 52 -53 127 -61 165 -80 383 177 753 573 825 63 12 193 4 267 -15z"/>
 <path d="M731 1415 c-96 -46 -193 -143 -239 -237 -95 -196 -53 -439 104 -594 101 -99 241 -158 284 -119 31 28 24 51 -35 115 -168 183 -196 445 -70 655 20 33 54 78 76 100 43 45 49 73 21 98 -28 25 -60 21 -141 -18z"/>
 </g>

</svg>